<?xml version="1.0" encoding="utf-8"?>
<!-- Generator: Adobe Illustrator 22.0.1, SVG Export Plug-In . SVG Version: 6.00 Build 0)  -->
<svg version="1.1" id="Layer_1" xmlns="http://www.w3.org/2000/svg" xmlns:xlink="http://www.w3.org/1999/xlink" x="0px" y="0px"
	 viewBox="0 0 1236 1380.5" enable-background="new 0 0 1236 1380.5" xml:space="preserve">
<g>
	<g opacity="0.92">
		<rect fill="#041C3F" width="1236" height="1380.5"/>
	</g>
	<path fill="#123354" d="M436,1286.4c0,14.9-83.8,26.9-187.2,26.9s-187.2-12-187.2-26.9c0-14.9,83.8-26.9,187.2-26.9
		S436,1271.5,436,1286.4z"/>
	<g>
		<path fill="#123354" d="M1145.8,744.3c0,260.7-211.3,472.1-472.1,472.1c-260.7,0-472.1-211.4-472.1-472.1
			c0-260.7,211.3-472.1,472.1-472.1C934.5,272.3,1145.8,483.6,1145.8,744.3z"/>
	</g>
	<g>
		<path fill="#FFFFFF" d="M203.5,1089.5c-3.3-4.7-6.5-9.4-9.7-14.2l4.3-5.1c3.2,4.7,6.4,9.4,9.7,14.1L203.5,1089.5z M182.3,1058
			c-3.2-4.9-6.3-9.7-9.4-14.6l4.4-4.9c3,4.8,6.1,9.7,9.3,14.5L182.3,1058z M1096.5,1053l-4.7-4.4c2.7-5.1,5.5-10.4,8-15.7l4.8,4.2
			C1102,1042.4,1099.3,1047.7,1096.5,1053z M162,1025.6c-3.1-5.1-6-10.2-8.9-15.2l4.6-4.6c2.8,4.9,5.8,10,8.8,15L162,1025.6z
			 M1113.8,1017.4l-5-3.9c2.4-5.4,4.8-11,7-16.5l5.1,3.6C1118.7,1006.3,1116.3,1011.9,1113.8,1017.4z M142.8,991.8
			c-2.8-5.2-5.5-10.6-8.1-15.9l4.8-4.2c2.6,5.2,5.3,10.5,8,15.7L142.8,991.8z M1128.7,980l-5.2-3.2c2-5.7,4-11.5,5.8-17.3l5.3,2.9
			C1132.8,968.2,1130.8,974.2,1128.7,980z M125.4,956.4c-2.5-5.4-4.9-11-7.2-16.6l5-3.7c2.3,5.5,4.7,11,7.2,16.4L125.4,956.4z
			 M1140.8,940.8l-5.5-2.5c1.6-6,3-12,4.4-18l5.5,2.1C1143.9,928.5,1142.4,934.7,1140.8,940.8z M110,919.5
			c-2.2-5.6-4.3-11.4-6.4-17.2l5.2-3.3c2,5.7,4.2,11.5,6.3,17L110,919.5z M1149.7,900l-5.6-1.7c1.1-6.2,2-12.4,2.8-18.5l5.7,1.3
			C1151.7,887.3,1150.7,893.7,1149.7,900z M96.5,881.3c-1.9-5.9-3.8-11.8-5.6-17.7l5.4-2.9c1.8,5.9,3.6,11.7,5.5,17.5L96.5,881.3z
			 M1155.3,858.5l-5.7-1.3c0.8-6.2,1.5-12.5,2.2-18.7l5.7,1C1156.8,845.8,1156.1,852.2,1155.3,858.5z M85,841.7
			c-1.5-6.1-2.9-12.2-4.3-18.3l5.5-2.2c1.4,6.1,2.8,12.1,4.2,18.2L85,841.7z M1159.4,816.6l-5.8-0.7c0.4-6.4,0.8-12.7,1-18.9
			l5.8,0.4C1160.2,803.7,1159.9,810.1,1159.4,816.6z M76,801.3c-1.3-6.2-2.5-12.4-3.6-18.6l5.6-1.8c1.1,6.1,2.3,12.3,3.6,18.4
			L76,801.3z M1155.1,774.4c0-6.3-0.2-12.7-0.4-18.9l5.8-0.4c0.2,6.3,0.4,12.8,0.4,19.2L1155.1,774.4z M700.5,762.6L700,755
			c4.5-0.5,9-1.8,13.4-3.7l1.8,7.2C710.4,760.6,705.5,762,700.5,762.6z M68.4,760.4c-1-6.3-2-12.5-2.9-18.8l5.7-1.4
			c0.9,6.2,1.8,12.4,2.9,18.6L68.4,760.4z M682.4,760.3c-4.7-1.7-9.4-3.9-14-6.8l2.4-6.9c4.3,2.7,8.7,4.8,13.1,6.3L682.4,760.3z
			 M731.5,748.2l-3.1-6.5c3.7-3.1,7.5-6.8,11.2-11.1l3.8,5.8C739.5,740.9,735.5,744.8,731.5,748.2z M653,741.7
			c-3.9-3.6-7.8-7.7-11.5-12.2l3.9-5.7c3.6,4.3,7.3,8.2,11,11.6L653,741.7z M1153.3,732.9c-0.5-6.3-1.2-12.5-2-18.7l5.7-1.3
			c0.8,6.3,1.5,12.7,2.1,19.1L1153.3,732.9z M755.9,719.8l-4.3-5c2.9-4.3,5.8-9.1,8.6-14.1l0.2-0.4l4.7,4.4l-0.3,0.5
			C761.8,710.5,758.8,715.4,755.9,719.8z M62.5,718.9c-0.7-6.3-1.4-12.7-2-19l5.7-1c0.6,6.2,1.3,12.5,2,18.8L62.5,718.9z
			 M629.1,712.9c-1.1-1.6-2.1-3.3-3.2-5c-2-2.8-4.2-6-6.4-9.3l4.4-5c2.1,3.2,4.2,6.3,6.4,9.3c1.1,1.8,2.1,3.4,3.2,5L629.1,712.9z
			 M1147.8,692.1c-1.1-6.1-2.4-12.3-3.8-18.2l5.5-2.3c1.4,6.1,2.7,12.3,3.9,18.6L1147.8,692.1z M774.8,685.5l-4.9-4.1
			c2.5-5.2,5-10.7,7.5-16.2l5,3.8C779.9,674.6,777.4,680.2,774.8,685.5z M608.5,680.6c-2.8-4.9-5.7-10.2-8.5-15.6l4.7-4.4
			c2.8,5.3,5.6,10.4,8.4,15.3L608.5,680.6z M58.6,677c-0.4-6.4-0.8-12.8-1.1-19.2l5.8-0.4c0.3,6.2,0.6,12.6,1,18.9L58.6,677z
			 M1138.4,652.6c-1.7-5.8-3.6-11.7-5.6-17.3l5.2-3.2c2,5.8,4,11.8,5.7,17.7L1138.4,652.6z M790.9,648.9l-5.1-3.6
			c2.2-5.5,4.4-11.2,6.5-16.9l5.2,3.4C795.3,637.6,793.1,643.4,790.9,648.9z M590.3,645.8c-2.5-5.2-5-10.7-7.6-16.3l5-3.9
			c2.5,5.6,5,11.1,7.5,16.2L590.3,645.8z M56.9,634.8c0-2.7,0-5.5,0-8.2c0-3.7,0-7.4,0.1-11l5.8,0.2c-0.1,3.6-0.1,7.3-0.1,10.9
			c0,2.7,0,5.4,0,8.1L56.9,634.8z M1125.1,615.1c-2.3-5.4-4.8-10.7-7.5-15.8l4.7-4.4c2.8,5.3,5.5,10.8,7.9,16.5L1125.1,615.1z
			 M804.9,611l-5.3-3.1c2-5.8,3.9-11.6,5.8-17.4l5.3,3C808.8,599.3,806.9,605.2,804.9,611z M574.1,609.5c-1.3-3-2.5-6-3.8-9
			c-1.1-2.3-2.3-4.8-3.4-7.3l4.9-3.9c1.1,2.5,2.3,5,3.5,7.4c1.3,3.2,2.6,6.2,3.8,9.2L574.1,609.5z M63.5,593.1l-5.8-0.5
			c0.2-3.2,0.3-6.3,0.5-9.5c0-2.9,0-6.2,0.1-9.4l5.8,0.2c-0.1,3.2-0.1,6.3-0.1,9.5C63.8,586.8,63.7,589.9,63.5,593.1z M1106.9,581.9
			c-3.2-4.6-6.7-9-10.2-12.9l3.3-5.1l-2.6-5c3.8-3.4,7.2-7.5,10.1-12l4.4,4.9c-3,4.7-6.5,8.9-10.4,12.5c3.3,3.8,6.5,7.9,9.6,12.3
			L1106.9,581.9z M1069.9,580.3l-0.7-7.6c4.5-0.7,9.1-2.1,13.4-4.1l1.9,7.2C1079.8,578,1074.8,579.6,1069.9,580.3z M1051.6,579.1
			c-4.8-1.6-9-4.3-12.4-8c-0.5-0.4-1-1-1.5-1.6l3.9-5.7c0.3,0.4,0.7,0.8,1.2,1.2c2.9,3.1,6.3,5.3,10.3,6.6L1051.6,579.1z
			 M558.1,573.3l-7.1-16.6l5-3.7l7.1,16.6L558.1,573.3z M817.3,572.4l-5.3-3.2c2-5.7,3.9-11.5,5.9-17.4l5.3,3.1
			C821.2,560.9,819.3,566.7,817.3,572.4z M1083.8,556.6l-0.6-0.3c-4.3-2.8-8.8-5.1-13-6.9l1.7-7.3c4.5,1.8,9.2,4.4,13.8,7.3
			l-1.3,3.4L1083.8,556.6z M65.3,551.3l-5.7-0.8c0.5-6.4,1.2-12.9,2.1-19.1l5.7,1.3C66.5,538.8,65.8,545.1,65.3,551.3z
			 M1042.1,550.4l-3.4-6.2c0.9-0.9,1.9-1.7,3-2.4c3.5-2.3,7.6-3.5,12.3-3.5l0.1,7.6c-3.8,0.1-7.1,1-9.9,2.8
			C1043.5,549.2,1042.8,549.7,1042.1,550.4z M542.5,536.9c-2.6-5.8-5.1-11.1-7.6-16l4.8-4.2c2.5,5,5,10.4,7.7,16.3L542.5,536.9z
			 M830.3,534.1l-5.3-3.1c2-5.8,4-11.6,6-17.4l5.2,3.2C834.3,522.6,832.3,528.3,830.3,534.1z M1121.3,531.3l-5.4-2.8
			c1.6-5.4,2.8-11.3,3.5-17.6l5.7,1.1C1124.4,518.8,1123.1,525.3,1121.3,531.3z M71.1,510.7l-5.6-2c1.3-6.3,2.8-12.5,4.4-18.5
			l5.4,2.6C73.8,498.6,72.3,504.6,71.1,510.7z M525,502.4c-0.6-1-1.2-2.1-1.8-3.1c-2.5-4.2-4.9-7.9-7.2-11.3l4.3-5.1
			c2.4,3.5,4.9,7.4,7.5,11.7c0.6,1.1,1.3,2.1,1.9,3.2L525,502.4z M843.7,496.2l-5.2-3.4c2.1-5.7,4.3-11.5,6.5-17.1l5.1,3.5
			C848,484.9,845.9,490.5,843.7,496.2z M341.5,489.3l-1.1,0l0.1-7.6l1,0c3.8,0,7.6-0.4,11.6-1.2l1.3-0.3l1,7.5L354,488
			C349.8,488.8,345.6,489.3,341.5,489.3z M1120,488.9c-0.3-6-1-12.1-2.1-18.3l5.6-1.7c1.1,6.5,1.9,13.1,2.2,19.4L1120,488.9z
			 M322.6,486c-4.7-1.7-9.4-4.1-14-7.1l2.6-6.8c4.2,2.8,8.6,5,12.9,6.6L322.6,486z M372.5,482.3l-1.6-7.3c4-1.6,8.4-3.5,13.6-5.9
			l1.9,7.2C381.1,478.7,376.7,480.6,372.5,482.3z M503.8,472.5c-3.8-4.1-7.6-7.5-11.5-10.4l2.8-6.7c4.2,3,8.3,6.8,12.3,11.1
			L503.8,472.5z M82,472.1l-5.2-3.3c0.5-1.4,1-2.8,1.6-4.1c1.5-4.4,3.2-8.9,5-13.1l5,3.8c-1.7,4-3.4,8.2-4.8,12.6
			C83,469.4,82.5,470.8,82,472.1z M402.7,468.3l-2-7.2c4-2,8.8-4.3,13.7-6.5l1.8,7.2C411.4,464.1,406.7,466.3,402.7,468.3z
			 M293.6,466.2c-3.7-3.7-7.4-8.1-11.1-12.8l4-5.5c3.6,4.6,7.1,8.7,10.6,12.3L293.6,466.2z M123,463.8l-1.1-7.5
			c1.2-0.3,2.4-0.7,3.5-1.2c2.9-1.5,5.2-3.8,6.7-6.7l4.7,4.3c-2.2,4.2-5.4,7.4-9.5,9.5C125.8,463,124.4,463.5,123,463.8z
			 M104.4,461.5c-4.5-2.4-8.8-6-12.9-10.9l3.9-5.7c3.6,4.3,7.4,7.5,11.2,9.5L104.4,461.5z M858.5,459.3l-5-3.8
			c2.5-5.7,5-11.2,7.5-16.5l4.9,4.1C863.4,448.2,860.9,453.7,858.5,459.3z M432.5,455.5l-1.4-7.4c5.1-1.6,9.9-2.8,14.5-3.5l0.7,7.6
			C442,452.9,437.5,454,432.5,455.5z M476.9,454.2c-2.9-0.9-6-1.5-9-1.8c-1.7-0.3-3.3-0.6-4.8-0.7l0.5-7.6c1.7,0.2,3.3,0.4,5,0.7
			c3.1,0.3,6.5,1,9.7,2L476.9,454.2z M1112.9,449.4c-1.8-5.8-3.8-11.4-6.1-16.7l5-3.8c2.4,5.6,4.6,11.6,6.4,17.6L1112.9,449.4z
			 M98.1,437.5l-4.2-5.2c3.7-5.4,7.7-9.6,11.8-12.7l2.9,6.6C105,428.9,101.4,432.7,98.1,437.5z M270.5,436.4
			c-2.9-4.4-5.8-9.1-9.3-14.8l4.5-4.8c3.4,5.7,6.3,10.3,9.1,14.6L270.5,436.4z M79.9,432.2c-2.6-5.5-5-11.4-6.9-17.5l5.3-2.9
			c1.8,5.7,4,11.2,6.4,16.3L79.9,432.2z M132.4,430.8c-2-4.7-5.4-8-9.3-9l1.1-7.5c5.6,1.5,10.4,6.1,13.2,12.8L132.4,430.8z
			 M875.4,424.2l-4.7-4.4c2.9-5.4,5.9-10.6,8.8-15.4l4.5,4.8C881.1,413.9,878.2,419,875.4,424.2z M1097.3,414.3
			c-2.9-4.9-6-9.6-9.2-14.2l4.2-5.3c3.4,4.7,6.6,9.7,9.6,14.7L1097.3,414.3z M250.6,403.5l-2-3.4c-2.2-3.7-4.6-7.5-6.9-11.4l4.5-4.8
			c2.4,3.9,4.7,7.7,7,11.5l2.1,3.5L250.6,403.5z M895.2,392.2l-4.2-5.3c3.5-4.8,7-9.3,10.6-13.4l3.8,5.7
			C902,383.2,898.6,387.6,895.2,392.2z M68,392c-0.8-5.6-1.2-11.3-1.2-17.1c0-0.9,0-1.8,0-2.7l5.8,0.2c0,0.8,0,1.7,0,2.5
			c0,5.3,0.4,10.6,1.1,15.7L68,392z M1075.7,384.7c-3.6-4-7.4-7.9-11.2-11.4l3.3-6.2c4,3.7,7.9,7.7,11.6,11.9L1075.7,384.7z
			 M230.6,371.1c-3.3-5.1-6.4-9.7-9.5-14.2l4.2-5.2c3.1,4.5,6.3,9.2,9.7,14.4L230.6,371.1z M918.9,365.6l-3.2-6.3
			c4.2-3.7,8.5-7,12.8-9.8l2.6,6.8C927,358.9,922.9,362.1,918.9,365.6z M1050.1,361.3c-4.2-3-8.4-5.8-12.7-8.2l2.3-7
			c4.5,2.5,8.9,5.4,13.2,8.5L1050.1,361.3z M75.1,350.7l-5.6-2c1.3-6.4,3.2-12.6,5.4-18.5l5.2,3.4C78,339.1,76.3,344.8,75.1,350.7z
			 M946.7,347.5l-2-7.1c4.6-2.3,9.4-4.2,14.2-5.7l1.3,7.4C955.6,343.5,951.1,345.3,946.7,347.5z M1021.4,345.4
			c-4.5-1.8-9.2-3.3-13.7-4.4l1.1-7.5c4.8,1.2,9.6,2.7,14.3,4.6L1021.4,345.4z M209.1,340.7c-3.5-4.5-7.1-8.7-10.6-12.6l3.7-5.9
			c3.6,4,7.2,8.3,10.9,12.9L209.1,340.7z M976.8,338.7l-0.4-7.6c4.9-0.5,9.9-0.6,14.8-0.3l-0.3,7.6
			C986.2,338.2,981.5,338.3,976.8,338.7z M89.3,315.5l-4.4-5c3.4-5.1,7.1-9.6,11.1-13.4l3.4,6.2C95.8,306.7,92.4,310.8,89.3,315.5z
			 M184.9,314.6c-4-3.6-8.1-6.8-12.1-9.6l2.7-6.7c4.2,2.9,8.4,6.3,12.6,10.1L184.9,314.6z M157.4,296c-4.5-2-9-3.6-13.5-4.7l1.1-7.5
			c4.8,1.2,9.6,2.9,14.3,5L157.4,296z M114,293.3l-1.8-7.2c4.8-2.1,9.7-3.4,14.8-3.9l0.4,7.6C122.8,290.2,118.3,291.4,114,293.3z"/>
	</g>
	<g display="none">
		<g display="inline">
			<path fill="#FFFFFF" d="M973.2,517c0-0.4,0-0.7,0-1.1c0-28.2-20.8-51.1-46.5-51.1c-25.7,0-46.5,22.9-46.5,51.1
				c0,0.4,0,0.7,0.1,1.1H973.2z"/>
		</g>
		<g display="inline">
			<path fill="#FFFFFF" d="M1190.4,517c-3.9-17.9-18.5-31.2-36-31.2c-17.5,0-32.1,13.3-36,31.2H1190.4z"/>
		</g>
		<g display="inline">
			<path fill="#FFFFFF" d="M1032.2,517h59.7c10.2-9.4,16.7-23.4,16.7-39.2c0-28.2-20.8-51.1-46.5-51.1c-25.7,0-46.5,22.9-46.5,51.1
				C1015.5,493.6,1022,507.7,1032.2,517z"/>
		</g>
		<g display="inline">
			<path fill="#FFFFFF" d="M1162.9,517c-5-27.9-27.4-48.9-54.3-48.9c-26.9,0-49.3,21-54.3,48.9H1162.9z"/>
		</g>
		<g display="inline">
			<path fill="#FFFFFF" d="M1107,517c-8.2-14.4-22.8-23.9-39.4-23.9c-16.6,0-31.1,9.6-39.4,23.9H1107z"/>
		</g>
		<g display="inline">
			<path fill="#FFFFFF" d="M1053.4,495.6c-8.1-30.9-34-53.6-64.8-53.6c-37.2,0-67.4,33.1-67.4,74c0,0.4,0,0.7,0,1h134.7
				c0-0.4,0-0.7,0-1C1056,508.9,1055.1,502.1,1053.4,495.6"/>
		</g>
	</g>
	<g display="none">
		<g display="inline">
			<path fill="#B7C6CE" d="M367.7,379.6c0-0.2,0-0.5,0-0.7c0-19.1-14.1-34.6-31.6-34.6c-17.4,0-31.6,15.5-31.6,34.6
				c0,0.2,0,0.5,0,0.7H367.7z"/>
		</g>
		<g display="inline">
			<path fill="#B7C6CE" d="M515,379.6c-2.6-12.1-12.5-21.2-24.4-21.2c-11.9,0-21.8,9-24.4,21.2H515z"/>
		</g>
		<g display="inline">
			<path fill="#B7C6CE" d="M407.7,379.6h40.5c6.9-6.4,11.3-15.9,11.3-26.6c0-19.1-14.1-34.6-31.6-34.6c-17.4,0-31.6,15.5-31.6,34.6
				C396.4,363.7,400.8,373.2,407.7,379.6z"/>
		</g>
		<g display="inline">
			<path fill="#B7C6CE" d="M496.4,379.6c-3.4-18.9-18.6-33.1-36.8-33.1c-18.2,0-33.4,14.2-36.8,33.1H496.4z"/>
		</g>
		<g display="inline">
			<path fill="#B7C6CE" d="M458.5,379.6c-5.6-9.7-15.4-16.2-26.7-16.2c-11.3,0-21.1,6.5-26.7,16.2H458.5z"/>
		</g>
		<g display="inline">
			<path fill="#B7C6CE" d="M422.1,365c-5.5-21-23.1-36.3-43.9-36.3c-25.2,0-45.7,22.5-45.7,50.2c0,0.2,0,0.5,0,0.7h91.3
				c0-0.2,0-0.5,0-0.7C423.9,374,423.2,369.4,422.1,365"/>
		</g>
	</g>
	<g display="none">
		<g display="inline">
			<path fill="#FFFFFF" d="M455.5,597.3c0.2-1.8,0.4-3.5,0.4-5.3c0-23.9-19.4-43.4-43.4-43.4c-24,0-43.4,19.4-43.4,43.4
				c0,1.8,0.1,3.6,0.4,5.3H455.5z"/>
		</g>
		<g display="inline">
			<path fill="#FFFFFF" d="M356.5,597.3c7.9-10.5,12.6-23.5,12.6-37.7c0-34.8-28.2-63.1-63.1-63.1c-34.8,0-63.1,28.2-63.1,63.1
				c0,14.1,4.7,27.2,12.6,37.7H356.5z"/>
		</g>
		<g display="inline">
			<path fill="#FFFFFF" d="M302.5,597.3c0,0,0-0.1,0-0.1c0-32.9-26.7-59.5-59.5-59.5c-32.9,0-59.5,26.7-59.5,59.5c0,0.1,0,0.1,0,0.1
				H302.5z"/>
		</g>
		<g display="inline">
			<path fill="#FFFFFF" d="M333.2,597.3c-9-14.8-25.3-24.7-43.9-24.7c-18.6,0-34.9,9.9-43.9,24.7H333.2z"/>
		</g>
		<g display="inline">
			<path fill="#FFFFFF" d="M417.3,597.3c0.1-1.8,0.3-3.5,0.3-5.3c0-34.7-28.1-62.8-62.8-62.8c-34.7,0-62.8,28.1-62.8,62.8
				c0,1.8,0.1,3.6,0.3,5.3H417.3z"/>
		</g>
	</g>
	<g display="none">
		<g>
			<path display="inline" fill-rule="evenodd" clip-rule="evenodd" fill="#191E38" d="M677.4,1047.1H338V620.8
				c0-12.8,10.4-23.2,23.2-23.2h316.2h298.8c12.8,0,23.2,10.4,23.2,23.2v426.4H677.4z"/>
		</g>
		<g>
			<g display="inline">
				<path fill-rule="evenodd" clip-rule="evenodd" fill="#191E38" d="M1086.4,1047.1c0,19.2-15.3,34.8-34.1,34.8H285.1
					c-18.9,0-34.1-15.6-34.1-34.8H1086.4z"/>
			</g>
			<g display="inline">
				<path fill-rule="evenodd" clip-rule="evenodd" fill="#B2B1B1" d="M728.1,1047.1c0,6.4-5.4,11.6-12.1,11.6h-94.4
					c-6.7,0-12.1-5.2-12.1-11.6H728.1z"/>
			</g>
		</g>
		<g>
			<g display="inline">
				<g>
					<path fill="#F15A24" d="M813.3,487.5c0,0,88-25.8,49-58.7C823.3,395.9,813.3,487.5,813.3,487.5z"/>
				</g>
			</g>
			<g display="inline">
				<g>
					<path fill="#FFFFFF" d="M941.4,429.6c-12.9,15.4-44.3,10.3-70.1-11.6c-25.8-21.8-36.2-52.1-23.3-67.5
						c12.9-15.5,44.3-10.3,70.1,11.6C943.9,383.9,954.3,414.2,941.4,429.6z"/>
				</g>
			</g>
			<g display="inline">
				<g>
					<path fill="#F15A24" d="M949,420.6c-11.4,13.6-41.5,6.9-67.3-14.9c-25.8-21.8-37.5-50.6-26.1-64.2
						c11.4-13.6,41.5-6.9,67.3,14.9C948.7,378.2,960.4,407,949,420.6z"/>
				</g>
			</g>
			<g display="inline">
				<g>
					<path fill="#F15A24" d="M1095.3,224.4c5.6-40.1-2.5-71.8-2.9-70.9c0.8-0.5-31.7-2.9-70,9.6c-38.6,12.2-82.9,39.3-113.6,90.4
						c-35.4,55.7-51.2,90-58.1,110c8-1.3,13.3,3,15.7,9.4l0,0.1c0.3,0.3,0.6,0.6,0.8,0.8c1.6,1.3,3.3,2.5,5,3.7
						c0.7,0.4,1.8,1.1,2.2,1.3c0.8,0.5,1.6,0.9,2.4,1.4c2.6,1.5,5.1,3.1,7.5,4.7c12.8,8.6,24,19.2,35.8,29.2c3.3,2.8,4.9,6.9,5,11.2
						c0.7,1.7,1,3.6,1.1,5.5c17.9-9.6,49.5-31.2,100.3-78.1C1071.3,313.4,1090.1,264.7,1095.3,224.4z"/>
				</g>
			</g>
			<g display="inline">
				<g>
					<path fill="#D97F27" d="M1088.4,256.8c17-55,4.6-103.8,4.1-103.3c0.4-0.6-49.6-4.3-100.5,22.1c-3.9,2-7.9,4.1-11.8,6.5
						c8,12.8,19.3,29.4,35.5,44.9c16.3,15.7,37.4,30.2,68.3,43.3C1085.5,265.7,1087,261.3,1088.4,256.8z"/>
				</g>
			</g>
			<g display="inline">
				<g>
					<path fill="#F15A24" d="M1088.4,256.8c17-55,4.6-103.8,4.1-103.3c0.4-0.6-49.6-4.3-100.5,22.1c-3.9,2-7.9,4.1-11.8,6.5
						c8,12.8,19.3,29.4,35.5,44.9c16.3,15.7,37.4,30.2,68.3,43.3C1085.5,265.7,1087,261.3,1088.4,256.8z"/>
				</g>
			</g>
			<g display="inline">
				<g>
					<g>
						<path fill="#FFFFFF" d="M1091.7,244.4c-25.5-11.9-43.8-24.9-58.3-38.8c-12.5-12-22.1-24.6-29.5-35.7c-4,1.7-8,3.6-12,5.7
							c-3.9,2-7.9,4.1-11.8,6.5c8,12.8,19.3,29.4,35.5,44.9c16.3,15.7,37.4,30.2,68.3,43.3c1.7-4.5,3.2-9,4.5-13.4
							C1089.6,252.6,1090.8,248.5,1091.7,244.4z"/>
					</g>
				</g>
			</g>
			<g display="inline">
				<g>
					<path fill="#FFFFFF" d="M979.3,404.2l-2.8-42.9L918.3,431c-7.5,20-22.3,38.6-22.3,38.6c-0.8,3.3,1.7,3.2,1.7,3.2
						s59-43.3,71.4-52.3C981.4,411.3,979.3,404.2,979.3,404.2z"/>
				</g>
			</g>
			<g display="inline">
				<g>
					<path fill="#FFFFFF" d="M866.7,308.8l42.5-4.6l-58.3,69.7c-18.3,10.9-34,28.7-34,28.7c-3.1,1.3-3.4-1.1-3.4-1.1
						s32.3-65.9,39.1-79.7C859.3,308,866.7,308.8,866.7,308.8z"/>
				</g>
			</g>
			<g display="inline">
				<g>
					<path fill="#FFFFFF" d="M841.7,451.3c0,0,4.7-8.5,12.2-20.8c1.9-3.1,3.9-6.4,6.1-9.9c2.2-3.5,4.5-7.2,6.9-11
						c2.4-3.8,4.9-7.7,7.5-11.6c2.6-3.9,5.3-7.9,7.9-11.8c2.7-4,5.1-8.1,7.5-12.2c2.4-4.1,4.8-8.1,7.6-11.5c2.8-3.5,5.9-6.5,9-9.2
						c3.1-2.7,6.3-5.1,9.3-7.2c3-2.1,6-3.8,8.8-5.3c2.7-1.5,5.3-2.6,7.4-3.5c1.1-0.5,2.1-0.8,3-1.1c0.9-0.3,1.6-0.6,2.3-0.8
						c1.3-0.4,2-0.6,2-0.6l2.3,2c0,0,0,0.7-0.2,2.1c-0.1,0.7-0.2,1.5-0.4,2.4c-0.2,0.9-0.3,2-0.6,3.1c-0.5,2.3-1.2,5-2.2,8
						c-1,3-2.2,6.2-3.7,9.6c-1.5,3.4-3.3,6.9-5.4,10.5c-2.1,3.6-4.5,7.2-7.4,10.5c-2.9,3.4-6.4,6.5-10,9.5c-3.6,3-7.3,6.2-10.7,9.5
						c-3.4,3.3-6.8,6.7-10.2,9.9c-3.4,3.3-6.8,6.4-10.1,9.5c-3.3,3-6.5,6-9.6,8.7c-3.1,2.8-6,5.3-8.7,7.7
						c-10.8,9.5-18.3,15.6-18.3,15.6L841.7,451.3z"/>
				</g>
			</g>
			<g display="inline">
				<g>
					<g>
						<path fill="#B7C6CE" d="M1003.3,299c-9.8,11.8-27.3,13.3-39,3.4c-11.7-9.9-13.3-27.4-3.5-39.2c9.8-11.7,27.3-13.3,39-3.4
							C1011.5,269.8,1013.1,287.3,1003.3,299z"/>
					</g>
				</g>
				<g>
					<g>
						<path fill="#FFFFFF" d="M983.5,320.8c-8.7,0.3-17.3-2.7-24-8.3c-14.9-12.6-17-35-4.5-50c6.4-7.7,15.8-12.3,25.8-12.6
							c8.7-0.3,17.3,2.7,24,8.3c15,12.6,17,35,4.5,50C1002.9,315.9,993.5,320.5,983.5,320.8z M981.1,257.4
							c-7.9,0.3-15.3,3.9-20.3,10c-9.9,11.8-8.3,29.5,3.5,39.5c5.3,4.5,12,6.8,18.9,6.5c7.9-0.3,15.3-3.9,20.3-10
							c9.9-11.8,8.3-29.5-3.5-39.5C994.7,259.5,988,257.1,981.1,257.4z"/>
					</g>
				</g>
				<g>
					<g>
						<path fill="#FFFFFF" d="M1010.6,255.5c-1.2,1.4-3.3,1.6-4.7,0.4c-1.4-1.2-1.6-3.3-0.4-4.7c1.2-1.4,3.3-1.6,4.7-0.4
							C1011.6,252,1011.8,254.1,1010.6,255.5z"/>
					</g>
				</g>
				<g>
					<g>
						<path fill="#FFFFFF" d="M998.7,247.5c-0.6,1.7-2.5,2.6-4.3,2c-1.7-0.6-2.6-2.5-2-4.3c0.6-1.7,2.5-2.6,4.3-2
							C998.4,243.9,999.3,245.8,998.7,247.5z"/>
					</g>
				</g>
				<g>
					<g>
						<path fill="#FFFFFF" d="M984.8,244.1c0,1.8-1.5,3.3-3.3,3.3c-1.8,0-3.3-1.5-3.3-3.3c0-1.8,1.5-3.3,3.3-3.3
							C983.3,240.7,984.8,242.2,984.8,244.1z"/>
					</g>
				</g>
				<g>
					<g>
						<path fill="#FFFFFF" d="M970.6,245.6c0.6,1.7-0.3,3.6-2,4.3c-1.7,0.6-3.6-0.3-4.3-2c-0.6-1.7,0.3-3.6,2-4.3
							C968,243,969.9,243.9,970.6,245.6z"/>
					</g>
				</g>
				<g>
					<g>
						<path fill="#FFFFFF" d="M957.7,251.9c1.2,1.4,1,3.5-0.4,4.7c-1.4,1.2-3.5,1-4.7-0.4c-1.2-1.4-1-3.5,0.4-4.7
							C954.5,250.3,956.6,250.5,957.7,251.9z"/>
					</g>
				</g>
				<g>
					<g>
						<path fill="#FFFFFF" d="M947.9,262.3c1.6,0.9,2.1,3,1.2,4.6c-0.9,1.6-2.9,2.1-4.5,1.2c-1.6-0.9-2.1-3-1.2-4.6
							C944.2,261.9,946.3,261.4,947.9,262.3z"/>
					</g>
				</g>
				<g>
					<g>
						<path fill="#FFFFFF" d="M942.1,275.4c1.8,0.3,3,2.1,2.7,3.9c-0.3,1.8-2,3-3.8,2.7c-1.8-0.3-3-2.1-2.7-3.9
							C938.6,276.3,940.3,275.1,942.1,275.4z"/>
					</g>
				</g>
				<g>
					<g>
						<path fill="#FFFFFF" d="M941.2,289.8c1.8-0.3,3.5,0.9,3.9,2.7c0.3,1.8-0.9,3.5-2.7,3.9c-1.8,0.3-3.5-0.9-3.9-2.7
							C938.2,291.8,939.4,290.1,941.2,289.8z"/>
					</g>
				</g>
				<g>
					<g>
						<path fill="#FFFFFF" d="M945.2,303.6c1.6-0.9,3.6-0.4,4.5,1.2c0.9,1.6,0.4,3.6-1.2,4.6c-1.6,0.9-3.6,0.4-4.5-1.2
							C943.1,306.6,943.6,304.5,945.2,303.6z"/>
					</g>
				</g>
				<g>
					<g>
						<path fill="#FFFFFF" d="M953.7,315.2c1.2-1.4,3.3-1.6,4.7-0.4c1.4,1.2,1.6,3.3,0.4,4.7c-1.2,1.4-3.3,1.6-4.7,0.4
							C952.7,318.7,952.5,316.6,953.7,315.2z"/>
					</g>
				</g>
				<g>
					<g>
						<path fill="#FFFFFF" d="M965.6,323.2c0.6-1.7,2.5-2.6,4.2-2c1.7,0.6,2.6,2.5,2,4.3c-0.6,1.7-2.5,2.6-4.3,2
							C965.9,326.9,965,324.9,965.6,323.2z"/>
					</g>
				</g>
				<g>
					<g>
						<path fill="#FFFFFF" d="M979.5,326.7c0-1.8,1.5-3.3,3.3-3.3c1.8,0,3.3,1.5,3.3,3.3c0,1.8-1.5,3.3-3.3,3.3
							C981,330,979.5,328.5,979.5,326.7z"/>
					</g>
				</g>
				<g>
					<g>
						<path fill="#FFFFFF" d="M993.8,325.1c-0.6-1.7,0.3-3.7,2-4.3c1.7-0.6,3.6,0.3,4.3,2c0.6,1.7-0.3,3.6-2,4.3
							C996.3,327.8,994.4,326.9,993.8,325.1z"/>
					</g>
				</g>
				<g>
					<g>
						<path fill="#FFFFFF" d="M1006.6,318.8c-1.2-1.4-1-3.5,0.4-4.7c1.4-1.2,3.5-1,4.7,0.4c1.2,1.4,1,3.5-0.4,4.7
							C1009.9,320.4,1007.8,320.2,1006.6,318.8z"/>
					</g>
				</g>
				<g>
					<g>
						<path fill="#FFFFFF" d="M1016.5,308.4c-1.6-0.9-2.1-3-1.2-4.6c0.9-1.6,2.9-2.1,4.5-1.2c1.6,0.9,2.1,3,1.2,4.6
							C1020.1,308.8,1018.1,309.4,1016.5,308.4z"/>
					</g>
				</g>
				<g>
					<g>
						<path fill="#FFFFFF" d="M1022.2,295.3c-1.8-0.3-3-2.1-2.7-3.9c0.3-1.8,2-3,3.8-2.7c1.8,0.3,3,2.1,2.7,3.9
							C1025.8,294.4,1024,295.6,1022.2,295.3z"/>
					</g>
				</g>
				<g>
					<g>
						<path fill="#FFFFFF" d="M1023.1,280.9c-1.8,0.3-3.5-0.9-3.8-2.7c-0.3-1.8,0.9-3.6,2.7-3.9c1.8-0.3,3.5,0.9,3.8,2.7
							C1026.2,278.9,1024.9,280.6,1023.1,280.9z"/>
					</g>
				</g>
				<g>
					<g>
						<path fill="#FFFFFF" d="M1019.1,267.1c-1.6,0.9-3.6,0.4-4.5-1.2c-0.9-1.6-0.4-3.6,1.2-4.6c1.6-0.9,3.6-0.4,4.5,1.2
							C1021.2,264.2,1020.7,266.2,1019.1,267.1z"/>
					</g>
				</g>
			</g>
		</g>
		<g>
			<g display="inline">
				<g>
					<path fill-rule="evenodd" clip-rule="evenodd" fill="#F8D140" d="M362.5,1019.4v-394h612.3v394H362.5z"/>
				</g>
			</g>
			<polygon display="inline" fill="#F9DC80" points="925.8,1019.4 974.9,1019.4 974.9,625.3 452.1,625.3 			"/>
		</g>
		<g>
			<g display="inline">
				<path fill="#7C7E7F" d="M511.9,1020.7c-0.2-38-31-68.7-69-68.7c-38,0-68.8,30.7-69,68.7H511.9z"/>
				<path fill="#7C7E7F" d="M635.6,1020.7c0.1-2.2,0.2-4.3,0.2-6.5c0-56.7-45.9-102.6-102.6-102.6c-56.7,0-102.6,45.9-102.6,102.6
					c0,2.2,0.1,4.3,0.2,6.5H635.6z"/>
				<path fill="#7C7E7F" d="M732,1020.7c10-15.3,15.8-33.6,15.8-53.3c0-54-43.8-97.8-97.8-97.8c-54,0-97.8,43.8-97.8,97.8
					c0,19.7,5.8,38,15.8,53.3H732z"/>
				<path fill="#7C7E7F" d="M814.4,1020.7c6.8-11.6,10.7-25,10.7-39.4c0-43.2-35-78.3-78.3-78.3c-43.2,0-78.3,35-78.3,78.3
					c0,14.4,3.9,27.8,10.7,39.4H814.4z"/>
				<path fill="#7C7E7F" d="M887.7,1020.7c3.5-7.5,5.5-15.8,5.5-24.6c0-31.9-25.9-57.8-57.8-57.8c-31.9,0-57.8,25.9-57.8,57.8
					c0,8.8,2,17.2,5.5,24.6H887.7z"/>
				<path fill="#7C7E7F" d="M940.1,1020.7c-0.2-21.1-17.4-38.2-38.5-38.2c-21.2,0-38.4,17.1-38.5,38.2H940.1z"/>
			</g>
		</g>
		<g>
			<g display="inline">
				<path fill="#FFFFFF" d="M558.3,1019.4c-0.1-25.8-21.1-46.7-46.9-46.7c-25.9,0-46.8,20.9-46.9,46.7H558.3z"/>
				<path fill="#FFFFFF" d="M642.4,1019.4c0.1-1.5,0.1-2.9,0.1-4.4c0-38.5-31.2-69.8-69.8-69.8c-38.5,0-69.8,31.2-69.8,69.8
					c0,1.5,0.1,3,0.1,4.4H642.4z"/>
				<path fill="#FFFFFF" d="M708,1019.4c6.8-10.4,10.7-22.9,10.7-36.2c0-36.8-29.8-66.5-66.5-66.5c-36.8,0-66.5,29.8-66.5,66.5
					c0,13.4,3.9,25.8,10.7,36.2H708z"/>
				<path fill="#FFFFFF" d="M764,1019.4c4.6-7.9,7.2-17,7.2-26.8c0-29.4-23.8-53.2-53.2-53.2c-29.4,0-53.2,23.8-53.2,53.2
					c0,9.8,2.6,18.9,7.2,26.8H764z"/>
				<path fill="#FFFFFF" d="M813.9,1019.4c2.4-5.1,3.7-10.8,3.7-16.8c0-21.7-17.6-39.3-39.3-39.3s-39.3,17.6-39.3,39.3
					c0,6,1.3,11.7,3.7,16.8H813.9z"/>
				<path fill="#FFFFFF" d="M849.5,1019.4c-0.1-14.4-11.8-26-26.2-26s-26.1,11.6-26.2,26H849.5z"/>
			</g>
			<circle display="inline" fill="#FFFFFF" cx="668.5" cy="903" r="42.1"/>
			<path display="inline" fill="#FFFFFF" d="M728.1,922.4c0,12.2-9.9,22.2-22.2,22.2s-22.2-9.9-22.2-22.2c0-12.2,9.9-22.2,22.2-22.2
				S728.1,910.1,728.1,922.4z"/>
			<circle display="inline" fill="#FFFFFF" cx="626.4" cy="903" r="25.8"/>
			<circle display="inline" fill="#FFFFFF" cx="635.8" cy="852.9" r="32.7"/>
			<path display="inline" fill="#FFFFFF" d="M721.8,835.4c0,18.9-15.3,34.1-34.1,34.1c-18.9,0-34.1-15.3-34.1-34.1
				c0-18.9,15.3-34.1,34.1-34.1C706.6,801.3,721.8,816.6,721.8,835.4z"/>
			<path display="inline" fill="#FFFFFF" d="M736.4,869.6c0,14.3-11.6,25.8-25.9,25.8c-14.3,0-25.8-11.6-25.8-25.8
				c0-14.3,11.6-25.8,25.8-25.8C724.9,843.7,736.4,855.3,736.4,869.6z"/>
			<circle display="inline" fill="#FFFFFF" cx="705.9" cy="792.1" r="35.7"/>
			<circle display="inline" fill="#FFFFFF" cx="728.1" cy="744.3" r="26.6"/>
			<path display="inline" fill="#FFFFFF" d="M769.8,707.1c0,12.2-9.9,22-22,22c-12.2,0-22-9.9-22-22c0-12.2,9.9-22,22-22
				C759.9,685.1,769.8,694.9,769.8,707.1z"/>
			<circle display="inline" fill="#FFFFFF" cx="765.2" cy="668.3" r="21.3"/>
			
				<ellipse transform="matrix(0.2319 -0.9727 0.9727 0.2319 -13.4389 1247.7859)" display="inline" fill="#FFFFFF" cx="783.4" cy="632.4" rx="24.6" ry="24.6"/>
			<path display="inline" fill="#FFFFFF" d="M823,597.5c0,10.2-8.2,18.4-18.4,18.4c-10.2,0-18.4-8.2-18.4-18.4
				c0-10.2,8.2-18.4,18.4-18.4C814.8,579.1,823,587.4,823,597.5z"/>
			<circle display="inline" fill="#FFFFFF" cx="815.8" cy="553.7" r="30.4"/>
			
				<ellipse transform="matrix(0.2282 -0.9736 0.9736 0.2282 137.4738 1196.3105)" display="inline" fill="#FFFFFF" cx="823.3" cy="511.4" rx="17.8" ry="17.8"/>
			<path display="inline" fill="#FFFFFF" d="M851,473.6c0,14.3-11.6,26-26,26c-14.3,0-26-11.6-26-26c0-14.3,11.6-26,26-26
				C839.4,447.6,851,459.2,851,473.6z"/>
			<path display="inline" fill="#FFFFFF" d="M824.9,594c0,17.9-14.5,32.4-32.4,32.4c-17.9,0-32.4-14.5-32.4-32.4
				c0-17.9,14.5-32.4,32.4-32.4C810.4,561.6,824.9,576.1,824.9,594z"/>
			
				<ellipse transform="matrix(0.7071 -0.7071 0.7071 0.7071 -204.4909 751.2977)" display="inline" fill="#FFFFFF" cx="804.7" cy="622.5" rx="24.6" ry="24.6"/>
			<circle display="inline" fill="#FFFFFF" cx="765.2" cy="653.2" r="21.3"/>
			<circle display="inline" fill="#FFFFFF" cx="743.9" cy="668.3" r="21.3"/>
			
				<ellipse transform="matrix(0.2313 -0.9729 0.9729 0.2313 -97.552 1276.2191)" display="inline" fill="#FFFFFF" cx="758.8" cy="699.8" rx="17.9" ry="17.9"/>
			<circle display="inline" fill="#FFFFFF" cx="739" cy="735.2" r="21.2"/>
			<circle display="inline" fill="#FFFFFF" cx="718.7" cy="770.9" r="32.3"/>
			<circle display="inline" fill="#FFFFFF" cx="718.7" cy="809.6" r="22"/>
			<path display="inline" fill="#FFFFFF" d="M735.9,843.7c0,19-15.4,34.4-34.4,34.4c-19,0-34.4-15.4-34.4-34.4
				c0-19,15.4-34.4,34.4-34.4C720.5,809.3,735.9,824.7,735.9,843.7z"/>
			<path display="inline" fill="#FFFFFF" d="M699.5,720.8c0,4.6-3.7,8.4-8.4,8.4c-4.6,0-8.4-3.7-8.4-8.4s3.7-8.4,8.4-8.4
				C695.7,712.4,699.5,716.1,699.5,720.8z"/>
			<path display="inline" fill="#FFFFFF" d="M718.7,699.8c0,2.9-2.3,5.2-5.2,5.2c-2.9,0-5.2-2.3-5.2-5.2c0-2.9,2.3-5.2,5.2-5.2
				C716.4,694.6,718.7,697,718.7,699.8z"/>
			<circle display="inline" fill="#FFFFFF" cx="776.7" cy="748.1" r="5.7"/>
			<path display="inline" fill="#FFFFFF" d="M769.3,770.9c0,2.3-1.9,4.2-4.2,4.2c-2.3,0-4.2-1.9-4.2-4.2s1.9-4.2,4.2-4.2
				C767.5,766.7,769.3,768.6,769.3,770.9z"/>
			<path display="inline" fill="#FFFFFF" d="M760.2,822.3c0,3.1-2.5,5.5-5.5,5.5c-3.1,0-5.5-2.5-5.5-5.5c0-3.1,2.5-5.5,5.5-5.5
				C757.7,816.8,760.2,819.3,760.2,822.3z"/>
			<path display="inline" fill="#FFFFFF" d="M647.8,787.6c0,2.9-2.4,5.3-5.3,5.3c-2.9,0-5.3-2.4-5.3-5.3c0-2.9,2.4-5.3,5.3-5.3
				C645.5,782.3,647.8,784.7,647.8,787.6z"/>
			
				<ellipse transform="matrix(2.626945e-02 -0.9997 0.9997 2.626945e-02 -338.0659 1424.1473)" display="inline" fill="#FFFFFF" cx="562" cy="885.6" rx="15.2" ry="15.2"/>
			<path display="inline" fill="#FFFFFF" d="M842.8,597.9c0,3-2.5,5.5-5.5,5.5c-3,0-5.5-2.5-5.5-5.5c0-3,2.5-5.5,5.5-5.5
				C840.3,592.4,842.8,594.9,842.8,597.9z"/>
			<path display="inline" fill="#FFFFFF" d="M855.5,536.6c0,2.4-1.9,4.3-4.3,4.3c-2.4,0-4.3-1.9-4.3-4.3c0-2.4,1.9-4.3,4.3-4.3
				C853.6,532.2,855.5,534.2,855.5,536.6z"/>
			<path display="inline" fill="#FFFFFF" d="M775,514.8c0,2.9-2.4,5.3-5.3,5.3c-2.9,0-5.3-2.4-5.3-5.3c0-2.9,2.4-5.3,5.3-5.3
				C772.7,509.5,775,511.9,775,514.8z"/>
			<path display="inline" fill="#FFFFFF" d="M747.7,573.4c0,2.1-1.7,3.8-3.8,3.8c-2.1,0-3.8-1.7-3.8-3.8c0-2.1,1.7-3.8,3.8-3.8
				C746,569.6,747.7,571.3,747.7,573.4z"/>
			<path display="inline" fill="#FFFFFF" d="M790.2,916.6c0,6.6-5.3,11.9-11.9,11.9c-6.6,0-11.9-5.3-11.9-11.9
				c0-6.6,5.3-11.9,11.9-11.9C784.9,904.6,790.2,910,790.2,916.6z"/>
			<circle display="inline" fill="#FFFFFF" cx="494.8" cy="942.7" r="4.6"/>
			<path display="inline" fill="#FFFFFF" d="M884.4,466.7c0,3.8-3.1,6.9-6.9,6.9c-3.8,0-6.9-3.1-6.9-6.9s3.1-6.9,6.9-6.9
				C881.3,459.9,884.4,462.9,884.4,466.7z"/>
			<path display="inline" fill="#FFFFFF" d="M813.3,429.3c0,3-2.4,5.4-5.4,5.4c-3,0-5.4-2.4-5.4-5.4s2.4-5.4,5.4-5.4
				C810.9,423.9,813.3,426.3,813.3,429.3z"/>
		</g>
		<g>
			<rect x="528.9" y="971.5" display="inline" fill="#B7C6CE" width="261.2" height="39.7"/>
			<g display="inline">
				<path d="M566.5,998.6v3.3h-10.8v-21.2h3.3v17.7c0,0.2,0.1,0.3,0.3,0.3H566.5z"/>
				<path d="M579.8,980.4c6,0,10.8,4.8,10.8,10.8c0,6-4.8,10.8-10.8,10.8c-6,0-10.8-4.8-10.8-10.8
					C569,985.3,573.8,980.4,579.8,980.4z M579.8,998.8c4.2,0,7.5-3.4,7.5-7.5c0-4.2-3.4-7.5-7.5-7.5c-4.2,0-7.6,3.4-7.6,7.5
					C572.3,995.4,575.7,998.8,579.8,998.8z"/>
				<path d="M605.1,1001.9c-0.3-0.9-1.5-4.4-1.9-4.4h-7.7c-0.1,0-0.2,0.1-0.3,0.2l-1.6,4.2h-3.5l7.9-21.2h2.5l8,21.2H605.1z
					 M599.3,986.7l-2.7,7.5c0,0,0,0.1,0,0.1c0,0.1,0,0.1,0.1,0.1h5.3c0.1,0,0.2-0.1,0.2-0.1c0,0,0-0.1,0-0.1l-2.7-7.5
					c-0.1-0.1,0-0.1-0.1-0.1C599.4,986.6,599.3,986.6,599.3,986.7z"/>
				<path d="M610.4,980.7h6.7c5.9,0,10.6,4.8,10.6,10.6c0,5.8-4.7,10.6-10.6,10.6h-6.7V980.7z M617.2,998.6c4.1,0,7.3-3.2,7.3-7.3
					s-3.1-7.3-7.3-7.3h-3.3c-0.1,0-0.2,0-0.2,0.1v14.3c0,0.1,0.1,0.2,0.2,0.2H617.2z"/>
				<path d="M633.7,980.7v21.2h-3.3v-21.2H633.7z"/>
				<path d="M639.9,980.7c3,4.7,6,9.4,8.9,14.2c0.3,0.4,0.5,0.8,0.8,1.2v-15.4h3.3v21.2h-3.5l-8.9-14.1c-0.3-0.4-0.6-0.8-0.8-1.2
					c0,0.5,0,1.1,0,1.7v13.6h-3.3v-21.2H639.9z"/>
				<path d="M675.3,997.9c-1.5,2.2-4.4,4.2-8.8,4.2c-6,0-10.8-4.8-10.8-10.8c0-6,4.8-10.8,10.8-10.8c3.4,0,6.1,1.6,7.3,2.6l-2.1,2.5
					c-1.3-1.1-3.3-1.8-5.1-1.8c-4.1,0-7.5,3.4-7.5,7.5c0,4.2,3.4,7.5,7.7,7.5c2.4,0,4.4-0.9,5.3-2.1V994c-0.4,0-0.8-0.1-1.3-0.1h-5
					v-3.2h9.7V997.9z"/>
				<path d="M674.4,1000.6c0-0.8,0.7-1.4,1.5-1.4c0.7,0,1.4,0.7,1.4,1.4c0,0.8-0.6,1.4-1.4,1.4C675,1002,674.4,1001.4,674.4,1000.6z
					"/>
				<path d="M679.8,1000.6c0-0.8,0.6-1.4,1.5-1.4c0.7,0,1.4,0.7,1.4,1.4c0,0.8-0.6,1.4-1.4,1.4
					C680.4,1002,679.8,1001.4,679.8,1000.6z"/>
				<path d="M685.1,1000.6c0-0.8,0.7-1.4,1.5-1.4c0.7,0,1.4,0.7,1.4,1.4c0,0.8-0.6,1.4-1.4,1.4
					C685.8,1002,685.1,1001.4,685.1,1000.6z"/>
				<path d="M690.5,1000.6c0-0.8,0.7-1.4,1.5-1.4c0.7,0,1.4,0.7,1.4,1.4c0,0.8-0.6,1.4-1.4,1.4
					C691.1,1002,690.5,1001.4,690.5,1000.6z"/>
				<path d="M695.9,1000.6c0-0.8,0.6-1.4,1.5-1.4c0.7,0,1.4,0.7,1.4,1.4c0,0.8-0.6,1.4-1.4,1.4
					C696.5,1002,695.9,1001.4,695.9,1000.6z"/>
				<path d="M701.3,1000.6c0-0.8,0.7-1.4,1.5-1.4c0.7,0,1.4,0.7,1.4,1.4c0,0.8-0.6,1.4-1.4,1.4
					C701.9,1002,701.3,1001.4,701.3,1000.6z"/>
				<path d="M720.3,991.6c-2.2,3.5-4.5,7-6.7,10.5c-0.9-0.6-1.9-1.1-2.8-1.7c0.9-1.6,2-3,2.9-4.5l0.5-0.8c-0.1,0-0.3,0-0.5,0
					c-3.8-0.2-7.2-2.9-7.2-7.2c0-4.1,3.3-7.4,7.4-7.4c4.2,0,7.4,3.3,7.4,7.4C721.2,989.3,721,990.5,720.3,991.6z M713.8,983.8
					c-2.3,0-4.1,1.7-4.1,4.1c0,2.3,1.8,4.1,4.1,4.1c2.4,0,4.1-1.8,4.1-4.1C717.9,985.6,716.2,983.8,713.8,983.8z"/>
				<path d="M737.2,991.6c-2.2,3.5-4.5,7-6.7,10.5c-0.9-0.6-1.9-1.1-2.8-1.7c0.9-1.6,2-3,2.9-4.5l0.5-0.8c-0.1,0-0.3,0-0.5,0
					c-3.8-0.2-7.2-2.9-7.2-7.2c0-4.1,3.3-7.4,7.4-7.4c4.2,0,7.4,3.3,7.4,7.4C738.2,989.3,737.9,990.5,737.2,991.6z M730.8,983.8
					c-2.3,0-4.1,1.7-4.1,4.1c0,2.3,1.8,4.1,4.1,4.1c2.4,0,4.1-1.8,4.1-4.1C734.9,985.6,733.2,983.8,730.8,983.8z"/>
				<path d="M745.6,980.7c2.8,0,5.1,2.3,5.1,5.1c0,2.8-2.3,5.1-5.1,5.1c-2.8,0-5.1-2.3-5.1-5.1C740.5,982.9,742.8,980.7,745.6,980.7
					z M745.6,988.4c1.5,0,2.7-1.2,2.7-2.7c0-1.5-1.2-2.7-2.7-2.7c-1.5,0-2.7,1.2-2.7,2.7C742.9,987.3,744.1,988.4,745.6,988.4z
					 M745.6,1001.3l10.9-20.8l1.5,0.8c-4.9,9.7-11,20.8-11,20.8L745.6,1001.3z M758.2,991.7c2.8,0,5.1,2.3,5.1,5.1
					c0,2.8-2.3,5.1-5.1,5.1c-2.8,0-5.1-2.3-5.1-5.1C753.1,994,755.4,991.7,758.2,991.7z M758.2,999.5c1.5,0,2.7-1.2,2.7-2.7
					c0-1.5-1.2-2.7-2.7-2.7c-1.5,0-2.7,1.2-2.7,2.7C755.5,998.3,756.7,999.5,758.2,999.5z"/>
			</g>
		</g>
	</g>
	<g display="none">
		<g display="inline">
			<g>
				<path fill="#FFFFFF" d="M940.5,168.3h-19.3c-0.8,0-1.5-0.7-1.5-1.5c0-0.8,0.7-1.5,1.5-1.5h19.3c0.8,0,1.5,0.7,1.5,1.5
					C942,167.6,941.3,168.3,940.5,168.3z"/>
			</g>
			<g>
				<path fill="#FFFFFF" d="M930.9,177.9c-0.8,0-1.5-0.7-1.5-1.5v-19.3c0-0.8,0.7-1.5,1.5-1.5c0.8,0,1.5,0.7,1.5,1.5v19.3
					C932.4,177.2,931.7,177.9,930.9,177.9z"/>
			</g>
		</g>
		<g display="inline">
			<g>
				<path fill="#FFFFFF" d="M746.8,275.8h-19.3c-0.8,0-1.5-0.7-1.5-1.5c0-0.8,0.7-1.5,1.5-1.5h19.3c0.8,0,1.5,0.7,1.5,1.5
					C748.3,275.1,747.6,275.8,746.8,275.8z"/>
			</g>
			<g>
				<path fill="#FFFFFF" d="M737.2,285.4c-0.8,0-1.5-0.7-1.5-1.5v-19.3c0-0.8,0.7-1.5,1.5-1.5c0.8,0,1.5,0.7,1.5,1.5v19.3
					C738.6,284.7,738,285.4,737.2,285.4z"/>
			</g>
		</g>
		<g display="inline">
			<g>
				<path fill="#FFFFFF" d="M787,370.4h-19.3c-0.8,0-1.5-0.7-1.5-1.5c0-0.8,0.7-1.5,1.5-1.5H787c0.8,0,1.5,0.7,1.5,1.5
					C788.4,369.8,787.8,370.4,787,370.4z"/>
			</g>
			<g>
				<path fill="#FFFFFF" d="M777.3,380.1c-0.8,0-1.5-0.7-1.5-1.5v-19.3c0-0.8,0.7-1.5,1.5-1.5c0.8,0,1.5,0.7,1.5,1.5v19.3
					C778.8,379.4,778.1,380.1,777.3,380.1z"/>
			</g>
		</g>
	</g>
	<g display="none">
		<g display="inline">
			<path fill="#050505" d="M214.8,1066.3c0,0,4.3,22.3,62.9,19.9c58.6-2.4,80.3-11.8,77.8-30.4c-2.5-18.6-77.5-0.9-78.8-1
				C275.4,1054.6,214.8,1066.3,214.8,1066.3z"/>
			<g>
				<path fill="#050505" d="M362.8,1273.5c-27.2,4.6-55.2,3.8-82.1-2.2c-5.8-1.3-12.7-4.1-13.3-10c-0.3-2.6,0.9-5.2,2-7.5
					c3.4-7.2,7.4-15.1,14.8-18c4.2-1.6,8.9-1.4,13.4-1c16.8,1.3,33.6,3.3,50.3,5.9c7.9,1.3,15.9,2.7,23,6.4
					c5.3,2.8,10.4,7.7,9.9,13.7C380.2,1268.6,370.7,1272.2,362.8,1273.5"/>
				<path fill="#050505" d="M322.4,997.9c0,0,34.8,69.4,37.8,125c3,55.6-24.8,123.7-24.8,123.7l-65.9,4.4c0,0,39.8-60.8,46.6-98.1
					c6.8-37.3,3.9-65-4.7-89.4c-8.6-24.5-35.5-58.4-35.5-58.4L322.4,997.9z"/>
			</g>
			<g>
				<path fill="#050505" d="M278.9,1292.2c-26,4.4-52.9,3.7-78.7-2.1c-5.6-1.2-12.2-3.9-12.8-9.6c-0.2-2.5,0.8-4.9,1.9-7.2
					c3.2-6.9,7.1-14.5,14.2-17.3c4-1.6,8.6-1.3,12.9-1c16.1,1.2,32.2,3.1,48.2,5.7c7.6,1.2,15.2,2.6,22,6.1c5.1,2.6,10,7.4,9.5,13.1
					C295.5,1287.5,286.4,1290.9,278.9,1292.2"/>
				<path fill="#050505" d="M245.9,1013.3c0,0,34.8,69.4,37.8,125c3,55.6-24.8,123.7-24.8,123.7l-65.9,4.4c0,0,39.9-60.8,46.6-98.1
					c6.8-37.3,3.9-65-4.7-89.4c-8.6-24.5-23.3-60.3-23.3-60.3L245.9,1013.3z"/>
			</g>
		</g>
		<path display="inline" fill="#FFFFFF" d="M64.9,808.3c0.5-4,0.5-8.1,1.1-12.2c0.6-4,1.9-8.1,4.6-11.1c0.7-0.7,1.5-1.4,2.5-1.5
			c0.6,0,1.3,0.3,1.8,0.6c2.1,1.2,3.6,3.3,4.3,5.6c0.6,2.3,0.3,4.7,0,7c-0.9,6.7-2,13.3-3.4,19.9c2.2-2,4.7-3.6,7.4-4.7
			c2.6-1.1,6.3-1.4,7.7,1c0.8,1.5,0.5,3.4-0.4,4.8c-3.1,5.5-11.7,7.2-13.8,13.1c-0.9,2.7-1.1,4.3-1.6,5.5c-0.2,0.6,0.6,1.6-0.1,1.8
			c-5,1.6-10.5,1.6-15.4-0.1c-1.4-0.5-2.1-0.3-3.2-1.4c-1-0.9-1.7-4.3-2.4-5.4c-2.9-4.5-5.7-7.2-8.5-11.7c-2-3.2-3.9-6.7-5.2-10.3
			c-1.3-3.5-2.9-7.4-1.7-10.9c0.5-1.4,1.3-2.8,2.5-3.6c1.7-1,4-0.5,5.6,0.7c1.6,1.2,2.6,3,3.4,4.8c1.3,2.9,2.2,6,2.6,9.2
			c-1.1-6.6-2.1-13.5,0.4-19.6c1.1-2.6,3.7-5.2,6.3-4.1c1.8,0.8,2.4,2.9,2.8,4.8C63.4,796.5,64.3,802.4,64.9,808.3"/>
		<path display="inline" fill="#FFFBF6" d="M340.8,926.5c-3.1-8-6.7-15.8-9.6-23.9c-2.8-8-5.5-16-8.6-23.8
			c-13.3,0.5-21.5-1.2-21.5-1.2l-94.1,18c0,0-6.6,5.4-19.6,9.2c-0.1,3.8-0.1,7.5,0,11.3c0.8,12.3,1.8,24.7,2.6,37l21.2,120.9
			c0,0,26,0.7,75.4-6.9c49.4-7.6,70.7-17.5,70.7-17.5l-17.7-122.8C339.6,926.8,340,926.7,340.8,926.5z"/>
		<path display="inline" fill="#FFFFFF" d="M501.5,916l11.3,2.6c0,0,2.2,10.9,7.2,12.5c5.1,1.5-1.5-6.1,2.4-10.3
			c3.8-4.2,13.3,8.1,17.4,4c4.2-4.1-0.2-24.2-35.8-19.7L501.5,916z"/>
		<path display="inline" fill="#FFFBF6" d="M318.6,878.5c51.9-2.2,139.8-2,193.2,19.7l-3.9,24.1c0,0-105.3-17.6-189.3,34.7V878.5z"
			/>
		<path display="inline" fill="#FFFBF6" d="M79.6,829.1c0,0,21.7,96.4,128.7,66.7v68c-28.4,2.2-151.6,3.6-156-132.1L79.6,829.1z"/>
		<g display="inline">
			<path fill="#FFFFFF" d="M272.3,762.8l44.2,51.7l-11.2,6.4l10.4,30.7c0,0-20.8,11.8-38.2,14.7l11.8,34.6l-56,3.6l-14.7-35.6
				l-36.4-83.6c0,0,61.2-52.4,80.9-58.6C282.6,720.3,285.6,739.1,272.3,762.8z"/>
			<path fill="#050505" d="M182.1,785.2c0,0,61.2-52.4,80.9-58.6c19.7-6.3,22.6,12.5,9.3,36.3l-34.5,19.6l11.7,34.5l-8.3,4.7
				c0,0-8.3-15.3-18.9-2.9c-10.6,12.4,9.7,26.9,18.5,22.6l-22.3,27.5l0,0L182.1,785.2z"/>
		</g>
		<path display="inline" fill="#050505" d="M264,895.6l-17.7-6.6l4.9,16.1c0,0-3.9,79.2-68.3,140l-0.4,17.5l19.4-1.9
			c0,0,59.1-44.4,57.9-154.3L264,895.6z"/>
		<polygon display="inline" fill="#DADBDD" points="306.5,874.7 276.2,924.3 254.3,887.4 		"/>
		<polygon display="inline" fill="#DADBDD" points="205.1,874.7 235.5,924.3 257.3,887.4 		"/>
		<path display="inline" fill="#050505" d="M186.9,791.4c-0.7-0.3-1.4-0.5-2.1-0.7c3.8-6.5,19.6-31.4,51-54.2
			c36.4-26.4,72.9-28.6,72.9-28.6l-17.9,15c0,0-0.3,2.9,15.7,2.5c16-0.4,33.3-8.9,33.3-8.9s-4.1,37.7-61.2,69.1
			c-33.8,18.5-61.2,19.7-71.4,19.4C201.5,799,194.6,794.3,186.9,791.4z"/>
		<path display="inline" fill="#050505" d="M285.8,792.1c0,0,0.6,12.6-17.4,12.1C268.4,804.2,289.8,808.5,285.8,792.1z"/>
		<path display="inline" fill="#050505" d="M307.7,828c0,0-19.5,7.8-30.8,1.9c0,0,12.1,10.7,32.3,2.6L307.7,828z"/>
	</g>
</g>
</svg>
