<?xml version="1.0" encoding="utf-8"?>
<!-- Generator: Adobe Illustrator 22.0.1, SVG Export Plug-In . SVG Version: 6.00 Build 0)  -->
<svg version="1.1" id="Layer_1" xmlns="http://www.w3.org/2000/svg" xmlns:xlink="http://www.w3.org/1999/xlink" x="0px" y="0px"
	 viewBox="0 0 1236 1380.5" enable-background="new 0 0 1236 1380.5" xml:space="preserve">
<g>
	<g display="none">
		<rect display="inline" fill="#FF6057" width="1236" height="1380.5"/>
	</g>
	<path fill="#DE534C" d="M436,1286.4c0,14.9-83.8,26.9-187.2,26.9s-187.2-12-187.2-26.9c0-14.9,83.8-26.9,187.2-26.9
		S436,1271.5,436,1286.4z"/>
	<g display="none">
		<path display="inline" fill="#DE534C" d="M1145.8,744.3c0,260.7-211.3,472.1-472.1,472.1c-260.7,0-472.1-211.4-472.1-472.1
			c0-260.7,211.3-472.1,472.1-472.1C934.5,272.3,1145.8,483.6,1145.8,744.3z"/>
	</g>
	<g display="none">
		<path display="inline" fill="#FFFFFF" d="M203.5,1089.5c-3.3-4.7-6.5-9.4-9.7-14.2l4.3-5.1c3.2,4.7,6.4,9.4,9.7,14.1L203.5,1089.5
			z M182.3,1058c-3.2-4.9-6.3-9.7-9.4-14.6l4.4-4.9c3,4.8,6.1,9.7,9.3,14.5L182.3,1058z M1096.5,1053l-4.7-4.4
			c2.7-5.1,5.5-10.4,8-15.7l4.8,4.2C1102,1042.4,1099.3,1047.7,1096.5,1053z M162,1025.6c-3.1-5.1-6-10.2-8.9-15.2l4.6-4.6
			c2.8,4.9,5.8,10,8.8,15L162,1025.6z M1113.8,1017.4l-5-3.9c2.4-5.4,4.8-11,7-16.5l5.1,3.6
			C1118.7,1006.3,1116.3,1011.9,1113.8,1017.4z M142.8,991.8c-2.8-5.2-5.5-10.6-8.1-15.9l4.8-4.2c2.6,5.2,5.3,10.5,8,15.7
			L142.8,991.8z M1128.7,980l-5.2-3.2c2-5.7,4-11.5,5.8-17.3l5.3,2.9C1132.8,968.2,1130.8,974.2,1128.7,980z M125.4,956.4
			c-2.5-5.4-4.9-11-7.2-16.6l5-3.7c2.3,5.5,4.7,11,7.2,16.4L125.4,956.4z M1140.8,940.8l-5.5-2.5c1.6-6,3-12,4.4-18l5.5,2.1
			C1143.9,928.5,1142.4,934.7,1140.8,940.8z M110,919.5c-2.2-5.6-4.3-11.4-6.4-17.2l5.2-3.3c2,5.7,4.2,11.5,6.3,17L110,919.5z
			 M1149.7,900l-5.6-1.7c1.1-6.2,2-12.4,2.8-18.5l5.7,1.3C1151.7,887.3,1150.7,893.7,1149.7,900z M96.5,881.3
			c-1.9-5.9-3.8-11.8-5.6-17.7l5.4-2.9c1.8,5.9,3.6,11.7,5.5,17.5L96.5,881.3z M1155.3,858.5l-5.7-1.3c0.8-6.2,1.5-12.5,2.2-18.7
			l5.7,1C1156.8,845.8,1156.1,852.2,1155.3,858.5z M85,841.7c-1.5-6.1-2.9-12.2-4.3-18.3l5.5-2.2c1.4,6.1,2.8,12.1,4.2,18.2
			L85,841.7z M1159.4,816.6l-5.8-0.7c0.4-6.4,0.8-12.7,1-18.9l5.8,0.4C1160.2,803.7,1159.9,810.1,1159.4,816.6z M76,801.3
			c-1.3-6.2-2.5-12.4-3.6-18.6l5.6-1.8c1.1,6.1,2.3,12.3,3.6,18.4L76,801.3z M1155.1,774.4c0-6.3-0.2-12.7-0.4-18.9l5.8-0.4
			c0.2,6.3,0.4,12.8,0.4,19.2L1155.1,774.4z M700.5,762.6L700,755c4.5-0.5,9-1.8,13.4-3.7l1.8,7.2
			C710.4,760.6,705.5,762,700.5,762.6z M68.4,760.4c-1-6.3-2-12.5-2.9-18.8l5.7-1.4c0.9,6.2,1.8,12.4,2.9,18.6L68.4,760.4z
			 M682.4,760.3c-4.7-1.7-9.4-3.9-14-6.8l2.4-6.9c4.3,2.7,8.7,4.8,13.1,6.3L682.4,760.3z M731.5,748.2l-3.1-6.5
			c3.7-3.1,7.5-6.8,11.2-11.1l3.8,5.8C739.5,740.9,735.5,744.8,731.5,748.2z M653,741.7c-3.9-3.6-7.8-7.7-11.5-12.2l3.9-5.7
			c3.6,4.3,7.3,8.2,11,11.6L653,741.7z M1153.3,732.9c-0.5-6.3-1.2-12.5-2-18.7l5.7-1.3c0.8,6.3,1.5,12.7,2.1,19.1L1153.3,732.9z
			 M755.9,719.8l-4.3-5c2.9-4.3,5.8-9.1,8.6-14.1l0.2-0.4l4.7,4.4l-0.3,0.5C761.8,710.5,758.8,715.4,755.9,719.8z M62.5,718.9
			c-0.7-6.3-1.4-12.7-2-19l5.7-1c0.6,6.2,1.3,12.5,2,18.8L62.5,718.9z M629.1,712.9c-1.1-1.6-2.1-3.3-3.2-5c-2-2.8-4.2-6-6.4-9.3
			l4.4-5c2.1,3.2,4.2,6.3,6.4,9.3c1.1,1.8,2.1,3.4,3.2,5L629.1,712.9z M1147.8,692.1c-1.1-6.1-2.4-12.3-3.8-18.2l5.5-2.3
			c1.4,6.1,2.7,12.3,3.9,18.6L1147.8,692.1z M774.8,685.5l-4.9-4.1c2.5-5.2,5-10.7,7.5-16.2l5,3.8
			C779.9,674.6,777.4,680.2,774.8,685.5z M608.5,680.6c-2.8-4.9-5.7-10.2-8.5-15.6l4.7-4.4c2.8,5.3,5.6,10.4,8.4,15.3L608.5,680.6z
			 M58.6,677c-0.4-6.4-0.8-12.8-1.1-19.2l5.8-0.4c0.3,6.2,0.6,12.6,1,18.9L58.6,677z M1138.4,652.6c-1.7-5.8-3.6-11.7-5.6-17.3
			l5.2-3.2c2,5.8,4,11.8,5.7,17.7L1138.4,652.6z M790.9,648.9l-5.1-3.6c2.2-5.5,4.4-11.2,6.5-16.9l5.2,3.4
			C795.3,637.6,793.1,643.4,790.9,648.9z M590.3,645.8c-2.5-5.2-5-10.7-7.6-16.3l5-3.9c2.5,5.6,5,11.1,7.5,16.2L590.3,645.8z
			 M56.9,634.8c0-2.7,0-5.5,0-8.2c0-3.7,0-7.4,0.1-11l5.8,0.2c-0.1,3.6-0.1,7.3-0.1,10.9c0,2.7,0,5.4,0,8.1L56.9,634.8z
			 M1125.1,615.1c-2.3-5.4-4.8-10.7-7.5-15.8l4.7-4.4c2.8,5.3,5.5,10.8,7.9,16.5L1125.1,615.1z M804.9,611l-5.3-3.1
			c2-5.8,3.9-11.6,5.8-17.4l5.3,3C808.8,599.3,806.9,605.2,804.9,611z M574.1,609.5c-1.3-3-2.5-6-3.8-9c-1.1-2.3-2.3-4.8-3.4-7.3
			l4.9-3.9c1.1,2.5,2.3,5,3.5,7.4c1.3,3.2,2.6,6.2,3.8,9.2L574.1,609.5z M63.5,593.1l-5.8-0.5c0.2-3.2,0.3-6.3,0.5-9.5
			c0-2.9,0-6.2,0.1-9.4l5.8,0.2c-0.1,3.2-0.1,6.3-0.1,9.5C63.8,586.8,63.7,589.9,63.5,593.1z M1106.9,581.9
			c-3.2-4.6-6.7-9-10.2-12.9l3.3-5.1l-2.6-5c3.8-3.4,7.2-7.5,10.1-12l4.4,4.9c-3,4.7-6.5,8.9-10.4,12.5c3.3,3.8,6.5,7.9,9.6,12.3
			L1106.9,581.9z M1069.9,580.3l-0.7-7.6c4.5-0.7,9.1-2.1,13.4-4.1l1.9,7.2C1079.8,578,1074.8,579.6,1069.9,580.3z M1051.6,579.1
			c-4.8-1.6-9-4.3-12.4-8c-0.5-0.4-1-1-1.5-1.6l3.9-5.7c0.3,0.4,0.7,0.8,1.2,1.2c2.9,3.1,6.3,5.3,10.3,6.6L1051.6,579.1z
			 M558.1,573.3l-7.1-16.6l5-3.7l7.1,16.6L558.1,573.3z M817.3,572.4l-5.3-3.2c2-5.7,3.9-11.5,5.9-17.4l5.3,3.1
			C821.2,560.9,819.3,566.7,817.3,572.4z M1083.8,556.6l-0.6-0.3c-4.3-2.8-8.8-5.1-13-6.9l1.7-7.3c4.5,1.8,9.2,4.4,13.8,7.3
			l-1.3,3.4L1083.8,556.6z M65.3,551.3l-5.7-0.8c0.5-6.4,1.2-12.9,2.1-19.1l5.7,1.3C66.5,538.8,65.8,545.1,65.3,551.3z
			 M1042.1,550.4l-3.4-6.2c0.9-0.9,1.9-1.7,3-2.4c3.5-2.3,7.6-3.5,12.3-3.5l0.1,7.6c-3.8,0.1-7.1,1-9.9,2.8
			C1043.5,549.2,1042.8,549.7,1042.1,550.4z M542.5,536.9c-2.6-5.8-5.1-11.1-7.6-16l4.8-4.2c2.5,5,5,10.4,7.7,16.3L542.5,536.9z
			 M830.3,534.1l-5.3-3.1c2-5.8,4-11.6,6-17.4l5.2,3.2C834.3,522.6,832.3,528.3,830.3,534.1z M1121.3,531.3l-5.4-2.8
			c1.6-5.4,2.8-11.3,3.5-17.6l5.7,1.1C1124.4,518.8,1123.1,525.3,1121.3,531.3z M71.1,510.7l-5.6-2c1.3-6.3,2.8-12.5,4.4-18.5
			l5.4,2.6C73.8,498.6,72.3,504.6,71.1,510.7z M525,502.4c-0.6-1-1.2-2.1-1.8-3.1c-2.5-4.2-4.9-7.9-7.2-11.3l4.3-5.1
			c2.4,3.5,4.9,7.4,7.5,11.7c0.6,1.1,1.3,2.1,1.9,3.2L525,502.4z M843.7,496.2l-5.2-3.4c2.1-5.7,4.3-11.5,6.5-17.1l5.1,3.5
			C848,484.9,845.9,490.5,843.7,496.2z M341.5,489.3l-1.1,0l0.1-7.6l1,0c3.8,0,7.6-0.4,11.6-1.2l1.3-0.3l1,7.5L354,488
			C349.8,488.8,345.6,489.3,341.5,489.3z M1120,488.9c-0.3-6-1-12.1-2.1-18.3l5.6-1.7c1.1,6.5,1.9,13.1,2.2,19.4L1120,488.9z
			 M322.6,486c-4.7-1.7-9.4-4.1-14-7.1l2.6-6.8c4.2,2.8,8.6,5,12.9,6.6L322.6,486z M372.5,482.3l-1.6-7.3c4-1.6,8.4-3.5,13.6-5.9
			l1.9,7.2C381.1,478.7,376.7,480.6,372.5,482.3z M503.8,472.5c-3.8-4.1-7.6-7.5-11.5-10.4l2.8-6.7c4.2,3,8.3,6.8,12.3,11.1
			L503.8,472.5z M82,472.1l-5.2-3.3c0.5-1.4,1-2.8,1.6-4.1c1.5-4.4,3.2-8.9,5-13.1l5,3.8c-1.7,4-3.4,8.2-4.8,12.6
			C83,469.4,82.5,470.8,82,472.1z M402.7,468.3l-2-7.2c4-2,8.8-4.3,13.7-6.5l1.8,7.2C411.4,464.1,406.7,466.3,402.7,468.3z
			 M293.6,466.2c-3.7-3.7-7.4-8.1-11.1-12.8l4-5.5c3.6,4.6,7.1,8.7,10.6,12.3L293.6,466.2z M123,463.8l-1.1-7.5
			c1.2-0.3,2.4-0.7,3.5-1.2c2.9-1.5,5.2-3.8,6.7-6.7l4.7,4.3c-2.2,4.2-5.4,7.4-9.5,9.5C125.8,463,124.4,463.5,123,463.8z
			 M104.4,461.5c-4.5-2.4-8.8-6-12.9-10.9l3.9-5.7c3.6,4.3,7.4,7.5,11.2,9.5L104.4,461.5z M858.5,459.3l-5-3.8
			c2.5-5.7,5-11.2,7.5-16.5l4.9,4.1C863.4,448.2,860.9,453.7,858.5,459.3z M432.5,455.5l-1.4-7.4c5.1-1.6,9.9-2.8,14.5-3.5l0.7,7.6
			C442,452.9,437.5,454,432.5,455.5z M476.9,454.2c-2.9-0.9-6-1.5-9-1.8c-1.7-0.3-3.3-0.6-4.8-0.7l0.5-7.6c1.7,0.2,3.3,0.4,5,0.7
			c3.1,0.3,6.5,1,9.7,2L476.9,454.2z M1112.9,449.4c-1.8-5.8-3.8-11.4-6.1-16.7l5-3.8c2.4,5.6,4.6,11.6,6.4,17.6L1112.9,449.4z
			 M98.1,437.5l-4.2-5.2c3.7-5.4,7.7-9.6,11.8-12.7l2.9,6.6C105,428.9,101.4,432.7,98.1,437.5z M270.5,436.4
			c-2.9-4.4-5.8-9.1-9.3-14.8l4.5-4.8c3.4,5.7,6.3,10.3,9.1,14.6L270.5,436.4z M79.9,432.2c-2.6-5.5-5-11.4-6.9-17.5l5.3-2.9
			c1.8,5.7,4,11.2,6.4,16.3L79.9,432.2z M132.4,430.8c-2-4.7-5.4-8-9.3-9l1.1-7.5c5.6,1.5,10.4,6.1,13.2,12.8L132.4,430.8z
			 M875.4,424.2l-4.7-4.4c2.9-5.4,5.9-10.6,8.8-15.4l4.5,4.8C881.1,413.9,878.2,419,875.4,424.2z M1097.3,414.3
			c-2.9-4.9-6-9.6-9.2-14.2l4.2-5.3c3.4,4.7,6.6,9.7,9.6,14.7L1097.3,414.3z M250.6,403.5l-2-3.4c-2.2-3.7-4.6-7.5-6.9-11.4l4.5-4.8
			c2.4,3.9,4.7,7.7,7,11.5l2.1,3.5L250.6,403.5z M895.2,392.2l-4.2-5.3c3.5-4.8,7-9.3,10.6-13.4l3.8,5.7
			C902,383.2,898.6,387.6,895.2,392.2z M68,392c-0.8-5.6-1.2-11.3-1.2-17.1c0-0.9,0-1.8,0-2.7l5.8,0.2c0,0.8,0,1.7,0,2.5
			c0,5.3,0.4,10.6,1.1,15.7L68,392z M1075.7,384.7c-3.6-4-7.4-7.9-11.2-11.4l3.3-6.2c4,3.7,7.9,7.7,11.6,11.9L1075.7,384.7z
			 M230.6,371.1c-3.3-5.1-6.4-9.7-9.5-14.2l4.2-5.2c3.1,4.5,6.3,9.2,9.7,14.4L230.6,371.1z M918.9,365.6l-3.2-6.3
			c4.2-3.7,8.5-7,12.8-9.8l2.6,6.8C927,358.9,922.9,362.1,918.9,365.6z M1050.1,361.3c-4.2-3-8.4-5.8-12.7-8.2l2.3-7
			c4.5,2.5,8.9,5.4,13.2,8.5L1050.1,361.3z M75.1,350.7l-5.6-2c1.3-6.4,3.2-12.6,5.4-18.5l5.2,3.4C78,339.1,76.3,344.8,75.1,350.7z
			 M946.7,347.5l-2-7.1c4.6-2.3,9.4-4.2,14.2-5.7l1.3,7.4C955.6,343.5,951.1,345.3,946.7,347.5z M1021.4,345.4
			c-4.5-1.8-9.2-3.3-13.7-4.4l1.1-7.5c4.8,1.2,9.6,2.7,14.3,4.6L1021.4,345.4z M209.1,340.7c-3.5-4.5-7.1-8.7-10.6-12.6l3.7-5.9
			c3.6,4,7.2,8.3,10.9,12.9L209.1,340.7z M976.8,338.7l-0.4-7.6c4.9-0.5,9.9-0.6,14.8-0.3l-0.3,7.6
			C986.2,338.2,981.5,338.3,976.8,338.7z M89.3,315.5l-4.4-5c3.4-5.1,7.1-9.6,11.1-13.4l3.4,6.2C95.8,306.7,92.4,310.8,89.3,315.5z
			 M184.9,314.6c-4-3.6-8.1-6.8-12.1-9.6l2.7-6.7c4.2,2.9,8.4,6.3,12.6,10.1L184.9,314.6z M157.4,296c-4.5-2-9-3.6-13.5-4.7l1.1-7.5
			c4.8,1.2,9.6,2.9,14.3,5L157.4,296z M114,293.3l-1.8-7.2c4.8-2.1,9.7-3.4,14.8-3.9l0.4,7.6C122.8,290.2,118.3,291.4,114,293.3z"/>
	</g>
	<g display="none">
		<g display="inline">
			<path fill="#FFFFFF" d="M973.2,517c0-0.4,0-0.7,0-1.1c0-28.2-20.8-51.1-46.5-51.1c-25.7,0-46.5,22.9-46.5,51.1
				c0,0.4,0,0.7,0.1,1.1H973.2z"/>
		</g>
		<g display="inline">
			<path fill="#FFFFFF" d="M1190.4,517c-3.9-17.9-18.5-31.2-36-31.2c-17.5,0-32.1,13.3-36,31.2H1190.4z"/>
		</g>
		<g display="inline">
			<path fill="#FFFFFF" d="M1032.2,517h59.7c10.2-9.4,16.7-23.4,16.7-39.2c0-28.2-20.8-51.1-46.5-51.1c-25.7,0-46.5,22.9-46.5,51.1
				C1015.5,493.6,1022,507.7,1032.2,517z"/>
		</g>
		<g display="inline">
			<path fill="#FFFFFF" d="M1162.9,517c-5-27.9-27.4-48.9-54.3-48.9c-26.9,0-49.3,21-54.3,48.9H1162.9z"/>
		</g>
		<g display="inline">
			<path fill="#FFFFFF" d="M1107,517c-8.2-14.4-22.8-23.9-39.4-23.9c-16.6,0-31.1,9.6-39.4,23.9H1107z"/>
		</g>
		<g display="inline">
			<path fill="#FFFFFF" d="M1053.4,495.6c-8.1-30.9-34-53.6-64.8-53.6c-37.2,0-67.4,33.1-67.4,74c0,0.4,0,0.7,0,1h134.7
				c0-0.4,0-0.7,0-1C1056,508.9,1055.1,502.1,1053.4,495.6"/>
		</g>
	</g>
	<g display="none">
		<g display="inline">
			<path fill="#B7C6CE" d="M367.7,379.6c0-0.2,0-0.5,0-0.7c0-19.1-14.1-34.6-31.6-34.6c-17.4,0-31.6,15.5-31.6,34.6
				c0,0.2,0,0.5,0,0.7H367.7z"/>
		</g>
		<g display="inline">
			<path fill="#B7C6CE" d="M515,379.6c-2.6-12.1-12.5-21.2-24.4-21.2c-11.9,0-21.8,9-24.4,21.2H515z"/>
		</g>
		<g display="inline">
			<path fill="#B7C6CE" d="M407.7,379.6h40.5c6.9-6.4,11.3-15.9,11.3-26.6c0-19.1-14.1-34.6-31.6-34.6c-17.4,0-31.6,15.5-31.6,34.6
				C396.4,363.7,400.8,373.2,407.7,379.6z"/>
		</g>
		<g display="inline">
			<path fill="#B7C6CE" d="M496.4,379.6c-3.4-18.9-18.6-33.1-36.8-33.1c-18.2,0-33.4,14.2-36.8,33.1H496.4z"/>
		</g>
		<g display="inline">
			<path fill="#B7C6CE" d="M458.5,379.6c-5.6-9.7-15.4-16.2-26.7-16.2c-11.3,0-21.1,6.5-26.7,16.2H458.5z"/>
		</g>
		<g display="inline">
			<path fill="#B7C6CE" d="M422.1,365c-5.5-21-23.1-36.3-43.9-36.3c-25.2,0-45.7,22.5-45.7,50.2c0,0.2,0,0.5,0,0.7h91.3
				c0-0.2,0-0.5,0-0.7C423.9,374,423.2,369.4,422.1,365"/>
		</g>
	</g>
	<g display="none">
		<g display="inline">
			<path fill="#FFFFFF" d="M455.5,597.3c0.2-1.8,0.4-3.5,0.4-5.3c0-23.9-19.4-43.4-43.4-43.4c-24,0-43.4,19.4-43.4,43.4
				c0,1.8,0.1,3.6,0.4,5.3H455.5z"/>
		</g>
		<g display="inline">
			<path fill="#FFFFFF" d="M356.5,597.3c7.9-10.5,12.6-23.5,12.6-37.7c0-34.8-28.2-63.1-63.1-63.1c-34.8,0-63.1,28.2-63.1,63.1
				c0,14.1,4.7,27.2,12.6,37.7H356.5z"/>
		</g>
		<g display="inline">
			<path fill="#FFFFFF" d="M302.5,597.3c0,0,0-0.1,0-0.1c0-32.9-26.7-59.5-59.5-59.5c-32.9,0-59.5,26.7-59.5,59.5c0,0.1,0,0.1,0,0.1
				H302.5z"/>
		</g>
		<g display="inline">
			<path fill="#FFFFFF" d="M333.2,597.3c-9-14.8-25.3-24.7-43.9-24.7c-18.6,0-34.9,9.9-43.9,24.7H333.2z"/>
		</g>
		<g display="inline">
			<path fill="#FFFFFF" d="M417.3,597.3c0.1-1.8,0.3-3.5,0.3-5.3c0-34.7-28.1-62.8-62.8-62.8c-34.7,0-62.8,28.1-62.8,62.8
				c0,1.8,0.1,3.6,0.3,5.3H417.3z"/>
		</g>
	</g>
	<g display="none">
		<g display="inline">
			<path fill-rule="evenodd" clip-rule="evenodd" fill="#191E38" d="M676.3,957.8H378.4V583.5c0-11.2,9.1-20.4,20.4-20.4h277.5
				h262.3c11.2,0,20.4,9.1,20.4,20.4v374.3H676.3z"/>
		</g>
		<g display="inline">
			<g>
				<path fill-rule="evenodd" clip-rule="evenodd" fill="#191E38" d="M1035.3,957.8c0,16.9-13.4,30.5-30,30.5H332
					c-16.6,0-30-13.7-30-30.5H1035.3z"/>
			</g>
			<g>
				<path fill-rule="evenodd" clip-rule="evenodd" fill="#B2B1B1" d="M720.8,957.8c0,5.6-4.8,10.2-10.7,10.2h-82.9
					c-5.9,0-10.6-4.6-10.6-10.2H720.8z"/>
			</g>
		</g>
		<g display="inline">
			<g>
				<g>
					<path fill="#191E38" d="M795.6,466.5c0,0,77.3-22.7,43-51.5C804.4,386.1,795.6,466.5,795.6,466.5z"/>
				</g>
			</g>
			<g>
				<g>
					<path fill="#FFFFFF" d="M908.1,415.7c-11.3,13.6-38.9,9-61.5-10.2c-22.6-19.2-31.8-45.7-20.5-59.3c11.3-13.6,38.9-9,61.6,10.2
						C910.2,375.6,919.4,402.1,908.1,415.7z"/>
				</g>
			</g>
			<g>
				<g>
					<path fill="#191E38" d="M914.7,407.8c-10,11.9-36.4,6.1-59.1-13.1c-22.7-19.2-32.9-44.4-22.9-56.3c10-11.9,36.4-6.1,59.1,13.1
						C914.4,370.6,924.7,395.8,914.7,407.8z"/>
				</g>
			</g>
			<g>
				<g>
					<path fill="#191E38" d="M1043.1,235.6c4.9-35.2-2.2-63-2.5-62.3c0.7-0.4-27.9-2.6-61.4,8.4c-33.9,10.7-72.8,34.5-99.8,79.4
						c-31.1,48.9-44.9,79-51,96.5c7-1.1,11.7,2.6,13.8,8.3l0,0c0.3,0.3,0.5,0.5,0.7,0.7c1.4,1.2,2.9,2.2,4.4,3.2
						c0.6,0.3,1.6,1,1.9,1.2c0.7,0.4,1.4,0.8,2.1,1.2c2.2,1.3,4.5,2.7,6.6,4.1c11.2,7.6,21.1,16.9,31.4,25.6c2.9,2.4,4.3,6,4.4,9.9
						c0.6,1.5,0.9,3.1,1,4.8c15.7-8.5,43.5-27.4,88-68.5C1022,313.7,1038.6,271,1043.1,235.6z"/>
				</g>
			</g>
			<g>
				<g>
					<path fill="#D97F27" d="M1037,264c14.9-48.3,4-91.1,3.6-90.7c0.3-0.5-43.5-3.8-88.2,19.4c-3.5,1.7-6.9,3.6-10.4,5.7
						c7,11.3,16.9,25.8,31.1,39.4c14.3,13.8,32.9,26.5,59.9,38C1034.6,271.9,1035.9,267.9,1037,264z"/>
				</g>
			</g>
			<g>
				<g>
					<path fill="#191E38" d="M1037,264c14.9-48.3,4-91.1,3.6-90.7c0.3-0.5-43.5-3.8-88.2,19.4c-3.5,1.7-6.9,3.6-10.4,5.7
						c7,11.3,16.9,25.8,31.1,39.4c14.3,13.8,32.9,26.5,59.9,38C1034.6,271.9,1035.9,267.9,1037,264z"/>
				</g>
			</g>
			<g>
				<g>
					<g>
						<path fill="#FFFFFF" d="M1040,253.1c-22.4-10.5-38.5-21.9-51.2-34.1c-11-10.5-19.4-21.6-25.9-31.3c-3.5,1.5-7,3.2-10.5,5
							c-3.5,1.7-6.9,3.6-10.4,5.7c7,11.3,16.9,25.8,31.1,39.4c14.3,13.8,32.9,26.5,59.9,38c1.5-3.9,2.8-7.9,3.9-11.8
							C1038.2,260.4,1039.1,256.7,1040,253.1z"/>
					</g>
				</g>
			</g>
			<g>
				<g>
					<path fill="#FFFFFF" d="M941.3,393.4l-2.4-37.7l-51.2,61.2c-6.6,17.5-19.6,33.9-19.6,33.9c-0.7,2.9,1.5,2.8,1.5,2.8
						s51.8-38,62.6-46C943.2,399.6,941.3,393.4,941.3,393.4z"/>
				</g>
			</g>
			<g>
				<g>
					<path fill="#FFFFFF" d="M842.4,309.6l37.3-4l-51.2,61.2c-16,9.5-29.8,25.2-29.8,25.2c-2.7,1.1-3-1-3-1s28.3-57.9,34.3-70
						C836,308.9,842.4,309.6,842.4,309.6z"/>
				</g>
			</g>
			<g>
				<g>
					<path fill="#FFFFFF" d="M820.5,434.8c0,0,4.1-7.4,10.7-18.3c1.6-2.7,3.4-5.6,5.3-8.7c1.9-3.1,3.9-6.3,6-9.7
						c2.1-3.3,4.3-6.8,6.6-10.2c2.3-3.5,4.6-6.9,7-10.4c2.4-3.5,4.5-7.1,6.6-10.7c2.1-3.6,4.2-7.1,6.7-10.1c2.4-3.1,5.2-5.7,7.9-8
						c2.7-2.4,5.5-4.5,8.2-6.3c2.7-1.8,5.3-3.4,7.7-4.7c2.4-1.3,4.6-2.3,6.5-3.1c0.9-0.4,1.8-0.7,2.6-1c0.8-0.3,1.4-0.5,2-0.7
						c1.1-0.3,1.7-0.5,1.7-0.5l2,1.7c0,0,0,0.7-0.2,1.8c-0.1,0.6-0.2,1.3-0.3,2.1c-0.1,0.8-0.3,1.7-0.5,2.7c-0.4,2-1.1,4.4-1.9,7
						c-0.9,2.6-1.9,5.5-3.3,8.4c-1.3,3-2.9,6.1-4.8,9.2c-1.8,3.1-3.9,6.3-6.5,9.2c-2.6,3-5.6,5.7-8.8,8.4c-3.2,2.7-6.4,5.4-9.4,8.3
						c-3,2.9-6,5.9-9,8.7c-3,2.9-6,5.6-8.9,8.3c-2.9,2.6-5.7,5.2-8.4,7.6c-2.7,2.4-5.2,4.7-7.6,6.8c-9.5,8.4-16,13.7-16,13.7
						L820.5,434.8z"/>
				</g>
			</g>
			<g>
				<g>
					<g>
						<path fill="#B7C6CE" d="M962.4,301.1c-8.6,10.3-23.9,11.7-34.2,3c-10.3-8.7-11.7-24.1-3.1-34.4c8.6-10.3,23.9-11.7,34.2-3
							C969.6,275.4,971,290.8,962.4,301.1z"/>
					</g>
				</g>
				<g>
					<g>
						<path fill="#FFFFFF" d="M945,320.2c-7.7,0.3-15.2-2.3-21.1-7.3c-13.1-11-14.9-30.7-3.9-43.9c5.6-6.7,13.9-10.8,22.7-11.1
							c7.7-0.3,15.1,2.3,21,7.3c13.1,11,14.9,30.7,3.9,43.9C962,315.9,953.8,319.9,945,320.2z M942.9,264.5
							c-6.9,0.2-13.4,3.4-17.9,8.7c-8.7,10.4-7.3,25.9,3.1,34.7c4.7,3.9,10.5,6,16.6,5.7c6.9-0.2,13.4-3.4,17.9-8.7
							c8.7-10.4,7.3-25.9-3.1-34.7C954.8,266.3,949,264.3,942.9,264.5z"/>
					</g>
				</g>
				<g>
					<g>
						<path fill="#FFFFFF" d="M968.8,262.9c-1,1.2-2.9,1.4-4.1,0.4c-1.2-1-1.4-2.9-0.4-4.1c1-1.2,2.9-1.4,4.1-0.4
							C969.7,259.8,969.8,261.7,968.8,262.9z"/>
					</g>
				</g>
				<g>
					<g>
						<path fill="#FFFFFF" d="M958.3,255.9c-0.6,1.5-2.2,2.3-3.7,1.7c-1.5-0.6-2.3-2.2-1.7-3.8c0.5-1.5,2.2-2.3,3.7-1.7
							C958.1,252.7,958.9,254.3,958.3,255.9z"/>
					</g>
				</g>
				<g>
					<g>
						<path fill="#FFFFFF" d="M946.1,252.8c0,1.6-1.3,2.9-2.9,2.9c-1.6,0-2.9-1.3-2.9-2.9c0-1.6,1.3-2.9,2.9-2.9
							C944.8,249.9,946.1,251.2,946.1,252.8z"/>
					</g>
				</g>
				<g>
					<g>
						<path fill="#FFFFFF" d="M933.6,254.2c0.6,1.5-0.2,3.2-1.7,3.8c-1.5,0.5-3.2-0.2-3.7-1.8c-0.5-1.5,0.2-3.2,1.7-3.7
							C931.4,251.9,933.1,252.7,933.6,254.2z"/>
					</g>
				</g>
				<g>
					<g>
						<path fill="#FFFFFF" d="M922.4,259.7c1,1.2,0.9,3.1-0.4,4.1c-1.2,1-3.1,0.9-4.1-0.4c-1-1.2-0.9-3.1,0.4-4.1
							C919.5,258.3,921.3,258.5,922.4,259.7z"/>
					</g>
				</g>
				<g>
					<g>
						<path fill="#FFFFFF" d="M913.7,268.8c1.4,0.8,1.9,2.6,1.1,4c-0.8,1.4-2.6,1.9-4,1.1c-1.4-0.8-1.9-2.6-1.1-4
							C910.5,268.5,912.3,268,913.7,268.8z"/>
					</g>
				</g>
				<g>
					<g>
						<path fill="#FFFFFF" d="M908.7,280.4c1.6,0.3,2.6,1.8,2.4,3.4c-0.3,1.6-1.8,2.7-3.4,2.4c-1.6-0.3-2.6-1.8-2.4-3.4
							C905.6,281.1,907.1,280.1,908.7,280.4z"/>
					</g>
				</g>
				<g>
					<g>
						<path fill="#FFFFFF" d="M907.9,293c1.6-0.3,3.1,0.8,3.4,2.4c0.3,1.6-0.8,3.1-2.4,3.4c-1.6,0.3-3.1-0.8-3.4-2.4
							C905.2,294.8,906.3,293.2,907.9,293z"/>
					</g>
				</g>
				<g>
					<g>
						<path fill="#FFFFFF" d="M911.4,305.1c1.4-0.8,3.2-0.3,4,1.1c0.8,1.4,0.3,3.2-1.1,4c-1.4,0.8-3.2,0.3-4-1.1
							C909.5,307.7,910,305.9,911.4,305.1z"/>
					</g>
				</g>
				<g>
					<g>
						<path fill="#FFFFFF" d="M918.9,315.3c1-1.2,2.9-1.4,4.1-0.4c1.2,1,1.4,2.9,0.4,4.1c-1,1.2-2.9,1.4-4.1,0.3
							C918,318.4,917.8,316.5,918.9,315.3z"/>
					</g>
				</g>
				<g>
					<g>
						<path fill="#FFFFFF" d="M929.3,322.3c0.5-1.5,2.2-2.3,3.7-1.7c1.5,0.6,2.3,2.2,1.8,3.8c-0.6,1.5-2.2,2.3-3.7,1.7
							C929.5,325.5,928.8,323.8,929.3,322.3z"/>
					</g>
				</g>
				<g>
					<g>
						<path fill="#FFFFFF" d="M941.5,325.3c0-1.6,1.3-2.9,2.9-2.9c1.6,0,2.9,1.3,2.9,2.9c0,1.6-1.3,2.9-2.9,2.9
							C942.8,328.3,941.5,326.9,941.5,325.3z"/>
					</g>
				</g>
				<g>
					<g>
						<path fill="#FFFFFF" d="M954,324c-0.6-1.5,0.2-3.2,1.7-3.7c1.5-0.6,3.2,0.2,3.7,1.8c0.5,1.5-0.2,3.2-1.7,3.8
							C956.2,326.3,954.6,325.5,954,324z"/>
					</g>
				</g>
				<g>
					<g>
						<path fill="#FFFFFF" d="M965.3,318.4c-1-1.2-0.9-3.1,0.4-4.1c1.2-1,3.1-0.9,4.1,0.4c1,1.2,0.9,3.1-0.4,4.1
							C968.1,319.8,966.3,319.7,965.3,318.4z"/>
					</g>
				</g>
				<g>
					<g>
						<path fill="#FFFFFF" d="M973.9,309.3c-1.4-0.8-1.9-2.6-1.1-4c0.8-1.4,2.6-1.9,4-1.1c1.4,0.8,1.9,2.6,1.1,4
							C977.1,309.7,975.3,310.1,973.9,309.3z"/>
					</g>
				</g>
				<g>
					<g>
						<path fill="#FFFFFF" d="M979,297.8c-1.6-0.3-2.7-1.8-2.4-3.4c0.3-1.6,1.8-2.6,3.4-2.4c1.6,0.3,2.6,1.8,2.4,3.4
							C982.1,297,980.6,298.1,979,297.8z"/>
					</g>
				</g>
				<g>
					<g>
						<path fill="#FFFFFF" d="M979.8,285.2c-1.6,0.3-3.1-0.8-3.4-2.4c-0.3-1.6,0.8-3.1,2.4-3.4c1.6-0.3,3.1,0.8,3.4,2.4
							C982.4,283.4,981.4,284.9,979.8,285.2z"/>
					</g>
				</g>
				<g>
					<g>
						<path fill="#FFFFFF" d="M976.3,273.1c-1.4,0.8-3.2,0.3-4-1.1c-0.8-1.4-0.3-3.2,1.1-4c1.4-0.8,3.2-0.3,4,1.1
							C978.1,270.5,977.6,272.3,976.3,273.1z"/>
					</g>
				</g>
			</g>
		</g>
		<g display="inline">
			<g>
				<g>
					<path fill-rule="evenodd" clip-rule="evenodd" fill="#F8D140" d="M399.9,933.4V587.5h537.5v345.9H399.9z"/>
				</g>
			</g>
			<polygon fill="#F9DC80" points="894.3,933.4 937.4,933.4 937.4,587.5 478.6,587.5 			"/>
		</g>
		<g display="inline">
			<g>
				<path fill="#7C7E7F" d="M531,934.6c-0.2-33.3-27.2-60.3-60.6-60.3c-33.4,0-60.4,27-60.6,60.3H531z"/>
				<path fill="#7C7E7F" d="M639.6,934.6c0.1-1.9,0.2-3.8,0.2-5.7c0-49.7-40.3-90.1-90.1-90.1c-49.7,0-90.1,40.3-90.1,90.1
					c0,1.9,0.1,3.8,0.2,5.7H639.6z"/>
				<path fill="#7C7E7F" d="M724.2,934.6c8.8-13.5,13.9-29.5,13.9-46.8c0-47.4-38.5-85.9-85.9-85.9c-47.4,0-85.9,38.5-85.9,85.9
					c0,17.3,5.1,33.3,13.9,46.8H724.2z"/>
				<path fill="#7C7E7F" d="M796.5,934.6c5.9-10.2,9.4-22,9.4-34.6c0-37.9-30.8-68.7-68.7-68.7c-37.9,0-68.7,30.8-68.7,68.7
					c0,12.6,3.4,24.4,9.4,34.6H796.5z"/>
				<path fill="#7C7E7F" d="M860.9,934.6c3.1-6.6,4.8-13.9,4.8-21.6c0-28-22.7-50.8-50.8-50.8c-28,0-50.8,22.7-50.8,50.8
					c0,7.7,1.7,15.1,4.8,21.6H860.9z"/>
				<path fill="#7C7E7F" d="M906.9,934.6c-0.2-18.6-15.2-33.6-33.8-33.6c-18.6,0-33.7,15-33.8,33.6H906.9z"/>
			</g>
		</g>
		<g display="inline">
			<g>
				<path fill="#FFFFFF" d="M571.7,933.4c-0.1-22.7-18.5-41-41.2-41c-22.7,0-41.1,18.3-41.2,41H571.7z"/>
				<path fill="#FFFFFF" d="M645.6,933.4c0.1-1.3,0.1-2.6,0.1-3.9c0-33.8-27.4-61.3-61.3-61.3c-33.8,0-61.3,27.4-61.3,61.3
					c0,1.3,0,2.6,0.1,3.9H645.6z"/>
				<path fill="#FFFFFF" d="M703.1,933.4c6-9.2,9.4-20.1,9.4-31.8c0-32.3-26.2-58.4-58.4-58.4c-32.3,0-58.4,26.2-58.4,58.4
					c0,11.7,3.5,22.7,9.4,31.8H703.1z"/>
				<path fill="#FFFFFF" d="M752.3,933.4c4-6.9,6.4-14.9,6.4-23.5c0-25.8-20.9-46.7-46.7-46.7c-25.8,0-46.7,20.9-46.7,46.7
					c0,8.6,2.3,16.6,6.4,23.5H752.3z"/>
				<path fill="#FFFFFF" d="M796.1,933.4c2.1-4.5,3.3-9.4,3.3-14.7c0-19.1-15.5-34.5-34.5-34.5c-19.1,0-34.5,15.5-34.5,34.5
					c0,5.3,1.2,10.2,3.3,14.7H796.1z"/>
				<path fill="#FFFFFF" d="M827.4,933.4c-0.1-12.6-10.4-22.8-23-22.8c-12.6,0-22.9,10.2-23,22.8H827.4z"/>
			</g>
			<circle fill="#FFFFFF" cx="668.5" cy="831.3" r="37"/>
			<path fill="#FFFFFF" d="M720.8,848.2c0,10.7-8.7,19.5-19.5,19.5c-10.7,0-19.5-8.7-19.5-19.5c0-10.7,8.7-19.5,19.5-19.5
				C712.1,828.8,720.8,837.5,720.8,848.2z"/>
			<circle fill="#FFFFFF" cx="631.5" cy="831.3" r="22.6"/>
			<circle fill="#FFFFFF" cx="639.8" cy="787.3" r="28.7"/>
			<path fill="#FFFFFF" d="M715.3,771.9c0,16.6-13.4,30-30,30c-16.6,0-30-13.4-30-30c0-16.6,13.4-30,30-30
				C701.9,742,715.3,755.4,715.3,771.9z"/>
			<path fill="#FFFFFF" d="M728.1,801.9c0,12.5-10.2,22.7-22.7,22.7c-12.5,0-22.7-10.2-22.7-22.7c0-12.5,10.2-22.7,22.7-22.7
				C718,779.2,728.1,789.4,728.1,801.9z"/>
			<circle fill="#FFFFFF" cx="701.3" cy="733.9" r="31.4"/>
			<circle fill="#FFFFFF" cx="720.8" cy="691.9" r="23.3"/>
			<path fill="#FFFFFF" d="M757.4,659.3c0,10.7-8.7,19.3-19.3,19.3c-10.7,0-19.3-8.7-19.3-19.3c0-10.7,8.7-19.3,19.3-19.3
				C748.7,639.9,757.4,648.6,757.4,659.3z"/>
			<circle fill="#FFFFFF" cx="753.3" cy="625.3" r="18.7"/>
			
				<ellipse transform="matrix(0.2319 -0.9727 0.9727 0.2319 13.4052 1204.3964)" fill="#FFFFFF" cx="769.3" cy="593.7" rx="21.6" ry="21.6"/>
			<path fill="#FFFFFF" d="M804.1,563.1c0,8.9-7.2,16.1-16.1,16.1c-8.9,0-16.2-7.2-16.2-16.1c0-8.9,7.2-16.1,16.2-16.1
				C796.9,547,804.1,554.2,804.1,563.1z"/>
			<circle fill="#FFFFFF" cx="797.7" cy="524.6" r="26.7"/>
			
				<ellipse transform="matrix(0.2282 -0.9736 0.9736 0.2282 146.1421 1159.4236)" fill="#FFFFFF" cx="804.4" cy="487.5" rx="15.6" ry="15.6"/>
			<path fill="#FFFFFF" d="M828.7,454.3c0,12.6-10.2,22.8-22.8,22.8c-12.6,0-22.8-10.2-22.8-22.8c0-12.6,10.2-22.8,22.8-22.8
				C818.5,431.5,828.7,441.7,828.7,454.3z"/>
			<path fill="#FFFFFF" d="M805.7,560c0,15.7-12.7,28.4-28.4,28.4c-15.7,0-28.4-12.7-28.4-28.4c0-15.7,12.7-28.4,28.4-28.4
				C793,531.5,805.7,544.3,805.7,560z"/>
			
				<ellipse transform="matrix(0.7071 -0.7071 0.7071 0.7071 -182.8645 728.5455)" fill="#FFFFFF" cx="788" cy="585" rx="21.6" ry="21.6"/>
			<circle fill="#FFFFFF" cx="753.3" cy="611.9" r="18.7"/>
			<circle fill="#FFFFFF" cx="734.7" cy="625.3" r="18.7"/>
			
				<ellipse transform="matrix(0.2313 -0.9729 0.9729 0.2313 -60.3868 1229.389)" fill="#FFFFFF" cx="747.8" cy="652.9" rx="15.7" ry="15.7"/>
			<circle fill="#FFFFFF" cx="730.4" cy="683.9" r="18.6"/>
			<circle fill="#FFFFFF" cx="712.6" cy="715.3" r="28.4"/>
			<circle fill="#FFFFFF" cx="712.6" cy="749.3" r="19.3"/>
			<path fill="#FFFFFF" d="M727.7,779.2c0,16.7-13.5,30.2-30.2,30.2c-16.7,0-30.2-13.5-30.2-30.2c0-16.7,13.5-30.2,30.2-30.2
				C714.1,749,727.7,762.5,727.7,779.2z"/>
			<path fill="#FFFFFF" d="M695.7,671.3c0,4-3.3,7.3-7.3,7.3c-4.1,0-7.3-3.3-7.3-7.3c0-4,3.3-7.3,7.3-7.3
				C692.4,663.9,695.7,667.2,695.7,671.3z"/>
			<path fill="#FFFFFF" d="M712.6,652.9c0,2.5-2,4.6-4.6,4.6c-2.5,0-4.6-2-4.6-4.6c0-2.5,2-4.6,4.6-4.6
				C710.5,648.3,712.6,650.4,712.6,652.9z"/>
			<circle fill="#FFFFFF" cx="763.5" cy="695.3" r="5"/>
			<path fill="#FFFFFF" d="M757,715.3c0,2-1.6,3.7-3.7,3.7c-2,0-3.7-1.6-3.7-3.7c0-2,1.6-3.7,3.7-3.7
				C755.4,711.6,757,713.2,757,715.3z"/>
			<path fill="#FFFFFF" d="M748.9,760.4c0,2.7-2.2,4.9-4.9,4.9c-2.7,0-4.9-2.2-4.9-4.9c0-2.7,2.2-4.9,4.9-4.9
				C746.8,755.6,748.9,757.8,748.9,760.4z"/>
			<path fill="#FFFFFF" d="M650.3,729.9c0,2.6-2.1,4.6-4.6,4.6c-2.6,0-4.6-2.1-4.6-4.6c0-2.6,2.1-4.6,4.6-4.6
				C648.3,725.3,650.3,727.4,650.3,729.9z"/>
			
				<ellipse transform="matrix(2.626945e-02 -0.9997 0.9997 2.626945e-02 -255.796 1369.339)" fill="#FFFFFF" cx="575" cy="816" rx="13.3" ry="13.3"/>
			<path fill="#FFFFFF" d="M821.5,563.4c0,2.7-2.2,4.8-4.8,4.8c-2.7,0-4.8-2.2-4.8-4.8c0-2.7,2.2-4.8,4.8-4.8
				C819.3,558.6,821.5,560.8,821.5,563.4z"/>
			<path fill="#FFFFFF" d="M832.7,509.6c0,2.1-1.7,3.8-3.8,3.8c-2.1,0-3.8-1.7-3.8-3.8c0-2.1,1.7-3.8,3.8-3.8
				C831,505.8,832.7,507.5,832.7,509.6z"/>
			<path fill="#FFFFFF" d="M762,490.4c0,2.6-2.1,4.6-4.6,4.6c-2.6,0-4.6-2.1-4.6-4.6s2.1-4.6,4.6-4.6
				C759.9,485.8,762,487.9,762,490.4z"/>
			<path fill="#FFFFFF" d="M738,541.9c0,1.9-1.5,3.4-3.4,3.4c-1.9,0-3.4-1.5-3.4-3.4c0-1.9,1.5-3.4,3.4-3.4
				C736.5,538.6,738,540.1,738,541.9z"/>
			<path fill="#FFFFFF" d="M775.4,843.1c0,5.8-4.7,10.5-10.5,10.5c-5.8,0-10.5-4.7-10.5-10.5c0-5.8,4.7-10.5,10.5-10.5
				C770.7,832.7,775.4,837.4,775.4,843.1z"/>
			<circle fill="#FFFFFF" cx="516" cy="866.1" r="4"/>
			<path fill="#FFFFFF" d="M858,448.3c0,3.3-2.7,6-6,6c-3.3,0-6-2.7-6-6s2.7-6,6-6C855.3,442.2,858,444.9,858,448.3z"/>
			<path fill="#FFFFFF" d="M795.6,415.4c0,2.6-2.1,4.7-4.7,4.7c-2.6,0-4.7-2.1-4.7-4.7s2.1-4.7,4.7-4.7
				C793.5,410.7,795.6,412.8,795.6,415.4z"/>
		</g>
		<g display="inline">
			<rect x="546" y="891.3" fill="#B7C6CE" width="229.3" height="34.8"/>
			<g>
				<path d="M578.9,915.2v2.9h-9.5v-18.6h2.9v15.5c0,0.1,0.1,0.2,0.2,0.2H578.9z"/>
				<path d="M590.6,899.2c5.3,0,9.5,4.2,9.5,9.5s-4.2,9.5-9.5,9.5c-5.3,0-9.5-4.2-9.5-9.5S585.4,899.2,590.6,899.2z M590.6,915.4
					c3.6,0,6.6-3,6.6-6.6c0-3.6-3-6.6-6.6-6.6c-3.6,0-6.6,3-6.6,6.6C584,912.4,587,915.4,590.6,915.4z"/>
				<path d="M612.8,918c-0.3-0.8-1.3-3.8-1.6-3.8h-6.8c-0.1,0-0.2,0-0.2,0.1l-1.4,3.7h-3.1l7-18.6h2.2l7,18.6H612.8z M607.8,904.7
					l-2.4,6.6c0,0,0,0,0,0.1c0,0.1,0,0.1,0.1,0.1h4.7c0.1,0,0.1,0,0.1-0.1c0,0,0,0,0-0.1l-2.4-6.6
					C607.9,904.7,607.9,904.6,607.8,904.7C607.8,904.6,607.8,904.6,607.8,904.7z"/>
				<path d="M617.5,899.4h5.9c5.2,0,9.3,4.2,9.3,9.3c0,5.1-4.1,9.3-9.3,9.3h-5.9V899.4z M623.4,915.2c3.6,0,6.4-2.8,6.4-6.4
					s-2.8-6.4-6.4-6.4h-2.9c-0.1,0-0.1,0-0.1,0.1V915c0,0.1,0,0.1,0.1,0.1H623.4z"/>
				<path d="M638,899.4V918h-2.9v-18.6H638z"/>
				<path d="M643.4,899.4c2.6,4.1,5.2,8.3,7.8,12.5c0.2,0.3,0.4,0.7,0.7,1v-13.5h2.9V918h-3.1l-7.8-12.4c-0.2-0.3-0.5-0.7-0.7-1
					c0,0.5,0,1,0,1.5V918h-2.9v-18.6H643.4z"/>
				<path d="M674.4,914.5c-1.3,2-3.9,3.7-7.7,3.7c-5.3,0-9.5-4.2-9.5-9.5s4.2-9.5,9.5-9.5c3,0,5.3,1.4,6.4,2.3l-1.9,2.2
					c-1.1-0.9-2.9-1.6-4.5-1.6c-3.6,0-6.6,3-6.6,6.6c0,3.6,3,6.6,6.8,6.6c2.1,0,3.8-0.8,4.6-1.8v-2.4c-0.3,0-0.7-0.1-1.1-0.1H666
					v-2.8h8.5V914.5z"/>
				<path d="M673.7,916.9c0-0.7,0.6-1.3,1.3-1.3c0.6,0,1.2,0.6,1.2,1.3c0,0.7-0.5,1.2-1.2,1.2C674.2,918.1,673.7,917.6,673.7,916.9z
					"/>
				<path d="M678.4,916.9c0-0.7,0.6-1.3,1.3-1.3c0.6,0,1.2,0.6,1.2,1.3c0,0.7-0.5,1.2-1.2,1.2C678.9,918.1,678.4,917.6,678.4,916.9z
					"/>
				<path d="M683.1,916.9c0-0.7,0.6-1.3,1.3-1.3c0.6,0,1.2,0.6,1.2,1.3c0,0.7-0.5,1.2-1.2,1.2C683.6,918.1,683.1,917.6,683.1,916.9z
					"/>
				<path d="M687.8,916.9c0-0.7,0.6-1.3,1.3-1.3c0.6,0,1.2,0.6,1.2,1.3c0,0.7-0.5,1.2-1.2,1.2C688.4,918.1,687.8,917.6,687.8,916.9z
					"/>
				<path d="M692.5,916.9c0-0.7,0.6-1.3,1.3-1.3c0.6,0,1.2,0.6,1.2,1.3c0,0.7-0.5,1.2-1.2,1.2C693.1,918.1,692.5,917.6,692.5,916.9z
					"/>
				<path d="M697.2,916.9c0-0.7,0.6-1.3,1.3-1.3c0.6,0,1.2,0.6,1.2,1.3c0,0.7-0.5,1.2-1.2,1.2C697.8,918.1,697.2,917.6,697.2,916.9z
					"/>
				<path d="M713.9,909.1c-1.9,3.1-3.9,6.2-5.9,9.2c-0.8-0.5-1.6-1-2.5-1.5c0.8-1.4,1.7-2.6,2.6-3.9l0.4-0.7c-0.1,0-0.3,0-0.5,0
					c-3.4-0.2-6.3-2.6-6.3-6.4c0-3.6,2.9-6.5,6.5-6.5c3.7,0,6.5,2.9,6.5,6.5C714.8,907,714.5,908.1,713.9,909.1z M708.3,902.2
					c-2,0-3.6,1.5-3.6,3.6c0,2,1.6,3.6,3.6,3.6c2.1,0,3.6-1.6,3.6-3.6C711.9,903.7,710.4,902.2,708.3,902.2z"/>
				<path d="M728.8,909.1c-1.9,3.1-3.9,6.2-5.9,9.2c-0.8-0.5-1.6-1-2.5-1.5c0.8-1.4,1.7-2.6,2.6-3.9l0.4-0.7c-0.1,0-0.3,0-0.5,0
					c-3.4-0.2-6.3-2.6-6.3-6.4c0-3.6,2.9-6.5,6.5-6.5c3.7,0,6.5,2.9,6.5,6.5C729.7,907,729.4,908.1,728.8,909.1z M723.2,902.2
					c-2,0-3.6,1.5-3.6,3.6c0,2,1.6,3.6,3.6,3.6c2.1,0,3.6-1.6,3.6-3.6C726.8,903.7,725.3,902.2,723.2,902.2z"/>
				<path d="M736.2,899.4c2.5,0,4.5,2,4.5,4.5c0,2.5-2,4.5-4.5,4.5c-2.5,0-4.5-2-4.5-4.5C731.7,901.4,733.7,899.4,736.2,899.4z
					 M736.2,906.2c1.3,0,2.4-1,2.4-2.4c0-1.3-1-2.4-2.4-2.4s-2.4,1-2.4,2.4C733.8,905.2,734.8,906.2,736.2,906.2z M736.2,917.5
					l9.6-18.2l1.3,0.7c-4.3,8.5-9.6,18.2-9.6,18.3L736.2,917.5z M747.3,909.1c2.5,0,4.5,2,4.5,4.5c0,2.5-2,4.5-4.5,4.5
					c-2.5,0-4.5-2-4.5-4.5C742.8,911.1,744.8,909.1,747.3,909.1z M747.3,915.9c1.3,0,2.4-1,2.4-2.4c0-1.3-1-2.4-2.4-2.4
					c-1.3,0-2.4,1-2.4,2.4C744.9,914.9,745.9,915.9,747.3,915.9z"/>
			</g>
		</g>
	</g>
	<g display="none">
		<g display="inline">
			<g>
				<path fill="#FFFFFF" d="M940.5,168.3h-19.3c-0.8,0-1.5-0.7-1.5-1.5c0-0.8,0.7-1.5,1.5-1.5h19.3c0.8,0,1.5,0.7,1.5,1.5
					C942,167.6,941.3,168.3,940.5,168.3z"/>
			</g>
			<g>
				<path fill="#FFFFFF" d="M930.9,177.9c-0.8,0-1.5-0.7-1.5-1.5v-19.3c0-0.8,0.7-1.5,1.5-1.5c0.8,0,1.5,0.7,1.5,1.5v19.3
					C932.4,177.2,931.7,177.9,930.9,177.9z"/>
			</g>
		</g>
		<g display="inline">
			<g>
				<path fill="#FFFFFF" d="M746.8,275.8h-19.3c-0.8,0-1.5-0.7-1.5-1.5c0-0.8,0.7-1.5,1.5-1.5h19.3c0.8,0,1.5,0.7,1.5,1.5
					C748.3,275.1,747.6,275.8,746.8,275.8z"/>
			</g>
			<g>
				<path fill="#FFFFFF" d="M737.2,285.4c-0.8,0-1.5-0.7-1.5-1.5v-19.3c0-0.8,0.7-1.5,1.5-1.5c0.8,0,1.5,0.7,1.5,1.5v19.3
					C738.6,284.7,738,285.4,737.2,285.4z"/>
			</g>
		</g>
		<g display="inline">
			<g>
				<path fill="#FFFFFF" d="M787,370.4h-19.3c-0.8,0-1.5-0.7-1.5-1.5c0-0.8,0.7-1.5,1.5-1.5H787c0.8,0,1.5,0.7,1.5,1.5
					C788.4,369.8,787.8,370.4,787,370.4z"/>
			</g>
			<g>
				<path fill="#FFFFFF" d="M777.3,380.1c-0.8,0-1.5-0.7-1.5-1.5v-19.3c0-0.8,0.7-1.5,1.5-1.5c0.8,0,1.5,0.7,1.5,1.5v19.3
					C778.8,379.4,778.1,380.1,777.3,380.1z"/>
			</g>
		</g>
	</g>
	<g display="none">
		<g display="inline">
			<path fill="#FFFFFF" d="M718.9,1117.8c1.4,4.5,4.5,7.9,11,7.9c6.5,0,13.5-5.9,14.9-12.4c2-9.1-5-12.6-11.2-15.5
				c-11.9-5.5-20.7-11.2-17.5-26.6c3.2-15.5,17-26.7,32.1-26.7c9.2,0,17.6,5.2,19.6,14.1l-14.4,6.4c-1.1-4.1-5.1-5.9-8.7-5.9
				c-6.1,0-12.6,5.5-13.9,11.4c-1.5,7.4,3,9.7,8.4,12.7c16.9,8.1,23.5,14,20,30.1c-3.1,14.9-17.6,26.7-32,26.7h-0.5
				c-13,0-20.9-8.4-21.2-18.2C709.9,1120.5,714.3,1119.1,718.9,1117.8z"/>
			<path fill="#FFFFFF" d="M801.5,1067.9l1.6-7.2c0-0.4-0.2-0.7-0.6-0.7h-21.6l3.1-14.6h59.6l-3.1,14.6h-21.7
				c-0.1,0-0.1,0.1-0.3,0.1l-0.6,0.3c-0.1,0.1-0.1,0.4-0.3,0.6l-16.5,78.1h-14.6L801.5,1067.9z"/>
			<path fill="#FFFFFF" d="M879.6,1139c-0.6-4.1-2.8-19.2-4.2-19.2h-34c-0.6,0-1,0.3-1.3,0.8l-10.9,18.5h-15.5l55-93.7h10.9
				l15.5,93.7H879.6z M868.4,1071.9l-19,33c-0.3,0.1-0.3,0.3-0.3,0.5c-0.1,0.3,0,0.5,0.4,0.5h23.6c0.5,0,0.8-0.3,0.9-0.6
				c0-0.1-0.1-0.2,0-0.4l-5-33c-0.3-0.3-0.1-0.5-0.4-0.5C868.5,1071.4,868.4,1071.5,868.4,1071.9z"/>
			<path fill="#FFFFFF" d="M934.6,1103.4c-0.1-0.5-0.6-0.7-1.1-0.7h-8.1c-0.5,0-0.8,0.3-0.9,0.7L917,1139h-14.6l19.9-93.7H949
				c17.5,0,26.1,13.1,22.6,29.2c-1.6,7.7-5.1,13.6-11.1,19c-2.4,2-10,6.5-10.1,6.9c0,0.1,0.1,0.1,0.1,0.2l13.9,38.4h-16.9
				C943.1,1127.1,938.8,1115.3,934.6,1103.4z M927.7,1088.3c-0.1,0.6,0.1,0.9,0.7,0.9h9.2c11.1,0,17.6-6.1,19.4-14.7
				c1.5-6.7-1-14.6-11.2-14.6h-11.1c-0.6,0-1,0.4-1.1,1L927.7,1088.3z"/>
			<path fill="#FFFFFF" d="M996.7,1067.9l1.6-7.2c0-0.4-0.3-0.7-0.6-0.7h-21.6l3.1-14.6h59.6l-3.1,14.6h-21.7
				c-0.1,0-0.1,0.1-0.2,0.1l-0.6,0.3c-0.1,0.1-0.1,0.4-0.2,0.6l-16.5,78.1h-14.6L996.7,1067.9z"/>
			<path fill="#FFFFFF" d="M1085.8,1045.4h14.6l-13.9,65.1c-1.8,8.5,4,14.7,11.9,14.7c8,0,16-6.2,17.6-14.1l14-65.7h14.6l-14.2,67.1
				c-3.4,15.6-19.7,27.4-35.1,27.4c-15.7,0-27.1-11.9-23.7-27.5L1085.8,1045.4z"/>
			<path fill="#FFFFFF" d="M1156.5,1045.3h24.9c16,0,24.6,12.2,21.2,28.1c-3.4,15.9-17.4,28.7-33.4,28.7h-9.5
				c-0.5,0-0.8,0.3-0.9,0.8l-7.6,36.1h-14.6L1156.5,1045.3z M1162.2,1086.9c-0.1,0.5,0.1,0.7,0.7,0.7h7.7c11.5,0,16.1-8.7,17.2-14.2
				c1.1-5.5,0.1-13.6-11.4-13.6h-7.7c-0.6,0-0.9,0.4-1,1L1162.2,1086.9z"/>
		</g>
		<g display="inline">
			<path fill="#FFFFFF" d="M710.1,1186.2l6.8-32h6.2c5.1,0,8,4,6.9,9c-1.1,5-5.8,9.1-10.8,9.1h-2.5c-0.4,0-0.7,0-1.1,0
				c-0.2,0.6-0.3,1.1-0.4,1.6l-2.6,12.1H710.1z M716.4,1168.6c-0.2,1-0.5,1.2,0.9,1.2h2.5c4.2,0,7-3.7,7.6-6.6
				c0.6-2.9-0.7-6.4-4.9-6.4h-2.5c-0.5,0-0.9,0-1.2,0.2L716.4,1168.6z"/>
			<path fill="#FFFFFF" d="M732.5,1164.9c0.9,0,1.6,0.1,2.5,0.1l-0.5,2.3c1.7-1.6,3.8-2.6,7.2-2.7c0.4,0,1.1,0,1.5,0
				c-0.2,0.9-0.4,1.7-0.6,2.5c-0.3,0-0.9,0-1.3,0c-3.9,0.1-7.2,2.1-8.1,6l-2.8,13.1H728L732.5,1164.9z"/>
			<path fill="#FFFFFF" d="M756.9,1164.5c6,0,9.9,4.9,8.6,11c-1.3,6.1-7.2,11-13.3,11c-6.1,0-10-4.9-8.7-11
				C744.8,1169.4,750.7,1164.5,756.9,1164.5z M752.7,1184c4.7,0,9.2-3.8,10.3-8.5c1-4.7-2-8.4-6.6-8.4c-4.8,0-9.3,3.8-10.3,8.4
				C745,1180.2,748,1184,752.7,1184z"/>
			<path fill="#FFFFFF" d="M770,1192.9c-0.5,2.3-3.3,3.5-5.1,3.5c-0.4,0-0.8,0-1.1-0.2l1-2.3c0,0,0.1,0,0.3,0c0.9,0,2.4-0.5,2.7-2
				l5.8-27h2.5L770,1192.9z M774.2,1160.8c0.2-0.8,0.9-1.4,1.7-1.4c0.7,0,1.2,0.6,1.1,1.4c-0.2,0.8-0.9,1.4-1.7,1.4
				C774.5,1162.2,774,1161.5,774.2,1160.8z"/>
			<path fill="#FFFFFF" d="M793.5,1181.5l0.6,2c-2.6,1.9-5.8,2.9-8.8,2.9c-6.1,0-10-4.9-8.7-11c1.3-6.1,6.9-11,13-11
				c6,0,8.9,4.9,7.6,10.7c-0.1,0.5-0.3,1-0.3,1.4h-18c-0.4,4.3,2.5,7.4,6.9,7.4C788.3,1184,791.1,1183.2,793.5,1181.5z
				 M779.5,1174.4h15.4c0.6-3.8-1.4-7.3-5.8-7.3C784.8,1167,780.8,1170.2,779.5,1174.4z"/>
			<path fill="#FFFFFF" d="M802.5,1175.5c-1,4.8,1.9,8.5,6.7,8.5c3.2,0,6.3-1.7,8.2-4.2l2.1,0.9c-2.5,3.5-6.6,5.8-10.9,5.8
				c-6.1,0-10-4.9-8.7-11c1.3-6.1,7.2-11,13.3-11c3.8,0,6.7,2,8.1,5l-2.3,1.4c-0.9-2.4-3.2-4-6.3-4
				C808,1167,803.5,1170.8,802.5,1175.5z"/>
			<path fill="#FFFFFF" d="M832.7,1158.8h2.5l-1.3,6.3h6.1l-0.5,2.3h-6.1l-4,18.8h-2.5l4-18.8h-6.1l0.5-2.3h6.1L832.7,1158.8z"/>
			<path fill="#FFFFFF" d="M865.8,1186.2h-15.3l6.8-32h2.6l-5.8,27.1c-0.2,0.8-0.3,1.5-0.5,2.3h12.6L865.8,1186.2z"/>
			<path fill="#FFFFFF" d="M892.4,1164.9h2.5l-4.5,21.3h-2.5l0.8-3.9c-2.5,2.6-5.8,4.2-9.3,4.2c-6.1,0-10-4.9-8.7-11
				c1.3-6.1,7.2-11,13.3-11c3.5,0,6.2,1.7,7.5,4.3L892.4,1164.9z M879.9,1184c4.7,0,9.2-3.8,10.3-8.5c1-4.7-2-8.4-6.6-8.4
				c-4.8,0-9.3,3.8-10.3,8.4C872.2,1180.2,875.1,1184,879.9,1184z"/>
			<path fill="#FFFFFF" d="M911.3,1186.2h-2.4l0.5-2.5c-1.9,1.7-4.3,2.8-6.9,2.8c-4.7,0-8-3.8-7-8.5l2.8-13.1h2.5l-2.8,12.9
				c-0.7,3.4,1.5,6.2,4.9,6.2c3.3,0,6.7-2,7.5-6l2.8-13.1h2.5L911.3,1186.2z"/>
			<path fill="#FFFFFF" d="M919.5,1164.9l2.5,0l-0.5,2.4c1.9-1.7,4.3-2.8,6.8-2.8c4.7,0,8,3.8,7,8.4l-2.8,13.2H930l2.7-13
				c0.7-3.4-1.6-6.2-4.9-6.2c-3.4,0-6.7,2-7.5,6l-2.8,13.1H915L919.5,1164.9z"/>
			<path fill="#FFFFFF" d="M940.5,1175.5c-1,4.8,1.9,8.5,6.7,8.5c3.2,0,6.3-1.7,8.2-4.2l2.1,0.9c-2.5,3.5-6.6,5.8-10.9,5.8
				c-6.1,0-10-4.9-8.7-11c1.3-6.1,7.2-11,13.3-11c3.8,0,6.7,2,8.1,5l-2.3,1.4c-0.9-2.4-3.2-4-6.3-4
				C946.1,1167,941.5,1170.8,940.5,1175.5z"/>
			<path fill="#FFFFFF" d="M966.4,1167.3c1.9-1.7,4.3-2.8,6.8-2.8c4.7,0,8,3.8,7,8.4l-2.8,13.2h-2.5l2.7-13c0.7-3.4-1.6-6.2-4.9-6.2
				c-3.4,0-6.7,2-7.5,6l-2.8,13.1h-2.5l6.3-29.8h2.5L966.4,1167.3z"/>
			<path fill="#FFFFFF" d="M1008.2,1164.5c6.1,0,9.9,4.9,8.7,11c-1.3,6.1-7.2,11-13.3,11c-6.1,0-10-4.9-8.7-11
				C996.1,1169.4,1002,1164.5,1008.2,1164.5z M1004,1184c4.7,0,9.2-3.8,10.3-8.5c1-4.7-2-8.4-6.6-8.4c-4.8,0-9.3,3.8-10.3,8.4
				C996.3,1180.2,999.2,1184,1004,1184z"/>
			<path fill="#FFFFFF" d="M1022.4,1164.9l2.5,0l-0.5,2.4c1.9-1.7,4.3-2.8,6.8-2.8c4.7,0,8,3.8,7,8.4l-2.8,13.2h-2.5l2.7-13
				c0.7-3.4-1.6-6.2-4.9-6.2c-3.4,0-6.7,2-7.5,6l-2.8,13.1h-2.5L1022.4,1164.9z"/>
			<path fill="#FFFFFF" d="M1066.7,1186.2h-15.3l6.8-32h2.6l-5.8,27.1c-0.2,0.8-0.3,1.5-0.5,2.3h12.6L1066.7,1186.2z"/>
			<path fill="#FFFFFF" d="M1088.9,1154.2l4.3,32h-2.7l-0.9-6.2c-0.1-0.5-0.1-1-0.3-1.5c-0.6,0-1.3,0-1.9,0h-9.4c-0.6,0-1.3,0-2,0
				c-0.3,0.5-0.6,1-0.8,1.5l-3.5,6.2h-2.8l17.9-32H1088.9z M1078,1174.9l-0.4,0.8c0.2,0.1,0.5,0.1,0.8,0.1h9.8c0.3,0,0.6,0,0.9-0.1
				l-0.1-0.8c-0.6-5-1.3-10.1-2-15.1c0-0.3,0-0.6-0.1-0.8l0,0C1083.9,1164.3,1081,1169.6,1078,1174.9z"/>
			<path fill="#FFFFFF" d="M1095.9,1186.2l6.8-32h6.2c5.1,0,8,4,6.9,9c-1.1,5-5.8,9.1-10.8,9.1h-2.5c-0.4,0-0.7,0-1.1,0
				c-0.2,0.6-0.3,1.1-0.4,1.6l-2.6,12.1H1095.9z M1102.2,1168.6c-0.2,1-0.5,1.2,0.9,1.2h2.5c4.2,0,7-3.7,7.6-6.6
				c0.6-2.9-0.7-6.4-4.9-6.4h-2.5c-0.5,0-0.9,0-1.2,0.2L1102.2,1168.6z"/>
			<path fill="#FFFFFF" d="M1139.1,1156.8h-7.5c-0.5,0-0.9,0-1.3,0c-0.2,0.5-0.3,1-0.4,1.5l-5.9,27.8h-2.6l5.9-27.8
				c0.3-1.1,0.6-1.6-1-1.6h-7.5l0.6-2.6h20.3L1139.1,1156.8z"/>
			<path fill="#FFFFFF" d="M1154.2,1153.9c9,0,14.7,7.3,12.8,16.3c-1.9,9-10.7,16.3-19.8,16.3c-9,0-14.8-7.3-12.9-16.3
				C1136.3,1161.2,1145.2,1153.9,1154.2,1153.9z M1147.8,1183.9c7.6,0,15-6.2,16.6-13.7c1.6-7.6-3.2-13.7-10.8-13.7
				c-7.5,0-15,6.1-16.7,13.7C1135.4,1177.7,1140.3,1183.9,1147.8,1183.9z"/>
			<path fill="#FFFFFF" d="M1166.8,1186.2l6.8-32h6.2c5.1,0,8,4,6.9,9c-1.1,5-5.8,9.1-10.8,9.1h-2.5c-0.4,0-0.7,0-1.1,0
				c-0.2,0.6-0.3,1.1-0.4,1.6l-2.6,12.1H1166.8z M1173.1,1168.6c-0.2,1-0.5,1.2,0.9,1.2h2.5c4.2,0,7-3.7,7.6-6.6
				c0.6-2.9-0.7-6.4-4.9-6.4h-2.5c-0.5,0-0.9,0-1.2,0.2L1173.1,1168.6z"/>
		</g>
	</g>
	<g display="none">
		<g display="inline">
			<path fill="#2F3543" d="M194.2,1093c0,0,3.8,19.7,55.6,17.6c51.7-2.1,70.9-10.4,68.8-26.9c-2.2-16.4-68.4-0.8-69.6-0.9
				C247.8,1082.7,194.2,1093,194.2,1093z"/>
			<g>
				<path fill="#2F3543" d="M324.9,1276c-24,4-48.8,3.4-72.5-1.9c-5.1-1.2-11.3-3.6-11.8-8.9c-0.2-2.3,0.8-4.6,1.7-6.7
					c3-6.4,6.5-13.4,13.1-15.9c3.7-1.5,7.9-1.2,11.9-0.9c14.9,1.1,29.7,2.9,44.4,5.2c7,1.1,14,2.4,20.3,5.6
					c4.7,2.4,9.2,6.8,8.8,12.1C340.3,1271.7,331.9,1274.9,324.9,1276"/>
				<path fill="#2F3543" d="M289.3,1032.6c0,0,30.7,61.3,33.4,110.4c2.6,49.1-21.9,109.2-21.9,109.2l-58.2,3.9
					c0,0,35.2-53.7,41.2-86.6c6-32.9,3.4-57.4-4.2-79c-7.6-21.6-31.4-51.6-31.4-51.6L289.3,1032.6z"/>
			</g>
			<g>
				<path fill="#2F3543" d="M250.8,1292.5c-23,3.9-46.7,3.2-69.5-1.8c-4.9-1.1-10.8-3.5-11.3-8.5c-0.2-2.2,0.7-4.4,1.7-6.4
					c2.8-6.1,6.2-12.8,12.5-15.3c3.6-1.4,7.6-1.2,11.4-0.9c14.2,1.1,28.5,2.8,42.6,5c6.7,1.1,13.5,2.3,19.5,5.4
					c4.5,2.3,8.8,6.6,8.4,11.6C265.5,1288.4,257.4,1291.4,250.8,1292.5"/>
				<path fill="#2F3543" d="M221.7,1046.1c0,0,30.7,61.3,33.4,110.4c2.6,49.1-21.9,109.2-21.9,109.2l-58.2,3.9
					c0,0,35.2-53.7,41.2-86.6c6-32.9,3.4-57.4-4.2-79c-7.6-21.6-20.5-53.3-20.5-53.3L221.7,1046.1z"/>
			</g>
		</g>
		<path display="inline" fill="#FFFFFF" d="M61.8,865.1c0.5-3.6,0.5-7.2,1-10.7c0.5-3.6,1.7-7.2,4.1-9.8c0.6-0.6,1.3-1.3,2.2-1.3
			c0.6,0,1.1,0.2,1.6,0.5c1.8,1.1,3.2,2.9,3.8,5c0.5,2,0.3,4.1,0,6.2c-0.8,5.9-1.8,11.8-3,17.6c1.9-1.7,4.1-3.2,6.5-4.2
			c2.3-1,5.5-1.2,6.8,0.9c0.7,1.3,0.4,3-0.3,4.3c-2.7,4.9-10.4,6.3-12.2,11.6c-0.8,2.4-1,3.8-1.4,4.9c-0.2,0.6,0.5,1.4,0,1.6
			c-4.4,1.4-9.2,1.4-13.6-0.1c-1.3-0.4-1.8-0.3-2.8-1.2c-0.9-0.8-1.5-3.8-2.1-4.8c-2.5-4-5-6.4-7.5-10.3c-1.8-2.8-3.5-6-4.6-9.1
			c-1.1-3.1-2.5-6.5-1.5-9.6c0.4-1.3,1.1-2.5,2.3-3.1c1.5-0.9,3.5-0.5,4.9,0.6c1.4,1,2.3,2.6,3,4.2c1.2,2.6,1.9,5.3,2.3,8.2
			c-1-5.8-1.9-11.9,0.3-17.4c0.9-2.3,3.3-4.6,5.5-3.6c1.6,0.7,2.1,2.6,2.5,4.2C60.4,854.7,61.2,859.9,61.8,865.1"/>
		<path display="inline" fill="#FFFBF6" d="M305.5,969.5c-2.7-7.1-5.9-13.9-8.5-21.1c-2.5-7-4.8-14.1-7.6-21
			c-11.7,0.5-19-1.1-19-1.1l-83.1,15.9c0,0-5.8,4.7-17.3,8.1c-0.1,3.3-0.1,6.6,0,10c0.7,10.9,1.6,21.8,2.3,32.7l18.7,106.8
			c0,0,22.9,0.6,66.6-6.1c43.6-6.8,62.4-15.4,62.4-15.4l-15.6-108.5C304.4,969.7,304.8,969.7,305.5,969.5z"/>
		<path display="inline" fill="#FFFFFF" d="M447.5,960.2l10,2.3c0,0,1.9,9.7,6.4,11c4.5,1.3-1.3-5.4,2.1-9.1
			c3.4-3.7,11.7,7.1,15.4,3.5c3.7-3.6-0.2-21.3-31.6-17.4L447.5,960.2z"/>
		<path display="inline" fill="#FFFBF6" d="M285.9,927.1c45.8-1.9,123.5-1.8,170.6,17.4l-3.4,21.3c0,0-93-15.6-167.2,30.6V927.1z"/>
		<path display="inline" fill="#FFFBF6" d="M74.8,883.5c0,0,19.1,85.2,113.7,58.9v60.1c-25.1,1.9-133.9,3.2-137.8-116.7L74.8,883.5z
			"/>
		<g display="inline">
			<path fill="#FFFFFF" d="M245,824.9l39,45.7l-9.9,5.6l9.2,27.2c0,0-18.4,10.4-33.7,12.9l10.4,30.5l-49.5,3.2l-13-31.5l-32.2-73.9
				c0,0,54-46.3,71.4-51.8C254.1,787.4,256.7,803.9,245,824.9z"/>
			<path fill="#192D4E" d="M165.3,844.7c0,0,54-46.3,71.4-51.8c17.4-5.5,20,11.1,8.2,32.1l-30.5,17.3l10.3,30.5l-7.3,4.2
				c0,0-7.3-13.5-16.7-2.6c-9.4,10.9,8.5,23.8,16.3,20l-19.7,24.3l0,0L165.3,844.7z"/>
		</g>
		<path display="inline" fill="#2F3543" d="M237.7,942.2l-15.6-5.8l4.4,14.2c0,0-3.4,70-60.3,123.6l-0.4,15.5l17.1-1.7
			c0,0,52.2-39.2,51.2-136.3L237.7,942.2z"/>
		<polygon display="inline" fill="#DADBDD" points="275.2,923.8 248.4,967.5 229.1,935 		"/>
		<polygon display="inline" fill="#DADBDD" points="185.7,923.8 212.4,967.5 231.8,935 		"/>
		<path display="inline" fill="#192D4E" d="M169.5,850.1c-0.6-0.2-1.2-0.5-1.9-0.7c3.3-5.7,17.3-27.7,45-47.8
			c32.1-23.3,64.4-25.2,64.4-25.2l-15.8,13.3c0,0-0.2,2.6,13.9,2.2c14.1-0.4,29.4-7.9,29.4-7.9s-3.6,33.3-54.1,61
			c-29.9,16.4-54.1,17.4-63,17.1C182.5,856.9,176.3,852.7,169.5,850.1z"/>
		<path display="inline" fill="#192D4E" d="M256.9,850.8c0,0,0.5,11.1-15.4,10.7C241.5,861.5,260.4,865.2,256.9,850.8z"/>
		<path display="inline" fill="#192D4E" d="M276.2,882.5c0,0-17.2,6.9-27.2,1.6c0,0,10.7,9.5,28.6,2.3L276.2,882.5z"/>
	</g>
</g>
</svg>
