<?xml version="1.0" encoding="utf-8"?>
<!-- Generator: Adobe Illustrator 22.0.1, SVG Export Plug-In . SVG Version: 6.00 Build 0)  -->
<svg version="1.1" id="Layer_1" xmlns="http://www.w3.org/2000/svg" xmlns:xlink="http://www.w3.org/1999/xlink" x="0px" y="0px"
	 viewBox="0 0 1200 1000" style="enable-background:new 0 0 1200 1000;" xml:space="preserve">
<g>
	
		<image style="overflow:visible;" width="227" height="1161" xlink:href="rocket.png"  transform="matrix(2.609899e-03 -0.3325 0.3325 2.609899e-03 238.5933 190.4119)">
	</image>
	
		<image style="display:none;overflow:visible;" width="227" height="1161" xlink:href="rocket.png"  transform="matrix(4.470900e-03 -0.5695 0.5364 4.210765e-03 209.863 370.1363)">
	</image>
	
		<image style="display:none;overflow:visible;" width="227" height="1161" xlink:href="rocket.png"  transform="matrix(4.470900e-03 -0.5695 0.5364 4.210765e-03 233.863 603.1363)">
	</image>
	
		<image style="display:none;overflow:visible;" width="227" height="1161" xlink:href="rocket.png"  transform="matrix(6.431983e-03 -0.8193 0.5364 4.210700e-03 251.5933 801.0801)">
	</image>
	
		<image style="display:none;overflow:visible;" width="227" height="1161" xlink:href="rocket.png"  transform="matrix(3.320619e-03 -0.423 0.3984 3.127412e-03 351.3457 620.8744)">
	</image>
	
		<image style="display:none;overflow:visible;" width="227" height="1161" xlink:href="rocket.png"  transform="matrix(3.320619e-03 -0.423 0.3984 3.127412e-03 358.3457 551.7254)">
	</image>
</g>
</svg>
