<?xml version="1.0" encoding="utf-8"?>
<!-- Generator: Adobe Illustrator 22.0.1, SVG Export Plug-In . SVG Version: 6.00 Build 0)  -->
<svg version="1.1" xmlns="http://www.w3.org/2000/svg" xmlns:xlink="http://www.w3.org/1999/xlink" x="0px" y="0px"
	 viewBox="0 0 1681.8 683.8" enable-background="new 0 0 1681.8 683.8" xml:space="preserve">
<g id="Grid" display="none">
</g>
<g id="Layer_1" display="none">
</g>
<g id="Desktop" display="none">
</g>
<g id="Guides" display="none">
</g>
<g id="Page_1" display="none">
</g>
<g id="Layer_1_1_">
	
		<linearGradient id="SVGID_1_" gradientUnits="userSpaceOnUse" x1="927.2736" y1="579.6805" x2="927.2736" y2="1523.4484" gradientTransform="matrix(0.5774 0 0 0.557 -114.463 -288.0832)">
		<stop  offset="0" style="stop-color:#0079E3"/>
		<stop  offset="0.18" style="stop-color:#03A4E3"/>
		<stop  offset="0.83" style="stop-color:#EBF7FC"/>
		<stop  offset="1" style="stop-color:#FFFFFF"/>
	</linearGradient>
	<path display="none" fill-rule="evenodd" clip-rule="evenodd" fill="url(#SVGID_1_)" d="M45.3,34.8h751.3
		c14.4,0,26.2,11.5,26.2,25.5V535c0,14-11.8,25.5-26.2,25.5H45.3c-14.4,0-26.2-11.5-26.2-25.5V60.3C19.1,46.3,30.9,34.8,45.3,34.8
		L45.3,34.8z"/>
	
		<linearGradient id="SVGID_2_" gradientUnits="userSpaceOnUse" x1="467.2669" y1="273.1219" x2="467.2669" y2="1221.4852" gradientTransform="matrix(0.5774 0 0 0.5543 151.1449 -116.5927)">
		<stop  offset="0" style="stop-color:#0079E3"/>
		<stop  offset="6.000000e-02" style="stop-color:#03A4E3"/>
		<stop  offset="0.83" style="stop-color:#EBF7FC"/>
		<stop  offset="1" style="stop-color:#FFFFFF"/>
	</linearGradient>
	<path display="none" fill-rule="evenodd" clip-rule="evenodd" fill="url(#SVGID_2_)" d="M310.9,204.8l19.2,355.7h-38.4L310.9,204.8
		l19.9-170h18.7L310.9,204.8L310.9,204.8z M45.3,34.8h0.6l265,170L19.1,87.5V62.7l291.8,142.1l463.9,297.6l15.2-15.3l15.2-15.3
		L310.9,204.8L19.1,322v24.8l291.8-142L19.1,122.7v-21.8l291.8,103.9l-69.3-170h19.7l49.6,170L822.8,387v-38.2l-511.9-144l349.2-170
		H734l-423,170L19.1,184.7v-18.9l291.8,39l510.6,248.5l1.3-1.7v-41.1L310.9,204.8l511.9,68.4V240l-511.9-35.3L19.1,411v37.2
		l291.8-243.4l-291.8,39v-18.9l291.8-20.1l293.7,355.7h-51.3L310.9,204.8l511.9-35.3v-33.2l-511.9,68.4l203.8-170h36.8l-240.6,170
		L19.1,308.7v-21.8l291.8-82.1L19.1,154.6v-19.9l291.8,70.1l511.9-144v-0.5c0-14-11.8-25.5-26.2-25.5h-8.1l-477.5,170L25,551.1
		c4.8,5.7,12.1,9.4,20.3,9.4h23.2l242.5-355.7L19.1,392v-29.6l291.8-157.6l103.8,355.7h41.2l-145-355.7l314.7-170h-49.7l-265,170
		l115.9-170h24.5l-140.4,170L19.1,523.3V473l291.8-268.2l511.9,123v-34.9l-511.9-88l184.9-170h-29.2l-155.7,170L166,560.5h41.2
		l103.8-355.7L141.2,560.5h-45l214.8-355.7l-203.8-170H70.4l240.6,170l102.6-170h-21.5l-81.1,170l-41.6,355.7h-39.1l80.6-355.7
		l69.3-170h-19.7l-49.6,170l-291.8-9.3v18.6l291.8-9.3l-38.5-170h18.7l19.9,170l-9.2-170h18.4l-9.2,170l41.6,355.7h39.1l-80.6-355.7
		l511.9-16.3v32.6l-511.9-16.3l-102.6-170h21.5l81.1,170l409.4,341.5l17.7-13.6l17.7-13.6L310.9,204.8l169.8,355.7h45L310.9,204.8
		L19.1,255v19.9l291.8-70.1L126,34.8h29.2l155.7,170l-115.9-170h-24.5l140.4,170l325.9,355.7h61.1l-387-355.7l511.9-123v34.9
		l-511.9,88L22,48.7C26.3,40.5,35.2,34.8,45.3,34.8L45.3,34.8z"/>
	<path display="none" fill-rule="evenodd" clip-rule="evenodd" fill="#FFFFFF" d="M512.8,119.5c5.6-21.2-29-49.3-66.8-57.2
		c-37.8-7.9-79.7,36.4-79.7,83.9l-4.5,2.6c0-1.6-5.8-6.2-17.3-11.1c-25.6-10.9-79.4,11.1-86.8,55.1l-3.6,11.1
		c-5.2-7.7-22.9,0.1-12.8,18.8c-25.7,0-52.4,2.3-34.2,36.2l-7.1-5.3c-10.3-7.7-22.5-6.5-34.4-2.4c-5.4,1.9-10.8,4.3-15.9,6.8
		c-16.6,9.3-21.7,31.4-18.9,52.1c1.4,10.8,5.1,21.3,10.3,29.3c9.3,14.3,19.5,21.6,29.7,27.4c17,9.7,8.9,20.9,33.1,20.9
		c-0.2-0.4,14.4,12.6,35.5-5.5c8.6,0,17.8-2.8,26.6-7c12.4-6,23.9-15,31.7-23.3c0,9.4,50.7,68.5,77.3-1c1.5,3.1,51.9,68.3,79.3,59.5
		c18.3,2.8,46-3.1,68.4-13.6c20.2,26.7,81.1,26.6,118.9,13.1c36.3-13,91.3-39.4,49.4-88.4c20.7,4.8,29.6-12.4,26.6-15.5
		c23.4,32.8,55.7,26.5,47.8,2.7c15.5-8.9-1.6-27.1-0.9-36.1c33,6.9,31.9-17.5,18.8-22c9.7-58.6-22.5-80.3-64.2-67.2
		c4.9-5.3,9.8-15.4,6-28.3c-3.8-12.9-10.2-37.7-26.9-44.6c-18-7.5-42.3-7.2-50.3,8.5c-2.4-5.9-14.5-15.4-22.8-18.7
		c-16.4-6.4-46.2,14.4-54.7,43.8c-1.5,0-3,0-3,1.6v-3.1C554.7,116.5,541.2,107,512.8,119.5L512.8,119.5z"/>
	
		<radialGradient id="SVGID_3_" cx="257.9131" cy="570.5362" r="59.6074" gradientTransform="matrix(0.5774 0 0 0.5774 -101.7365 95.002)" gradientUnits="userSpaceOnUse">
		<stop  offset="0" style="stop-color:#0CAB0C"/>
		<stop  offset="1" style="stop-color:#43700B"/>
	</radialGradient>
	<path display="none" fill-rule="evenodd" clip-rule="evenodd" fill="url(#SVGID_3_)" d="M47.7,420.7c-4.7,0-9.3,0.8-14.1,8.7
		c-0.9,1.6-0.9,4-0.9,3.2c6.1-6.1,10.1-6.9,16-6.9c4.4,0.6,9.7,12.9,10.1,12.9l0.4,0.8c-0.4,0-1.7-0.8-1.7-0.8
		c-1.1-0.5-8.2-4-10.9-1.3c-5.5,3.2-4.3,9-4.3,11.8c4.6-9.2,5.2-3.4,10.6-3.4c-2.3,0-5.2,5-3.4,6.3c-0.6-2.6,3.2-3,5.5-3l0.4,0.4
		v1.3c0,0,0.4,0.4,0.4,0.8v0.4v0.4v0.4c0,3.4-2.5,5-5.5,3.8c2.3,3,9.7,2.6,11.9,0.4l0.8-0.8c0.4-0.4,0.8-1.3,0.8-1.7l0.8-0.8
		c0-0.8,0.8-1.7,0.8-2.1c0-0.4,0-2.1,0-2.5c0-0.4,0-1.3,0-1.7c0-0.8,0-2.5,0-3.4v-1.7v-0.8l-0.8-1.3v-0.4c-0.4-1.3-0.8-0.8-0.8-2.1
		c-0.4-0.4-0.8-1.3-0.8-1.7c0-0.4-1.2-10.7-1.2-10.7C58.6,421.9,53,420.7,47.7,420.7L47.7,420.7z"/>
	
		<linearGradient id="SVGID_4_" gradientUnits="userSpaceOnUse" x1="875.2207" y1="711.7299" x2="913.2924" y2="532.6166" gradientTransform="matrix(0.3041 0 0 0.3041 -164.4852 -25.5946)">
		<stop  offset="8.000000e-02" style="stop-color:#BAF4FF"/>
		<stop  offset="0.3992" style="stop-color:#CAF6FF"/>
		<stop  offset="0.5672" style="stop-color:#F7FDFF"/>
		<stop  offset="0.92" style="stop-color:#FFFFFF"/>
	</linearGradient>
	<path fill-rule="evenodd" clip-rule="evenodd" fill="url(#SVGID_4_)" d="M85.4,137.6c-7.4,0.7-10,4.8-7.6,16.4
		c-4,0.2-3.2,3-6.9,3.1c-22.4,0.3-18,15.2,0.7,18.9c1.7,3.4,5.8,6.7,9.2,8.5c23.3,12.7,42.6,2.5,54.6-13.7c9,5.1,13,1,20.4-2.1
		c4.3-1.8,4.8-11.3-1.3-16.3c-8.6-7.1-26.8-15.2-34.1-0.4c8.2-17.3-17-21.3-28.3-4.5C93,142.4,94.7,136.7,85.4,137.6L85.4,137.6z"/>
	
		<linearGradient id="SVGID_5_" gradientUnits="userSpaceOnUse" x1="1001.7103" y1="399.3894" x2="1039.782" y2="220.2761" gradientTransform="matrix(0.3041 0 0 0.3041 -164.4852 -25.5946)">
		<stop  offset="8.000000e-02" style="stop-color:#BAF4FF"/>
		<stop  offset="0.3992" style="stop-color:#CAF6FF"/>
		<stop  offset="0.5672" style="stop-color:#F7FDFF"/>
		<stop  offset="0.92" style="stop-color:#FFFFFF"/>
	</linearGradient>
	<path fill-rule="evenodd" clip-rule="evenodd" fill="url(#SVGID_5_)" d="M123.9,42.6c-7.4,0.7-10,4.8-7.6,16.4
		c-4,0.2-3.2,3-6.9,3.1c-22.4,0.3-18,15.2,0.7,18.9c1.7,3.4,5.8,6.7,9.2,8.5c23.3,12.7,42.6,2.5,54.6-13.7c9,5.1,13,1,20.4-2.1
		c4.3-1.8,4.8-11.3-1.3-16.3c-8.6-7.1-26.8-15.2-34.1-0.4c8.2-17.3-17-21.3-28.3-4.5C131.5,47.5,133.2,41.7,123.9,42.6L123.9,42.6z"
		/>
	
		<linearGradient id="SVGID_6_" gradientUnits="userSpaceOnUse" x1="-32.2629" y1="993.1631" x2="104.8659" y2="348.0228" gradientTransform="matrix(0.5385 0 0 0.5747 320.6984 -208.3046)">
		<stop  offset="8.000000e-02" style="stop-color:#BAF4FF"/>
		<stop  offset="0.3992" style="stop-color:#CAF6FF"/>
		<stop  offset="0.5672" style="stop-color:#F7FDFF"/>
		<stop  offset="0.92" style="stop-color:#FFFFFF"/>
	</linearGradient>
	<path display="none" fill-rule="evenodd" clip-rule="evenodd" fill="url(#SVGID_6_)" d="M398,66.1C403.6,45,397.2,8.6,360,0.8
		c-37.2-7.9-120.3,44.6-120.3,91.8l-4.5,2.6c0-1.6-5.7-6.1-17.1-11c-25.2-10.9-78.3,11-85.6,54.8l-3.5,11
		c-5.1-7.7-22.5,0.1-12.6,18.7c-17.2,4.9-41.2,8.7-33.7,36L71,202.1c-14.4-3.3-10.9,6.4-24.6,12.2c-3.2,1.3-16.2-3.5-19.2-2.1
		c-12.5,7-19.6,13.8-20.7,30.1c-1.1,16.3,15.7,28.5,23.2,40.1c9.2,14.2,7.2,24,17.2,29.7c16.8,9.6,34,14.6,57.8,14.6
		c0-3.1,5.9,0,5.9,0c20.5,0,34.2-25.9,47.4-40c0,9.4,62.9,58.7,90.1,9.6c1.5,3.1,59.1,58.5,86.1,49.7c17.4,2.7,45.6-5.2,55.3-11.3
		c31.3-19.7,81.5,13.6,115.8,14.4c37.7,0.9,95.5-33.4,54.2-82.1c20.4,4.7,29.2-12.3,26.2-15.4c23,32.7,54.9,26.4,47.1,2.7
		c15.3-8.8-11.5-31.2-10.8-40.2c32.5,6.9,41.4-13.2,28.5-17.7c9.6-58.3-22.2-79.9-63.3-66.9c4.8-5.2,9.6-15.3,5.9-28.2
		c-3.8-12.8-10-37.5-26.6-44.4c-17.8-7.4-41.7-7.2-49.6,8.5c-2.3-5.9-14.3-15.4-22.5-18.6c-16.1-6.4-45.5,14.3-53.9,43.6
		c-1.5,0-2.9,0-2.9,1.6V89C425.4,63.1,426.1,53.6,398,66.1L398,66.1z"/>
	<path display="none" fill-rule="evenodd" clip-rule="evenodd" fill="#4F8C0D" d="M213.7,430.2c4.2-28.4,12.5-55.5,29.7-78.8
		c1.6-2.2,20.2-25.7,30-29.5c-16.1,12.1-28.2,28.2-36.4,45.2c-8,16.7-14.8,37.9-14.8,56.5v0.3c0,2.9,2.4-9,3.5-11.9
		c9-24.4,19.5-31.3,35.7-51.3c11.8-14.6,12.6-19.3,16.1-22.8c0,0-0.5,0.5-0.5,0.8c-8,15.9-17.8,32.1-25.7,48
		c-5.8,11.7-17.5,30.5-17.5,44.3c-0.3-0.3,0.7-2.9,1.1-3.7c8.5-21,25.5-34.8,28.9-57.8c2.4,10.9-7.5,24-8.4,35.2
		c-0.7,9-4.8,19.9-4.8,28.4C235.8,433.1,227.2,431.6,213.7,430.2L213.7,430.2z"/>
	
		<radialGradient id="SVGID_7_" cx="677.7253" cy="541.4855" r="420.7806" gradientTransform="matrix(0.5948 0 0 0.5774 -5.5973 79.7374)" gradientUnits="userSpaceOnUse">
		<stop  offset="0" style="stop-color:#0CAB0C"/>
		<stop  offset="1" style="stop-color:#43700B"/>
	</radialGradient>
	<path display="none" fill-rule="evenodd" clip-rule="evenodd" fill="url(#SVGID_7_)" d="M147.4,415.3h0.6c4.9-10.1,6.5-25.3,3-41.2
		c-0.6-2.8,0.4-13.8,0.6-14.3c-1.3,7.1,2.2,20.9,4.2,34.2c1.3,8.2,1.7,16.4,1.9,21.3h0.7c0-1.2,0.1-2.2,0.1-2.4
		c1.2-5.6,5.2-14.6,5.2-20.2c2.3,2.2,1.2,16.9,1.2,21.3v0.6c-1.2-2.2,1.7-10.1,3.5-11.2v9c0,0.9,0.2,1.9,0.3,3h1.4
		c0.8-2.2,1.7-5.1,1.7-5.8c1.2-6.7,1.2-13.5,1.2-20.2c0-10.7,0.6-20.2,4.6-29.8c1.7-5.1,5.2-11.8,8.1-16.3
		c-10.7,20.6-14,33.7-7.9,54.4c1.6,5.4,5,10.8,5,16.4c0-3.9,2.1-9,2.3-12.9c0.3-5.6-3.1-20.7-0.6-23.6c-1.1,3.1,3.5,11.4,3.5,15.2
		c0.6,4.5,1.2,10.7,1.2,15.2c0,1.7-1.2,5.1-1.2,6.7c0,0.6,0.6-4.5,0.6-5.1c2.9-14,4.1-29.8-0.6-43.8c-7.6-22.8,0.7-4,2.9,5.6
		c0.7,2.8,1.6,5.8,2.7,8.9c-0.1-4.2,0.6-11.5,0.8-12c-0.8,4.3,0.2,11,1.5,18.6c1.5,4.6,2.8,9.3,3.1,13.7c0,3.9,1.2,9,1.2,13.5
		c0,0.3-0.1,0.6-0.2,1.1c0,0.1,0,0.1,0,0.2h3c1.6-4.9,3.5-10.3,3.5-14.2c1.5,1.5,1.5,8.4,1.4,14.2h1.1c0.7-1.7,1.5-3.1,2.2-3.5v3.5
		h3.9c0.8-5.9,0.8-11.7,0.8-17.6c0-10.7,0.6-20.2,4.6-29.8c1.7-5.1,5.2-11.8,8.1-16.3c-10.7,20.6-14,33.7-7.9,54.4
		c0.9,3.1,2.4,6.2,3.5,9.3h2.7c0.3-1.1,0.5-2.2,0.7-3.3c-0.8-1-1.6-2-2.6-2.6c0.8,0,1.8,0.4,2.8,1.1c0-0.3,0.1-0.6,0.1-1
		c0.3-5.6-3.1-20.7-0.6-23.6c-1.1,3.1,3.5,11.4,3.5,15.2c0.5,3.8,1,8.7,1.1,12.8c0.1,0.1,0.1,0.1,0.2,0.2c1-5.7,1.7-11.6,1.8-17.6
		c-1.5-2.4-3.4-5-5.4-8.5c1.7,2.2,3.6,4.5,5.4,6.8c0-7.1-0.9-14.1-3.1-20.7c-7.6-22.8,0.7-4,2.9,5.6c1.9,8.4,6.8,18.2,7.9,27.3
		c1.1,2.8,2.3,5.5,3.1,8.3h1c0.1-2.2,0.1-4.4-0.2-6.5c0-1.9-2.4-6-2.4-7.5c0,1.1,4.1,6,4.9,7.5c0.7,2.1,1.7,4.3,2.4,6.5h2.1
		c0.4-2.8,0.9-5.8,0.9-8.4c0-4.7-2-10.7-2.4-15.4c-0.1-1-0.7-14.1-0.5-13.2l0.3,1.3c2.1,9.4,5.5,17.9,7,27.3
		c0.4,2.5,0.2,5.7,0.6,8.4h0.3c0-5.9,0.1-11.9,0.5-17.5c0-4.2,1.7-15.1,2.4-15.1c0,3.5-1,7.9-1,11.3c0,3.5,1,7.9,1.5,11.3
		c0.4,3.2,2.3,6.7,3.1,10h1.3c0-2.4,0-5.1,0.5-7.5c1-3.1,0.5-2.8,0.5-2.2v7.9c0,0.5,0.2,1.1,0.4,1.8h3.3c0.5-1.4,1-2.7,1.2-3.1
		c8.2-17.4,3.4-19.3,6.8-23.7c-1.5,3.8,4.2,15.2,3.9,19c-0.2,2.2-0.5,4.7,0,6.9c0,0.3,0,0.6,0.1,0.9h1.6c0.3-1.9,0.9-3.8,1.2-5.6
		c0-1.3-0.5-3.1-0.5-4.4c1,2.2,1.5,6,2.4,8.5c0,0.5,0,1,0,1.5h0.1c0.4-2.9,2.9-5.8,2.9-8.7l0.5-0.6c0,2.2,0,4.7,0,6.9
		c0,0.8-0.1,1.6-0.2,2.4h8.3c-0.9-1-1.8-2-2-3c-0.8-2.4-2.9-7.2-5.9-9.1c3.8,0,11.7,9.1,11.7,11.6c0.4,0,0.5,0.2,0.5,0.4h0.6
		c0.9-2.5,1.4-5.2,1.4-7.7c0-12.1-4.3-15.1-10.6-25.8c4.7,6,10.5,12.4,13.1,18.9c1.9,4.7,3.9,9.1,3.9,13.8v0.8c0,0,0-0.1,0-0.1
		c0-4.1,0.5-8.5,0-12.6c0-1.9-2.4-6-2.4-7.5c0,1.1,4.1,6,4.9,7.5c1,2.8,2.4,6,2.9,8.8c0.3,1.3,0.7,3.3,0.9,3.9h0.1c0,0,0-0.1,0-0.1
		v-0.6c0-4.1,1.5-9.4,1.5-13.8c0-4.7-2-10.7-2.4-15.4c-0.1-1-0.7-14.1-0.5-13.2l0.3,1.3c2.1,9.4,5.5,17.9,7,27.3
		c0.6,3.5,0,8.2,1.5,11.3v1.3c0,0.3-0.5-1.6-0.5-1.9c0-6.6,0.2-13.5,0.5-19.8c0.2-4.2-4.9-12.5-4.1-12.5c2.6,5.1,5.5,8.8,5.5,12.3
		c0,3.5,1.1,4.3,1.6,7.8c0.5,3.8,2.9,7.9,3.4,11.6c0,0.6,1.5,2.8,1.5,3.1c-0.5-0.3-0.5-3.5-0.5-4.4c0-2.5,0-5.3,0.5-7.9
		c1-3.1,0.5-2.8,0.5-2.2v7.9c0,1.6,1.5,4.1,1.5,5.7l0.5,0.3c0.5-0.3,2.4-6.3,2.9-7.2c2.9-6.3,7.8-12.9,11.7-18.9
		c4.9-7.9,12.2-15.4,21.5-21.4l-4.7,4.1c-2.9,4.1-4.7,4.4-7.5,8.8c-2.1,3.4-5.4,7.2-6.3,10.7c-1.5,3.8-3.4,8.2-3.9,11.9
		c0,2.2-0.5,4.7,0,6.9c0,1.6,1,3.1,1,4.7c0.5-0.3,0.5-0.9,0.5-1.6c0-2.5,1-5.3,1.5-7.9c0-1.3-0.5-3.1-0.5-4.4c1,2.2,1.5,6,2.4,8.5
		c0,1.3,0,2.8-0.5,3.8c0-0.6,0.5-0.9,0.5-1.6c0-3.1,2.9-6.3,2.9-9.4l0.5-0.6c0,2.2,0,4.7,0,6.9c0,1.6-0.5,3.5-0.5,5
		c0,0.2,0.1,2,0.3,3.6h34.1c-1-2.3-2.9-5.5-5.4-6.9c2.6,0,7.1,3.8,9.7,6.9h4.2c0.2-1,0.3-2,0.3-3c0-10.8-4.3-13.5-10.6-23
		c4.7,5.4,10.5,11.1,13.1,16.9c1.4,3.1,2.9,6.1,3.5,9.2h0.5c0.1-2.5,0.2-5-0.1-7.5c0-1.7-2.4-5.3-2.4-6.7c0,1,4.1,5.4,4.9,6.7
		c0.9,2.4,2.3,5,2.8,7.5h1.3c0.4-3,1.2-6.3,1.2-9.2c0-4.2-2-9.5-2.4-13.8c-0.1-0.9-0.7-12.6-0.5-11.8l0.3,1.2c2.1,8.4,5.5,16,7,24.4
		c0.5,2.8,0.1,6.4,1.1,9.2h-0.1c0-5.8,0-11.8,0.5-17.3c0-3.8,1.7-13.5,2.4-13.5c0,3.1-1,7-1,10.1c0,3.1,1,7,1.5,10.1
		c0.5,3.4,2.9,7,3.4,10.4c0,0,0,0.1,0,0.2h1c0-0.5,0-1,0-1.3c0-2.2,0-4.8,0.5-7c1-2.8,0.5-2.5,0.5-2v7c0,0.9,0.6,2.1,1,3.3h2
		c0.7-1.7,1.6-3.9,1.9-4.4c2.9-5.6,7.8-11.5,11.7-16.9c0.5-0.7,1-1.4,1.6-2.2c-0.8-1.1-1.6-2.2-2.4-3.5c0.9,1,1.8,2,2.7,3.1
		c4.8-6.1,11.4-11.9,19.6-16.5l-4.7,3.6c-2.9,3.7-4.7,3.9-7.5,7.9c-1.6,2.3-3.9,4.9-5.3,7.3c3.3,3.7,6.6,7.6,8.3,11.5
		c1.5,3.4,3.1,6.7,3.7,10h0.3c0.1-2.8,0.3-5.6-0.1-8.3c0-1.7-2.4-5.3-2.4-6.7c0,1,4.1,5.4,4.9,6.7c1,2.5,2.4,5.3,2.9,7.9
		c0,0.1,0.1,0.3,0.1,0.4h1c0.4-3.2,1.3-6.9,1.3-10c0-4.2-2-9.5-2.4-13.8c-0.1-0.9-0.7-12.6-0.5-11.8l0.3,1.2c2.1,8.4,5.5,16,7,24.4
		c0.6,3,0,7.2,1.4,10h-0.3c0-0.2-0.1-0.4-0.1-0.4c0-5.9,0-12.1,0.5-17.7c0-3.8,1.7-13.5,2.4-13.5c0,3.1-1,7-1,10.1
		c0,3.1,1,7,1.5,10.1c0.5,3.4,2.9,7,3.4,10.4c0,0.2,0.2,0.6,0.4,1h0.6c-0.1-0.8-0.1-1.7-0.1-2.1c0-2.2,0-4.8,0.5-7
		c1-2.8,0.5-2.5,0.5-2v7c0,1.1,0.9,2.8,1.3,4.1h1.3c0.8-1.7,1.9-4.6,2.2-5.2c2.9-5.6,7.8-11.5,11.7-16.9c4.9-7,12.2-13.8,21.5-19.1
		l-4.7,3.6c-2.9,3.7-4.7,3.9-7.5,7.9c-2.1,3.1-5.4,6.5-6.3,9.5c-1.5,3.4-3.4,7.3-3.9,10.7c0,2-0.5,4.2,0,6.2c0,1.1,0.6,2.2,0.8,3.3
		h0.6c0-0.1,0-0.3,0-0.4c0-2.2,1-4.8,1.5-7c0-1.1-0.5-2.8-0.5-3.9c1,2,1.5,5.3,2.4,7.6c0,1.1,0,2.5-0.5,3.4c0-0.6,0.5-0.8,0.5-1.4
		c0-2.8,2.9-5.6,2.9-8.4l0.5-0.6c0,2,0,4.2,0,6.2c0,1.4-0.5,3.1-0.5,4.5c0,0,0,0.1,0,0.2h7.2c-1-2.3-2.9-5.5-5.4-6.9
		c2.6,0,7.1,3.8,9.7,6.9h4.2c0.2-1,0.3-2,0.3-3c0-10.8-4.3-13.5-10.6-23c4.7,5.4,10.5,11.1,13.1,16.9c1.4,3.1,2.9,6.1,3.5,9.2h0.5
		c0.1-2.5,0.2-5-0.1-7.5c0-1.7-2.4-5.3-2.4-6.7c0,1,4.1,5.4,4.9,6.7c0.9,2.4,2.3,5,2.8,7.5h1.3c0.4-3,1.2-6.3,1.2-9.2
		c0-4.2-2-9.5-2.4-13.8c-0.1-0.9-0.7-12.6-0.5-11.8l0.3,1.2c2.1,8.4,5.5,16,7,24.4c0.5,2.8,0.1,6.4,1.1,9.2h-0.1
		c0-5.8,0-11.8,0.5-17.3c0-3.8,1.7-13.5,2.4-13.5c0,3.1-1,7-1,10.1c0,3.1,1,7,1.5,10.1c0.5,3.4,2.9,7,3.4,10.4c0,0,0,0.1,0,0.2h1
		c0-0.5,0-1,0-1.3c0-2.2,0-4.8,0.5-7c1-2.8,0.5-2.5,0.5-2v7c0,0.9,0.6,2.1,1,3.3h2c0.7-1.7,1.6-3.9,1.9-4.4
		c2.7-5.1,6.9-10.4,10.6-15.4c-1-1.4-2.1-2.8-3.2-4.6c1.2,1.3,2.4,2.7,3.6,4c0.2-0.3,0.5-0.6,0.7-0.9c4.9-7,12.2-13.8,21.5-19.1
		l-4.7,3.6c-2.9,3.7-4.7,3.9-7.5,7.9c-2.1,3.1-5.4,6.5-6.3,9.5c-0.3,0.7-0.6,1.4-0.9,2.1c2.8,3.2,5.3,6.5,6.8,9.7
		c1.1,2.6,2.3,5,3.1,7.5h1c0.1-2,0.1-3.9-0.2-5.8c0-1.7-2.4-5.3-2.4-6.7c0,1,4.1,5.4,4.9,6.7c0.7,1.8,1.7,3.8,2.4,5.8h2.1
		c0.4-2.5,0.9-5.1,0.9-7.5c0-4.2-2-9.5-2.4-13.8c-0.1-0.9-0.7-12.6-0.5-11.8l0.3,1.2c2.1,8.4,5.5,16,7,24.4c0.4,2.2,0.2,5,0.6,7.5
		h0.3c0-5.3,0.1-10.7,0.5-15.6c0-3.8,1.7-13.5,2.4-13.5c0,3.1-1,7-1,10.1c0,3.1,1,7,1.5,10.1c0.4,2.9,2.2,5.9,3.1,8.9h1.3
		c0-2.1,0-4.5,0.5-6.6c1-2.8,0.5-2.5,0.5-2v7c0,0.5,0.2,1,0.4,1.6h3.4c0.5-1.2,1-2.3,1.2-2.7c2.9-5.6,7.8-11.5,11.7-16.9
		c4.9-7,12.2-13.8,21.5-19.1l-4.7,3.6c-2.9,3.7-4.7,3.9-7.5,7.9c-2.1,3.1-5.4,6.5-6.3,9.5c-1.5,3.4-3.4,7.3-3.9,10.7
		c0,2-0.5,4.2,0,6.2c0,0.2,0,0.5,0.1,0.7h1.6c0.3-1.7,0.9-3.4,1.2-4.9c0-1.1-0.5-2.8-0.5-3.9c1,2,1.5,5.3,2.4,7.6c0,0.4,0,0.8,0,1.3
		h0.1c0.4-2.6,2.9-5.2,2.9-7.7l0.5-0.6c0,2,0,4.2,0,6.2c0,0.7-0.1,1.4-0.2,2.1h21.5v26.3H147.4V415.3L147.4,415.3z M569.4,399.1
		c-1.1,2.5-2.2,5.2-2.5,7.6c0,2-0.5,4.2,0,6.2c0,0.4,0.1,0.9,0.2,1.3c0.4,0.4,0.8,0.7,1.1,1.1h0.1c0.1-2.1,1-4.5,1.5-6.6
		c0-1.1-0.5-2.8-0.5-3.9c1,2,1.5,5.3,2.4,7.6c0,1,0,2.1-0.3,3h-0.1c0.1-0.3,0.4-0.6,0.4-1c0-1.8,1.2-3.6,2-5.3
		C573.1,404.9,571.6,402.2,569.4,399.1L569.4,399.1z M449,394.5c-0.2,0.5-0.5,1-0.6,1.5c-1.5,3.4-3.4,7.3-3.9,10.7
		c0,0.7-0.1,1.3-0.1,2c0.8,0.5,1.7,1.1,2.5,1.8c0.2-0.7,0.4-1.3,0.5-1.9c0-1.1-0.5-2.8-0.5-3.9c1,2,1.5,5.3,2.4,7.6
		c0,0.2,0,0.3,0,0.5c0.1,0.1,0.1,0.1,0.2,0.2c0.6-2.4,2.7-4.8,2.7-7.2l0.5-0.6c0,2,0,4.2,0,6.2c0,1.2-0.3,2.6-0.5,3.8h2.5
		c0.3-1.3,0.4-2.6,0.4-3.8C455.3,403.3,452.9,399.8,449,394.5L449,394.5z M444.3,410.5c0,0.8,0,1.6,0.2,2.3c0,0.8,0.3,1.6,0.6,2.4
		h0.9c0-0.5,0.1-1,0.2-1.6C445.6,412.7,445,411.6,444.3,410.5L444.3,410.5z"/>
	
		<linearGradient id="SVGID_8_" gradientUnits="userSpaceOnUse" x1="429.3568" y1="618.0058" x2="440.3912" y2="566.0933" gradientTransform="matrix(0.4644 0 0 0.5008 -57.0724 -100.6519)">
		<stop  offset="7.000000e-02" style="stop-color:#BAF4FF"/>
		<stop  offset="0.3968" style="stop-color:#CAF6FF"/>
		<stop  offset="0.5688" style="stop-color:#F7FDFF"/>
		<stop  offset="0.93" style="stop-color:#FFFFFF"/>
	</linearGradient>
	<path fill-rule="evenodd" clip-rule="evenodd" fill="url(#SVGID_8_)" d="M145.7,188.1c-4.2-3.8-14.9-6.9-18.4,4.5
		c-0.4,5.3,4.9,9.9,8.7,9.9c2.7,11.8,31.2,5.1,22.2-4.5c1.4-1.2,4.7-0.8,5.7-6.7C169,178,146.7,186.8,145.7,188.1L145.7,188.1z"/>
	
		<linearGradient id="SVGID_9_" gradientUnits="userSpaceOnUse" x1="278.7399" y1="376.5861" x2="255.7488" y2="815.2823" gradientTransform="matrix(0.5774 0 0 0.633 216.2279 -225.4172)">
		<stop  offset="4.000000e-02" style="stop-color:#E0FAFF"/>
		<stop  offset="0.27" style="stop-color:#CAF6FF"/>
		<stop  offset="0.6932" style="stop-color:#F7FDFF"/>
		<stop  offset="0.96" style="stop-color:#FFFFFF"/>
	</linearGradient>
	<path fill-rule="evenodd" clip-rule="evenodd" fill="url(#SVGID_9_)" d="M313.1,17.9c10.1,1.7,20.6,10.7,25,20.3
		c0.8,1.7,8.4,22.2,3.4,22.2c15.2,0,32,5.5,32,25.9c1.7-3.7,8.4-7.4,13.5-7.4c8.4,9.2,16.9,22.2,16.9,35.1c1.7,0,3.4,0,5.1,1.8
		c0,27.7,6.7-3.7,21.9-7.4c15.2-3.7,47.2-3.7,47.2,22.2v7.4c0,0,0-22.2,1.7-31.4c5.1-29.6,25.3-46.2,53.9-37
		c23.6,7.4,25.3,12.9,25.3,38.8c0-5.5,6.7-5.5,10.1-5.5c6.7,7.4,13.5,12.9,13.5,27.7c0,3.7-5.1,25.9-8.4,25.9c0-1.8,1.7-3.7,1.7-5.5
		c13.5-3.7,21.9,1.8,28.7,16.6c3.4,9.2,6.7,22.2,3.4,33.3c-8.4,27.7-48.9,25.9-59,3.7c0,12.9-5.1,24-6.7,37c0,7.4-6.7,20.3-11.8,24
		c-6.7,3.7-28.7,7.4-28.7-7.4c0,14.8-11.8,27.7-27,27.7c-11.8,0-28.7-3.7-38.8-11.1c-5.1-3.7-10.1-11.1-13.5-12.9
		c-5.1,0-11.8,7.4-16.9,7.4c-32,3.7-48.9-9.2-67.4-29.6c-18.5,20.3-47.2,33.3-72.5,33.3c-21.9,0-62.4-11.1-62.4-42.5
		c0,1.8,1.7,5.5,1.7,9.2c-30.3,33.3-80.9,12.9-77.5-35.1c1.7-35.1,33.7-66.5,64-66.5c0,1.8,1.7,1.8,0,1.8
		c0-31.4,45.5-57.3,67.4-33.3v3.7c1.7,0,1.7,0,0,0c0-9.2,1.7-22.2,1.7-29.6C260.6,70.5,267.2,10.2,313.1,17.9L313.1,17.9z"/>
	
		<linearGradient id="SVGID_10_" gradientUnits="userSpaceOnUse" x1="1244.6738" y1="376.5861" x2="1221.6827" y2="815.2823" gradientTransform="matrix(0.5774 0 0 0.633 216.2279 -225.4172)">
		<stop  offset="4.000000e-02" style="stop-color:#E0FAFF"/>
		<stop  offset="0.27" style="stop-color:#CAF6FF"/>
		<stop  offset="0.6932" style="stop-color:#F7FDFF"/>
		<stop  offset="0.96" style="stop-color:#FFFFFF"/>
	</linearGradient>
	<path fill-rule="evenodd" clip-rule="evenodd" fill="url(#SVGID_10_)" d="M870.9,17.9c10.1,1.7,20.6,10.7,25,20.3
		c0.8,1.7,8.4,22.2,3.4,22.2c15.2,0,32,5.5,32,25.9c1.7-3.7,8.4-7.4,13.5-7.4c8.4,9.2,16.9,22.2,16.9,35.1c1.7,0,3.4,0,5.1,1.8
		c0,27.7,6.7-3.7,21.9-7.4c15.2-3.7,47.2-3.7,47.2,22.2v7.4c0,0,0-22.2,1.7-31.4c5.1-29.6,25.3-46.2,53.9-37
		c23.6,7.4,25.3,12.9,25.3,38.8c0-5.5,6.7-5.5,10.1-5.5c6.7,7.4,13.5,12.9,13.5,27.7c0,3.7-5.1,25.9-8.4,25.9c0-1.8,1.7-3.7,1.7-5.5
		c13.5-3.7,21.9,1.8,28.7,16.6c3.4,9.2,6.7,22.2,3.4,33.3c-8.4,27.7-48.9,25.9-59,3.7c0,12.9-5.1,24-6.7,37c0,7.4-6.7,20.3-11.8,24
		c-6.7,3.7-28.7,7.4-28.7-7.4c0,14.8-11.8,27.7-27,27.7c-11.8,0-28.7-3.7-38.8-11.1c-5.1-3.7-10.1-11.1-13.5-12.9
		c-5.1,0-11.8,7.4-16.9,7.4c-32,3.7-48.9-9.2-67.4-29.6c-18.5,20.3-47.2,33.3-72.5,33.3c-21.9,0-62.4-11.1-62.4-42.5
		c0,1.8,1.7,5.5,1.7,9.2c-30.3,33.3-80.9,12.9-77.5-35.1c1.7-35.1,33.7-66.5,64-66.5c0,1.8,1.7,1.8,0,1.8
		c0-31.4,45.5-57.3,67.4-33.3v3.7c1.7,0,1.7,0,0,0c0-9.2,1.7-22.2,1.7-29.6C818.3,70.5,824.9,10.2,870.9,17.9L870.9,17.9z"/>
	
		<linearGradient id="SVGID_11_" gradientUnits="userSpaceOnUse" x1="899.1767" y1="334.2523" x2="876.1856" y2="772.9485" gradientTransform="matrix(0.5774 0 0 0.633 216.2279 -225.4172)">
		<stop  offset="4.000000e-02" style="stop-color:#E0FAFF"/>
		<stop  offset="0.27" style="stop-color:#CAF6FF"/>
		<stop  offset="0.6932" style="stop-color:#F7FDFF"/>
		<stop  offset="0.96" style="stop-color:#FFFFFF"/>
	</linearGradient>
	<path fill-rule="evenodd" clip-rule="evenodd" fill="url(#SVGID_11_)" d="M671.4-8.9c10.1,1.7,20.6,10.7,25,20.3
		c0.8,1.7,8.4,22.2,3.4,22.2c15.2,0,32,5.5,32,25.9c1.7-3.7,8.4-7.4,13.5-7.4c8.4,9.2,16.9,22.2,16.9,35.1c1.7,0,3.4,0,5.1,1.8
		c0,27.7,6.7-3.7,21.9-7.4c15.2-3.7,47.2-3.7,47.2,22.2v7.4c0,0,0-22.2,1.7-31.4c5.1-29.6,25.3-46.2,53.9-37
		c23.6,7.4,25.3,12.9,25.3,38.8c0-5.5,6.7-5.5,10.1-5.5c6.7,7.4,13.5,12.9,13.5,27.7c0,3.7-5.1,25.9-8.4,25.9c0-1.8,1.7-3.7,1.7-5.5
		c13.5-3.7,21.9,1.8,28.7,16.6c3.4,9.2,6.7,22.2,3.4,33.3c-8.4,27.7-48.9,25.9-59,3.7c0,12.9-5.1,24-6.7,37c0,7.4-6.7,20.3-11.8,24
		c-6.7,3.7-28.7,7.4-28.7-7.4c0,14.8-11.8,27.7-27,27.7c-11.8,0-28.7-3.7-38.8-11.1c-5.1-3.7-10.1-11.1-13.5-12.9
		c-5.1,0-11.8,7.4-16.9,7.4c-32,3.7-48.9-9.2-67.4-29.6c-18.5,20.3-47.2,33.3-72.5,33.3c-21.9,0-62.4-11.1-62.4-42.5
		c0,1.8,1.7,5.5,1.7,9.2c-30.3,33.3-80.9,12.9-77.5-35.1c1.7-35.1,33.7-66.5,64-66.5c0,1.8,1.7,1.8,0,1.8
		c0-31.4,45.5-57.3,67.4-33.3v3.7c1.7,0,1.7,0,0,0c0-9.2,1.7-22.2,1.7-29.6C618.8,43.7,625.5-16.6,671.4-8.9L671.4-8.9z"/>
	
		<linearGradient id="SVGID_12_" gradientUnits="userSpaceOnUse" x1="1961.6453" y1="334.2523" x2="1938.6542" y2="772.9485" gradientTransform="matrix(0.5774 0 0 0.633 216.2279 -225.4172)">
		<stop  offset="4.000000e-02" style="stop-color:#E0FAFF"/>
		<stop  offset="0.27" style="stop-color:#CAF6FF"/>
		<stop  offset="0.6932" style="stop-color:#F7FDFF"/>
		<stop  offset="0.96" style="stop-color:#FFFFFF"/>
	</linearGradient>
	<path fill-rule="evenodd" clip-rule="evenodd" fill="url(#SVGID_12_)" d="M1284.8-8.9c10.1,1.7,20.6,10.7,25,20.3
		c0.8,1.7,8.4,22.2,3.4,22.2c15.2,0,32,5.5,32,25.9c1.7-3.7,8.4-7.4,13.5-7.4c8.4,9.2,16.9,22.2,16.9,35.1c1.7,0,3.4,0,5.1,1.8
		c0,27.7,6.7-3.7,21.9-7.4c15.2-3.7,47.2-3.7,47.2,22.2v7.4c0,0,0-22.2,1.7-31.4c5.1-29.6,25.3-46.2,53.9-37
		c23.6,7.4,25.3,12.9,25.3,38.8c0-5.5,6.7-5.5,10.1-5.5c6.7,7.4,13.5,12.9,13.5,27.7c0,3.7-5.1,25.9-8.4,25.9c0-1.8,1.7-3.7,1.7-5.5
		c13.5-3.7,21.9,1.8,28.7,16.6c3.4,9.2,6.7,22.2,3.4,33.3c-8.4,27.7-48.9,25.9-59,3.7c0,12.9-5.1,24-6.7,37c0,7.4-6.7,20.3-11.8,24
		c-6.7,3.7-28.7,7.4-28.7-7.4c0,14.8-11.8,27.7-27,27.7c-11.8,0-28.7-3.7-38.8-11.1c-5.1-3.7-10.1-11.1-13.5-12.9
		c-5.1,0-11.8,7.4-16.9,7.4c-32,3.7-48.9-9.2-67.4-29.6c-18.5,20.3-47.2,33.3-72.5,33.3c-21.9,0-62.4-11.1-62.4-42.5
		c0,1.8,1.7,5.5,1.7,9.2c-30.3,33.3-80.9,12.9-77.5-35.1c1.7-35.1,33.7-66.5,64-66.5c0,1.8,1.7,1.8,0,1.8
		c0-31.4,45.5-57.3,67.4-33.3v3.7c1.7,0,1.7,0,0,0c0-9.2,1.7-22.2,1.7-29.6C1232.3,43.7,1238.9-16.6,1284.8-8.9L1284.8-8.9z"/>
	<path display="none" fill-rule="evenodd" clip-rule="evenodd" fill="#4F8C0D" d="M480.3,410.4l1.7,13.1c0-5,1.2-11.1,1.2-15.1
		c0-2,0-7.1,0-9.1c0-30.2,5.8-62.2-52.1-83.2c63,17,59.3,58.8,59.3,102.3c0,1,0,2,0,0c7.2-6.1,9-17.9,13.4-25.7
		c4.1-7.4,14-11.3,16.7-20.6c0.8,8.8-6.9,13.8-9.7,20c-2.9,6.2-4.9,12.3-4.9,19c-0.3,6.6,3.9,9.7,3.9,14.4h-1.2c-1.2,0-7.2,1-9.6,1
		s-7.2,1-9.6,1c-15.6,0-31.3,2-47,2c0-2.3-4.8-6-4.8-9.1c-8.8-22.1-8.4-34.9,2.4-57.4c0,1,0.3,2.1,0,3c-6.7,20.4-2.1,34.5,3.8,42.2
		c7.2,9.4,13.2-29.4,5.8-54.3c-0.3-1,13.2,28.9,13.2,60.5c4.2-2.7,5.6-41.4,5.6-47.4C472.1,384.1,475.6,395,480.3,410.4L480.3,410.4
		z"/>
	
		<radialGradient id="SVGID_13_" cx="699.3517" cy="371.3259" r="196.4075" gradientTransform="matrix(0.3696 0 0 0.3696 255.8882 216.1568)" gradientUnits="userSpaceOnUse">
		<stop  offset="0" style="stop-color:#0CAB0C"/>
		<stop  offset="1" style="stop-color:#43700B"/>
	</radialGradient>
	<path display="none" fill-rule="evenodd" clip-rule="evenodd" fill="url(#SVGID_13_)" d="M495.6,425.5c0-14.2,8-18.7,11-38.8
		c0.5-3.7,4.4-40.1,4.4-39.4v0.8c0,18-1.1,35.4-1.1,52.5c4.7-23.7,11.3-28.8,13.5-41.7c0.8-4.6,1.5-9.2,1.5-13.9v-0.8
		c0-0.8,0,4.7,0,13.9c0,4.6-0.8,10.8-0.8,15.4c0,10.7-3.6,20.7-6.2,30.8c0,0.8-0.8,3.1-0.8,3.9c-0.8,3.1,0,3.9,0,1.5l0.8-2.3
		l1.5-2.3c0-1.8,17.3-21.5,9.6-34.6c8.8,9.7-1.9,32.5-1.9,45.4c0-3.7,10.8-18.8,10.8-16.2c0,4.6-3.1,10.3-3.1,15.4
		c0,0.6-1.6,9.5-2.4,9.7C521.9,426.4,507.9,425.5,495.6,425.5L495.6,425.5z"/>
	<path display="none" fill-rule="evenodd" clip-rule="evenodd" fill="#4F8C0D" d="M655.8,414.7c-1-14.1-10.9-28.5-16.8-40.8
		c-2.4-5.1-9.5-16.2-14-20.1c14.4,30.4,14.7,39.4,14.7,58.1c0,7.4,0,0-1.3-3.1c-3.9-9.2-8.8-19.4-11.6-27.7
		c-5.4-16.4-15.2-34.4-16.5-51.6c1.9,25.8,9.2,50.1,16.1,74.9l5.3,14.4c-0.2-3.2-6-10.1-6.2-12.2c-3.9-14.1-20.2-29.6-21.1-42.8
		l-0.1-1l0.1,1c1,13.2,5.4,34.7,11.8,45.6c0.1,1.1-12.1-20.2-14.2-20.1c2.4,4,6.5,16.4,6.9,21.7c-6.9-17.9-14.6-26.4-16.1-46.3
		c-1.6,3.5-1.5,5.4-1.6,8.6c-0.3,18.2,8,29.9,9.1,45c-0.3-4.2-14.5-19.2-17.6-19c10.4,6.8,8.5,15.1,8.8,18.4
		c-0.2-3.2-15-16.8-18.2-17.7c3.5,4,7.1,11.8,7.5,17.1c-5.3,0.4-12.8-6.1-21.4-5.5c2.1-0.2,9.1,8.8,10.2,8.8
		c-1.3,0.1-11.6-7.2-16.6-4.8c10.1,1.3,11.7,9.6,12,13.6c34.2-2.5,69.3,2.2,103.5-0.3c-0.4-5.3-3.1-13.5-4.6-18.7
		c-2.8-10.2-11.1-24.7-14.8-34.8c-0.4,12.3,11,27,12.1,41.4c-1.2-3-2.8-9.3-5.1-11.2C656.6,410.6,656.5,409.4,655.8,414.7
		L655.8,414.7z"/>
	<path display="none" fill-rule="evenodd" clip-rule="evenodd" fill="#4F8C0D" d="M75.4,424c-6-2.4-15.5-13.4-15.5-21.9
		c2.4,4.8,14.4,16.9,20.5,14.4c-4.6-4.2-5.8-7.3-7.3-11.3c8.8,7,8.5,8.9,13.3,8.9c0-2.4,0-6,0-8.4c1.2,2.4,4.8,4.8,7.2,4.8
		c1.2-7.2,2.4-16.9,6-24.1c2.4,10.8,7.2,20.5,13.2,30.1c2.4-4.8,0-13.2,0-19.3c0-6,2.4-10.8,2.4-15.7c0,0,0-4.8,0,0
		c0,2.4,3.6,27.7,9.6,27.7c0-4.8,2.4-12,2.4-16.9c1.2,4.8,7.2,16.9,8.4,21.7c0-3.6,1.2-7.1,1.2-10.8c0-1.2,2.4,9.6,2.4,9.6
		c1.2,0,3.6-3.6,3.6-4.8c0,1.2,3.6,4.8,3.6,7.2c4.8,0,14.4-21.7,14.4-26.5c0,8.4,4.8,18.1,4.8,25.3c4.8,0,9.6-20.5,9.6-24.1
		c7.3,11.5,5.2,12.6,6,18.1l1.3,2c1.5-9.9,1.1-15.3,2.3-21.3c0,4.8,2.4,10.8,6,12c0-3.6,1.2-8.4,1.2-12c2.4,3.6,9,21.4,8.4,26.8
		c2.4-2.4,4.9-22,4.9-24.4c1.5,4,2,22.5,3.6,22.9c1.7,0.4-1.6-4,4.8-16.9v-1.2c1.2,4.8,4.8,14.4,4.8,19.3c2.4,0,6-6,7.2-7.2
		c0,1.2,3.6,4.8,3.6,6c0-1.2,1.2-3.6,1.2-6l6,8.4c2.4-2.4,6-7.2,6-10.8c0.2,9.1,5.5,16.6-4,19c-38.6,9.6-116.5,1.5-159.8,1.5
		C79.1,425,75.4,426.4,75.4,424L75.4,424z"/>
	
		<radialGradient id="SVGID_14_" cx="2212.9741" cy="174.6891" r="347.4099" gradientTransform="matrix(0.1632 0 0 0.1632 -224.5993 342.722)" gradientUnits="userSpaceOnUse">
		<stop  offset="0" style="stop-color:#0CAB0C"/>
		<stop  offset="1" style="stop-color:#43700B"/>
	</radialGradient>
	<path display="none" fill-rule="evenodd" clip-rule="evenodd" fill="url(#SVGID_14_)" d="M92.1,423.9c0-8.7,5.2-21,9.1-28.6
		c4.4-7.9,9.9-19.1,15.5-26.2c-7.9,15.9-15.1,33-18.3,50.4c-0.4,3.2,1.6-5.2,1.6-5.6c3.2-11.5,11.1-24.6,17.1-35.3
		c3.2-6.4,13.5-19.9,13.5-27.4c0,3.2-2,8.7-2.4,11.9c-2.3,18.4-13.4,35.2-18.7,52.7c0-1.2,4.6-7.1,5.2-8.2
		c7-14.4,15.7-30.7,19.9-46.2c5-18.6,2.5-33.4,0.4-44.3c5.8,25.5,3.9,37.2-4,62.3c-2.1,6.5-4.8,14.7-7.1,21
		c-2.4,6.4-7.9,13.9-7.9,21.4l-0.4,0.8c0-5.2,5.2-12.7,7.1-17.1c4.4-8.7,9.5-19.5,12.3-29c1.2-4.8,4-9.9,5.6-14.7
		c0.8-2.8,2.4-6.8,3.2-9.5c0,0,0.5-1.4-0.6,3.8c-2.8,12.3-9.3,25.2-11.7,37.5c-1.2,6.2-10,22.6-6.8,27c0-6.4,7.1-15.7,8.6-22.1
		c0.5-2,1.6-5.5,4.4-16.9c0,10.7-5.7,33.2-5.2,33.7c0.2,0.2,2-2.7,2.8-10.4c0.4-4,2.6-11.6,4.1-15.2c7.2-17,17.9-36.1,28.6-50.8
		c4-5.6,10.3-15.1,14.7-19.5c-33.5,47-41.7,89.5-39.8,89.9c3.2-13.5,10.7-25.4,15.9-38.5c5-12.5,17.4-24.1,22.4-40.2
		c0,8.1-17.9,34.9-21.4,44.9c-3.4,10.3-8.1,20.9-9.9,31.8c-0.4,1.6-1.2,8.3-2.4,9.5v1.2c0,0-0.4,0.8-0.8,0.8
		c0.8-1.6,5.8-17.5,7.4-19.1c0,2-5,16.3-5,18.3c0,0.4-0.4,1.2-0.4,1.6c0-2.8,4.8-11.5,5.6-13.9c2.4-6,6.8-12.3,8.7-18.3
		c-2,4.4-4.4,12.3-5.6,17.1c-0.8,3.2-4.4,13.9-4.4,17.1c-1.2-2.4,5.7-13.2,7.1-15.9c6.3-11.9,12-22.6,15.5-46.9
		c1.3,17.9-14.3,49.4-14.3,64.7c-0.8,0.4-2.8,0.8-3.6,0.8c-6.4,6.4-20.3,3.6-28.2,2c-10-2-26.7,0.8-37.3,0.8l-0.8-0.4
		C91.7,426.7,92.1,425.1,92.1,423.9L92.1,423.9z"/>
	
		<radialGradient id="SVGID_15_" cx="2332.8455" cy="154.2443" r="438.5332" gradientTransform="matrix(0.1494 0 0 0.1479 318.8014 346.3565)" gradientUnits="userSpaceOnUse">
		<stop  offset="9.000000e-02" style="stop-color:#0AC200"/>
		<stop  offset="0.91" style="stop-color:#619423"/>
	</radialGradient>
	<path display="none" fill-rule="evenodd" clip-rule="evenodd" fill="url(#SVGID_15_)" d="M641.6,416.1
		c-4.4-35.6,10.2-65.8,21.1-98.9c0.4-1.1,4.3-19.5,3.3-10.9c-1.5,11.9-5.5,25.7-8.7,37.4c-6.8,24.5-10.9,25.6-9.6,52.2
		c2.3-24.5,19.1-67.7,19.4-73.8c0.1-1.1,1.5-18.3,1.5-10.8c0,19.8-3,38.6-8.5,57.6c-2.5,8.6-1,18.2-2,27.2c6.4-19.9,9-24.6,10.6-33
		c1.2-6.1,5.4-19.1,7.9-24.5c0,0-1.3,5.8-1.5,6.8c-2,18.7-8.4,37.2-9.9,55.8c-0.8,9.7,4.4-14.9,4.9-16.6c4-13.6,8.6-45.5,28.6-55
		c-14.4,8-17.4,22.7-20.7,33.8c-3.3,11.2-9.1,30.9-9.1,42.4c0-1.8,5.1-9.7,6.2-11.9c2.9-6.1,5.8-14.8,9.1-27.3
		c1.6-6.3,6.5-15.1,6.5-21.6c0,13-4.4,27-7.3,40.3c-1.1,6.1-5.1,16.5-5.1,22.3c0,1.4,16.6-18.3,11.9-45.5c1.4,7.2,1.7,14.9,2.1,20.3
		c0.7,9.4-2,15.8-2,25.2c0,3.2,0.2,0,0.4-1.4c1.3-10.5,5.2-23.3,6-34.1c1-13,6.4-27.6,9.1-40.6c0.6-2.8,2.7-16.4,2.7-16
		c0,5.2,0.2,11.1-1,16.7c-1.5,7.2-3.8,15.9-5.1,22.3c-3.2,16.2-4.7,31.1-3.4,47.7c0.9,11.1,1.8,6.1,2.9-1.1
		c1.1-6.1,1.5-14.7,1.5-20.9c0,4,1.1,8.6,1.8,12.6c0,1.1,0.7,6.1,0.7,1.8c0-10.1,6.4-46,6.4-36.3l-0.1,45.3c9.2-23,7-14,9.7-22.7
		c0,15.1-4.2,31.7-5.3,45.4c-0.4,4.8-77.1,0.2-89.8,0.2c-0.4,0-1.9-12.9-2-14c-1-12.6-1.9-14.6-4.8-26.5c-0.5-1.9-2.4-8.1-6.9-13.7
		c8.4,5,14.4,29,15.8,38.7c0.1,0.7,1,7.2,1,7.2c0-21.1-6.9-40.1-3.5-62.2c0-0.7,1.8-6.8,1.1-4c-4.7,14.7,1.8,36.3,4,51.4
		c0.4,2.9,1.3,12.6,2.2,5c3.2-27.7,5.6-61.8-15.6-82.7c-5.8-5.8,4.8,3.5,6.4,5.9c11.6,18.3,14.4,34.9,14.4,56.7
		C638.7,397.7,639.1,409.8,641.6,416.1L641.6,416.1z"/>
	
		<radialGradient id="SVGID_16_" cx="263.1673" cy="458.0599" r="133.3593" gradientTransform="matrix(0.5774 0 0 0.5774 -72.0451 85.295)" gradientUnits="userSpaceOnUse">
		<stop  offset="0.4" style="stop-color:#0CAB0C"/>
		<stop  offset="0.6" style="stop-color:#43700B"/>
	</radialGradient>
	<path display="none" fill-rule="evenodd" clip-rule="evenodd" fill="url(#SVGID_16_)" d="M87.7,420.8c-4.8-7.2-7.2-16.9-7.2-25.3
		c0-41.6-19.3-84.4-19.3-122.8c0,40.7,29.1,89.4,32.5,137.3c0-29-17.2-100,14.7-116.2c-14.9,6.7-20.8,46.4-7.5,90.9
		c1.1,3.8,9.8,21.2,7.2,18.6c0-8.4,2.4-21,2.4-29.4c0-9.6-2.4-21.7-2.4-31.3c0,2.4,3.6,10.8,4.8,13.2c4.8,13.2,6,32.5,6,47
		c0-5.5,7.2-14.6,7.2-21.7c0,11,2.4,21.7,2.4,32.5c0,2.4,1.2,8.4,2.4,10.8c-17,0-35.2,2.4-51.8,2.4c0-20.1-27-77.7-50.6-63.8
		c0,0,8.6-9.3,27.7,7.2C66.1,378.7,80.4,403.7,87.7,420.8L87.7,420.8z"/>
	
		<radialGradient id="SVGID_17_" cx="393.1621" cy="427.3817" r="152.2161" gradientTransform="matrix(0.4945 0 0 0.4945 7.1966 141.8125)" gradientUnits="userSpaceOnUse">
		<stop  offset="0" style="stop-color:#0CAB0C"/>
		<stop  offset="1" style="stop-color:#43700B"/>
	</radialGradient>
	<path display="none" fill-rule="evenodd" clip-rule="evenodd" fill="url(#SVGID_17_)" d="M198,426c8.7-19.7,18.8-118.8-3.1-148.4
		c20.5,28.8,19.5,107.3,9.4,150.5C203.3,427.1,201.1,428.1,198,426L198,426z"/>
	
		<radialGradient id="SVGID_18_" cx="-1394.173" cy="412.4905" r="152.2173" gradientTransform="matrix(-0.3462 0 0 0.3462 -400.2497 226.3412)" gradientUnits="userSpaceOnUse">
		<stop  offset="0" style="stop-color:#0CAB0C"/>
		<stop  offset="1" style="stop-color:#43700B"/>
	</radialGradient>
	<path display="none" fill-rule="evenodd" clip-rule="evenodd" fill="url(#SVGID_18_)" d="M108.3,419.9
		c-2.6-23.6-34.6-103.2-53.4-103.2c14.8,2.7,28.9,39.6,32.3,48.5c6.5,16.8,16.1,39.2,16.1,56.9L108.3,419.9L108.3,419.9z"/>
	
		<radialGradient id="SVGID_19_" cx="517.527" cy="619.7672" r="152.2179" gradientTransform="matrix(0.4094 -9.240000e-02 9.240000e-02 0.4094 -112.1972 160.9041)" gradientUnits="userSpaceOnUse">
		<stop  offset="0" style="stop-color:#0CAB0C"/>
		<stop  offset="1" style="stop-color:#43700B"/>
	</radialGradient>
	<path display="none" fill-rule="evenodd" clip-rule="evenodd" fill="url(#SVGID_19_)" d="M167.5,428.3
		c3.5-17.9-6.6-101.9-30.3-122.3c22.4,20,36.2,85.2,35.9,122.9C172,428.2,170.4,429.4,167.5,428.3L167.5,428.3z"/>
	
		<radialGradient id="SVGID_20_" cx="886.5258" cy="418.0371" r="150.0073" gradientTransform="matrix(0.3056 0 0 0.3056 481.2714 254.2483)" gradientUnits="userSpaceOnUse">
		<stop  offset="0" style="stop-color:#0CAB0C"/>
		<stop  offset="1" style="stop-color:#43700B"/>
	</radialGradient>
	<path display="none" fill-rule="evenodd" clip-rule="evenodd" fill="url(#SVGID_20_)" d="M743.7,419.8c0.3-9.6,18.8-35.3,28.6-35.3
		c-10.3,2.5-19.3,19.5-20.6,29.1c0,1.4,4.7-3.7,6-5l-4.8,10.5c3.5-3.5,7.7-17.8,13.4-17.8c-5.3,4.4-5.5,11.3-8.2,16.8
		c1.1,0,5.8-10.5,5.8-11l-0.5,6.7c1.9,5.7,14.4-19.9,14.5-36.4c0,9.1-0.3,26.7-5.6,34.6c-0.6,2.2-2.2,5-3.3,7.2
		c6.3-10.1,19-16.8,19,1.1c0,1.1,0,1.1,0,0c-0.6-8.8-7-8-10.4-2.3c0,1-0.4,2.3,0.7,2c4.8-1.4,9.5,0.1,8.6,8.3c-3.6-6.8-8.1-5.2-11,0
		c-4.6-2.3-31.5-0.2-35.4-0.2c0-8.2-7.1-19.5-16.2-19.5C737.5,403.6,743.7,415.6,743.7,419.8L743.7,419.8z"/>
	
		<radialGradient id="SVGID_21_" cx="393.1617" cy="427.3797" r="152.2181" gradientTransform="matrix(0.4945 0 0 0.4945 273.7083 140.7598)" gradientUnits="userSpaceOnUse">
		<stop  offset="0" style="stop-color:#0CAB0C"/>
		<stop  offset="1" style="stop-color:#43700B"/>
	</radialGradient>
	<path display="none" fill-rule="evenodd" clip-rule="evenodd" fill="url(#SVGID_21_)" d="M464.5,425c8.7-19.7,18.8-118.8-3.1-148.4
		c20.5,28.8,19.5,107.3,9.4,150.5C469.8,426,467.6,427,464.5,425L464.5,425z"/>
	
		<radialGradient id="SVGID_22_" cx="2701.0608" cy="209.3438" r="399.5697" gradientTransform="matrix(0.1316 0 0 0.1316 -198.6946 340.7719)" gradientUnits="userSpaceOnUse">
		<stop  offset="0" style="stop-color:#0CAB0C"/>
		<stop  offset="1" style="stop-color:#43700B"/>
	</radialGradient>
	<path display="none" fill-rule="evenodd" clip-rule="evenodd" fill="url(#SVGID_22_)" d="M146.5,343.2
		c11.7-16.2,24.9-23.6,43.1-27.2c0.9-0.2-8,2.8-14.3,6.1c-34.9,17.9-41.2,81.1-40.2,79.7c5.8-8.9,21.9-46.5,21.9-56.2
		c0,5.2-17.5,75.9-17.8,75.6c-1.7-1.7-7,0.5-13.5-0.8C125.7,393.4,126.6,370.9,146.5,343.2L146.5,343.2z"/>
	
		<radialGradient id="SVGID_23_" cx="1416.502" cy="135.9286" r="388.0185" gradientTransform="matrix(0.2021 0 0 0.2021 422.2674 318.988)" gradientUnits="userSpaceOnUse">
		<stop  offset="0" style="stop-color:#0CAB0C"/>
		<stop  offset="1" style="stop-color:#43700B"/>
	</radialGradient>
	<path display="none" fill-rule="evenodd" clip-rule="evenodd" fill="url(#SVGID_23_)" d="M734,424.6c3.7-8.8-4.3-33.2-4.8-42
		c-1.4-22.9-9.6-63.5-28.1-92.2c-5.7-8.8-11.4-15.2-20.2-22.5c6.6,4.2,12.4,9.7,19.3,18.3c7.2,9,8.5,13.7,12.8,23
		c17.7,38.6,24.7,72.4,24.7,115.4C732.7,424.6,738.9,425.5,734,424.6L734,424.6z"/>
	
		<radialGradient id="SVGID_24_" cx="1071.743" cy="534.1135" r="384.1413" gradientTransform="matrix(0.2427 -4.690000e-02 3.350000e-02 0.1733 353.9012 324.771)" gradientUnits="userSpaceOnUse">
		<stop  offset="0" style="stop-color:#0CAB0C"/>
		<stop  offset="1" style="stop-color:#43700B"/>
	</radialGradient>
	<path display="none" fill-rule="evenodd" clip-rule="evenodd" fill="url(#SVGID_24_)" d="M672.6,428c3-8.4-10.6-27.5-12.7-34.9
		c-8.1-28.8-27.1-59.9-58.7-78.3c-23.6-13.7-12.8-8.4,4.1,0.7c9.5,5.1,15.7,10.8,23,18.5c27.6,29,41.7,56.4,48.8,93.2
		C671.1,428.3,678.7,427.6,672.6,428L672.6,428z"/>
	
		<radialGradient id="SVGID_25_" cx="-2461.1003" cy="128.8641" r="388.0129" gradientTransform="matrix(-0.1883 0 0 0.1883 66.8615 330.0406)" gradientUnits="userSpaceOnUse">
		<stop  offset="0" style="stop-color:#0CAB0C"/>
		<stop  offset="1" style="stop-color:#43700B"/>
	</radialGradient>
	<path display="none" fill-rule="evenodd" clip-rule="evenodd" fill="url(#SVGID_25_)" d="M506.6,427.1c-3.4-8.2,4-30.9,4.5-39.2
		c1.3-21.3,9-59.2,26.2-85.9c5.3-8.2,10.7-14.2,18.8-21c-6.1,3.9-11.6,9-18,17.1c-6.7,8.4-7.9,12.7-11.9,21.4
		c-16.5,36-23,67.5-23,107.5C507.8,427.1,502,427.9,506.6,427.1L506.6,427.1z"/>
	<g display="none">
		<path display="inline" fill-rule="evenodd" clip-rule="evenodd" fill="#FFFFFF" d="M506.7,403.7c-0.4-4.1-14.2-6.6-10.8,0.3
			c1.1,2.1,5.4,5.9,6,5.7C504.2,410,506.8,405,506.7,403.7L506.7,403.7z"/>
		<path display="inline" fill-rule="evenodd" clip-rule="evenodd" fill="#FFFFFF" d="M502.7,410.3c0.9-1.3,5-6.5,7.2-2.1
			c1,2,1.4,7.4-1.1,7.4C507,415.6,502.7,412.2,502.7,410.3L502.7,410.3z"/>
		<path display="inline" fill-rule="evenodd" clip-rule="evenodd" fill="#FFFFFF" d="M499.8,410.2c-0.7,2.4-3.4,3.6-5.8,3.6
			c-1.9-0.3-2.8-6.8-0.2-7.6C496,406.1,499.1,407.3,499.8,410.2L499.8,410.2z"/>
		<path display="inline" fill-rule="evenodd" clip-rule="evenodd" fill="#FFFFFF" d="M505.5,417.2c-0.1,1.6-4.7,1.4-7-0.4
			c-2-1.5,0.8-4.7,3.3-4.9C503.2,412.7,505.5,415.6,505.5,417.2L505.5,417.2z"/>
	</g>
	<path display="none" fill-rule="evenodd" clip-rule="evenodd" fill="#1C9A0B" d="M427.9,426.1c-6-2.4-15.5-13.4-15.5-21.9
		c2.4,4.8,14.4,16.9,20.5,14.4c-4.6-4.2-5.8-7.3-7.3-11.3c8.8,7,8.5,8.9,13.3,8.9c0-2.4,0-6,0-8.4c1.2,2.4,4.8,4.8,7.2,4.8
		c1.2-7.2,2.4-16.9,6-24.1c2.4,10.8,7.2,20.5,13.2,30.1c2.4-4.8,0-13.2,0-19.3c0-6,2.4-10.8,2.4-15.7c0,0,0-4.8,0,0
		c0,2.4,3.6,27.7,9.6,27.7c0-4.8,2.4-12,2.4-16.9c1.2,4.8,7.2,16.9,8.4,21.7c0-3.6,1.2-7.1,1.2-10.8c0-1.2,2.4,9.6,2.4,9.6
		c1.2,0,3.6-3.6,3.6-4.8c0,1.2,3.6,4.8,3.6,7.2c4.8,0,14.4-21.7,14.4-26.5c0,8.4,4.8,18.1,4.8,25.3c4.8,0,9.6-20.5,9.6-24.1
		c7.3,11.5,5.2,12.6,6,18.1l1.3,2c1.5-9.9,1.1-15.3,2.3-21.3c0,4.8,2.4,10.8,6,12c0-3.6,1.2-8.4,1.2-12c2.4,3.6,9,21.4,8.4,26.8
		c2.4-2.4,4.9-22,4.9-24.4c1.5,4,2,22.5,3.6,22.9c1.7,0.4-1.6-4,4.8-16.9v-1.2c1.2,4.8,4.8,14.4,4.8,19.3c2.4,0,6-6,7.2-7.2
		c0,1.2,3.6,4.8,3.6,6c0-1.2,1.2-3.6,1.2-6l6,8.4c2.4-2.4,6-7.2,6-10.8c0.2,9.1,5.7,18.3-4,19c-38.6,2.9-116.5,1.5-159.8,1.5
		C431.7,427.1,427.9,428.5,427.9,426.1L427.9,426.1z"/>
	
		<radialGradient id="SVGID_26_" cx="2701.0608" cy="209.3389" r="399.5732" gradientTransform="matrix(0.1316 0 0 0.1316 388.2126 350.7573)" gradientUnits="userSpaceOnUse">
		<stop  offset="0" style="stop-color:#0CAB0C"/>
		<stop  offset="1" style="stop-color:#43700B"/>
	</radialGradient>
	<path display="none" fill-rule="evenodd" clip-rule="evenodd" fill="url(#SVGID_26_)" d="M733.4,353.2
		c11.7-16.2,24.9-23.6,43.1-27.2c0.9-0.2-8,2.8-14.3,6.1c-34.9,17.9-41.2,81.1-40.2,79.7c5.8-8.9,21.9-46.5,21.9-56.2
		c0,5.2-17.5,75.9-17.8,75.6c-1.7-1.7-7,0.5-13.5-0.8C712.6,403.4,713.5,380.9,733.4,353.2L733.4,353.2z"/>
	<path display="none" fill-rule="evenodd" clip-rule="evenodd" fill="#4F8C0D" d="M559.6,344.8c11.7-16.2,24.9-23.6,43.1-27.2
		c0.9-0.2-8,2.8-14.3,6.1c-34.9,17.9-41.2,81.1-40.2,79.7c5.8-8.9,21.9-46.5,21.9-56.2c0,5.2-17.5,75.9-17.8,75.6
		c-1.7-1.7-7,0.5-13.5-0.8C538.8,394.9,539.7,372.4,559.6,344.8L559.6,344.8z"/>
	<path display="none" fill-rule="evenodd" clip-rule="evenodd" fill="#338C26" d="M57,393.3c0-3.1,0.8-6.1,3-8.3
		c1.7-1.7,2.5,3.5,1.3,4.6c1.2-0.9,2.6-1.4,4.1-0.7c3.4,1.6-1.9,4-6,5c7.9-2.6,41.3,3.6,48.5,16.3c0,0-2.3,0.2-3.2,0.4
		c3.6-9-42-21.8-46.3-14.2c0.2,2,4.4,1.6,2.1,4.9c-1.3,1.3-3.2,0.1-3.2-0.7c-0.7,1.4-2.9,1.6-4.5,1.6c-1.9-1.7-0.1-4.7,3.2-6.3
		c-1.5,0.5-6.4,3-7.3,1.2c-0.8-1.6-0.4-3.8,2.5-3.8c0-1.6-1.6-2.6,0.7-4.1C54.6,387.4,55.6,391.9,57,393.3L57,393.3L57,393.3z"/>
	<path display="none" fill-rule="evenodd" clip-rule="evenodd" fill="#338C26" d="M238.3,338.2c3.9-2.8,6-6.5,3.8-10.3
		c-1.8-2.9-8.2-0.7-7,1.3c-1.3-1.6-2.8-1.1-4.9-0.4c-2.3,0.8-3.7,4.5,1.6,7.3c-1.4-0.4-10.5-1.3-7.4,3.9c0.6,1,0.8,1.6,1.9,1.9
		c-0.4,1.6-1.7,1.9-0.4,4.2c1.3,2.3,7,0.9,7.6-0.5c-0.9,2.7-0.8,6.2,3.4,6.2c1.2,0.3,3.3-1.6,3.5-2.6c0.5,2.2,3.4,1.1,4.7-0.9
		c3.2-1.7-1.6-6-6.8-8.8c48.9,14.8,55.8,78.9,55.6,83.1c2,1.4,1.8,0.4,2.3-0.5C294.4,407,284.2,354.4,238.3,338.2L238.3,338.2
		L238.3,338.2z"/>
	<path display="none" fill-rule="evenodd" clip-rule="evenodd" fill="#338C26" d="M192.3,354.3c-2.1-1.5-5.3-0.6-5.7-3.1
		c-0.3-2,3.6-3.2,3.8-1.8c-0.1-1.2,0.6-1.9,1.9-2.4c1.4-0.5,2.8,2.7,1.5,6c0.5-0.7,4.8-6.8,5.4-3.3c0.1,0.7-0.2,1.2-0.5,1.8
		c0.8,0.6,1.9,0,2.2,1.6c0.3,1.5-4.6,2.7-5.4,2.3c1.5,0.9,4.5,2.9,2.7,4.5c-0.4,0.6-2.4,0-2.9-0.3c0.6,1.2-0.8,2.3-2.1,1.9
		c-2.1,0.5-0.8-3.5-0.4-6.6c-14.7,28.4,6.3,56.1,8,57.9c-0.4,1.4-0.6,3.6-1.2,3.3C194.6,408.7,178,379.4,192.3,354.3L192.3,354.3
		L192.3,354.3z"/>
	<path display="none" fill-rule="evenodd" clip-rule="evenodd" fill="#338C26" d="M151.1,305.8c0.2,0.6,0.1,2.9,0.2,5.5
		c-11.9,23.2-2.9,46.7,5.3,66.5c7.5,18.2,19.1,40.9,21.1,39.7l1-1c-17-26.2-32.6-62.5-32.1-82.3c0.2-8.6,2.1-16,4.7-21.3
		c0.2,6,1.4,13,7.4,9.3c1.4-0.9,2.5-3.9,2-5.4c2.3-0.7,6.3,1.3,8.1-2c1.8-3.4-8.7-9.8-10.8-9.5c4.1-0.9,14.4-1.5,11.3-6.8
		c-0.5-1.7-3.2-3.1-4.7-2.6c0.8-3.1,2.3-5.8-0.3-7.5c-4.6-2.7-9,5.7-10.2,13.3c0-3.3-1.2-11.3-5.2-11.9c-3.7-0.6-8.3,2.6-6.5,8.2
		c-4-0.3-9.8,6-4.6,9.7C141.1,309.9,151.8,307.6,151.1,305.8L151.1,305.8z"/>
	<path display="none" fill-rule="evenodd" clip-rule="evenodd" fill="#338C26" d="M582,355.4c-2.1-1.5-5.3-0.6-5.7-3.1
		c-0.3-2,3.6-3.2,3.8-1.8c-0.1-1.2,0.6-1.9,1.9-2.4c1.4-0.5,2.8,2.7,1.5,6c0.5-0.7,4.8-6.8,5.4-3.3c0.1,0.7-0.2,1.2-0.5,1.8
		c0.8,0.6,1.9,0,2.2,1.6c0.3,1.5-4.6,2.7-5.4,2.3c1.5,0.9,4.5,2.9,2.7,4.5c-0.4,0.6-2.4,0-2.9-0.3c0.6,1.2-0.8,2.3-2.1,1.9
		c-2.1,0.5-0.8-3.5-0.4-6.6c-14.7,28.4,6.3,56.1,8,57.9c-0.4,1.4-0.6,3.6-1.2,3.3C584.3,409.8,567.7,380.6,582,355.4L582,355.4
		L582,355.4z"/>
	
		<radialGradient id="SVGID_27_" cx="2039.4249" cy="116.5714" r="437.3606" gradientTransform="matrix(0.169 0 0 0.1143 38.2259 365.7556)" gradientUnits="userSpaceOnUse">
		<stop  offset="0" style="stop-color:#0CAB0C"/>
		<stop  offset="1" style="stop-color:#43700B"/>
	</radialGradient>
	<path display="none" fill-rule="evenodd" clip-rule="evenodd" fill="url(#SVGID_27_)" d="M353.7,415.1
		c-5.7-32.1,19.3-56.7,27.9-86.4c-1.7,9.2-6.5,21.4-10.2,30.4c-7.7,19-12.3,19.7-10.9,40.4c2.6-18.9,10-16.3,20.3-36.8
		c4.9-9.8,6.9-18.9,6.8-23.7c0.2,10.8-1.5,15.6-3.2,20c-2.6,6.5-6.2,10.9-9.9,19.6c-2.8,6.7-3.1,18.6-4.3,25.6
		c7.3-15.4,12.2-23.6,14-30.1c1.3-4.7,6.1-14.7,8.9-18.9c0,0-1.5,4.5-1.6,5.3c-2.3,14.5-9.5,28.7-11.2,43.2
		c-0.9,7.5,5-11.5,5.6-12.9c4.5-10.5,9.7-35.2,32.4-42.5c-16.2,6.2-19.7,17.5-23.4,26.1c-3.7,8.6-10.3,23.9-10.3,32.8
		c0-1.4,5.8-7.5,7-9.2c3.3-4.7,6.6-11.5,10.3-21.1c1.9-4.8,7.4-11.7,7.4-16.7c0,10-4.9,20.8-8.2,31.1c-1.2,4.7-5.8,12.8-5.8,17.2
		c0,1.1,18.7-14.1,13.5-35.2c1.5,5.6,1.9,11.5,2.4,15.7c0.8,7.2-2.3,12.2-2.3,19.5c0,2.5,0.2,0,0.4-1.1c1.4-8.1,5.9-18,6.8-26.3
		c1.1-10,7.2-21.3,10.3-31.3c0.7-2.2,3.1-12.6,3.1-12.4c0,4,0.2,8.6-1.1,12.9c-1.7,5.6-4.3,12.3-5.7,17.3c-3.6,12.5-5.3,24-3.8,36.8
		c1,8.6,2.1,4.7,3.3-0.8c1.2-4.7,1.6-11.4,1.6-16.1c0,3.1,1.2,6.7,2.1,9.7c0,0.8,0.8,4.7,0.8,1.4c0-7.8,7.2-35.6,7.2-28.1l-0.1,35
		c10.5-17.8,7.9-10.8,11-17.5c0,11.7-4.7,24.5-5.9,35.1c-0.4,3.7-87.2,0.2-101.6,0.2c-0.4,0-2.1-10-2.2-10.8
		c-1.1-9.7-2.2-11.3-5.5-20.5c-0.5-1.5-2.7-6.3-7.8-10.6c9.5,3.8,16.3,22.4,17.8,29.9c0.1,0.6,1.1,5.6,1.1,5.6c0-16.3-7.8-31-4-48.1
		c0-0.6,2.1-5.3,1.2-3.1c-5.3,11.4,2.1,28.1,4.5,39.7c0.4,2.2,1.5,9.7,2.5,3.9c3.6-21.4,6.3-47.7-17.7-63.9
		c-6.6-4.4,5.4,2.7,7.2,4.6c13.1,14.1,16.2,27,16.2,43.8C350.5,400.8,350.9,410.2,353.7,415.1L353.7,415.1z"/>
	
		<radialGradient id="SVGID_28_" cx="-277.1724" cy="704.4348" r="649.4095" gradientTransform="matrix(0.5774 0 0 0.5774 588.2797 52.8838)" gradientUnits="userSpaceOnUse">
		<stop  offset="0" style="stop-color:#0AC200"/>
		<stop  offset="1" style="stop-color:#619423"/>
	</radialGradient>
	<path display="none" fill-rule="evenodd" clip-rule="evenodd" fill="url(#SVGID_28_)" d="M748.1,388.4c1.7,4.9,2.8,15.7,3.1,22.9
		c-3.8,2.5-8.3,5.3-11,8c-0.2,0.2-0.7,0.7-1.2,1.3h-3.4c-0.2-0.3-0.4-0.6-0.4-0.8v-3.5c0-0.3,0.5-0.4-0.5,1
		c-0.5,1.1-0.5,2.2-0.5,3.3H733c-0.8-1.5-2.7-3-3.1-4.4c-0.5-1.5-1.5-3.5-1.5-5.1c0-1.5,1-3.5,1-5.1c-0.7,0-2.4,4.9-2.4,6.7
		c-0.4,2.5-0.5,5.2-0.5,7.8h-0.3c-0.4-1.2-0.2-2.6-0.6-3.7c-1.5-4.2-4.9-8-7-12.2l-0.3-0.6c-0.2-0.4,0.4,5.4,0.5,5.9
		c0.4,2.1,2.4,4.8,2.4,6.9c0,1.2-0.5,2.5-0.9,3.7h-2.1c-0.7-1-1.6-2-2.4-2.9c-0.8-0.7-4.9-2.9-4.9-3.4c0,0.7,2.4,2.5,2.4,3.4
		c0.3,0.9,0.2,1.9,0.2,2.9h-1c-0.8-1.2-2-2.5-3.1-3.7c-1.5-1.6-4-3.3-6.8-4.9c0.3-0.3,0.6-0.7,0.9-1c1-1.5,4.2-3.2,6.3-4.8
		c2.8-2,4.5-2.1,7.5-3.9l4.7-1.8c-9.3,2.7-16.6,6-21.5,9.5c-0.2,0.2-0.5,0.3-0.7,0.5c-1.2-0.7-2.5-1.4-3.6-2
		c1.1,0.9,2.2,1.6,3.2,2.3c-3.7,2.5-8,5.1-10.6,7.7c-0.3,0.3-1.1,1.3-1.9,2.2h-2c-0.4-0.6-1-1.2-1-1.6v-3.5c0-0.3,0.5-0.4-0.5,1
		c-0.5,1.1-0.5,2.4-0.5,3.5c0,0.1,0,0.4,0,0.6h-1c0,0,0-0.1,0-0.1c-0.5-1.7-2.9-3.5-3.4-5.2c-0.5-1.5-1.5-3.5-1.5-5.1
		c0-1.5,1-3.5,1-5.1c-0.7,0-2.4,4.9-2.4,6.7c-0.5,2.7-0.5,5.8-0.5,8.6h0.1c-0.9-1.4-0.5-3.2-1.1-4.6c-1.5-4.2-4.9-8-7-12.2l-0.3-0.6
		c-0.2-0.4,0.4,5.4,0.5,5.9c0.4,2.1,2.4,4.8,2.4,6.9c0,1.4-0.8,3.1-1.2,4.6h-1.3c-0.6-1.2-1.9-2.5-2.8-3.7c-0.8-0.7-4.9-2.9-4.9-3.4
		c0,0.7,2.4,2.5,2.4,3.4c0.3,1.2,0.2,2.5,0.1,3.7h-0.5c-0.7-1.5-2.1-3-3.5-4.6c-2.6-2.9-8.4-5.7-13.1-8.4
		c6.4,4.8,10.6,6.1,10.6,11.5c0,0.5-0.1,1-0.3,1.5h-4.2c-2.6-1.6-7.1-3.5-9.7-3.5c2.4,0.7,4.4,2.3,5.4,3.5h-7.2c0,0,0-0.1,0-0.1
		c0-0.7,0.5-1.5,0.5-2.2c0-1,0-2.1,0-3.1l-0.5,0.3c0,1.4-2.9,2.8-2.9,4.2c0,0.3-0.5,0.4-0.5,0.7c0.5-0.4,0.5-1.1,0.5-1.7
		c-1-1.1-1.5-2.8-2.4-3.8c0,0.6,0.5,1.4,0.5,2c-0.5,1.1-1.5,2.4-1.5,3.5c0,0.1,0,0.1,0,0.2h-0.6c-0.3-0.5-0.8-1.1-0.8-1.6
		c-0.5-1,0-2.1,0-3.1c0.5-1.7,2.4-3.7,3.9-5.3c1-1.5,4.2-3.2,6.3-4.8c2.8-2,4.5-2.1,7.5-3.9l4.7-1.8c-9.3,2.7-16.6,6-21.5,9.5
		c-3.9,2.7-8.8,5.6-11.7,8.4c-0.3,0.3-1.5,1.8-2.2,2.6h-1.3c-0.4-0.7-1.3-1.5-1.3-2v-3.5c0-0.3,0.5-0.4-0.5,1
		c-0.5,1.1-0.5,2.4-0.5,3.5c0,0.2,0,0.7,0.1,1.1h-0.6c-0.2-0.2-0.4-0.4-0.4-0.5c-0.5-1.7-2.9-3.5-3.4-5.2c-0.5-1.5-1.5-3.5-1.5-5.1
		c0-1.5,1-3.5,1-5.1c-0.7,0-2.4,4.9-2.4,6.7c-0.5,2.8-0.5,5.9-0.5,8.8c0,0,0,0.1,0.1,0.2h0.3c-1.4-1.4-0.8-3.5-1.4-5
		c-1.5-4.2-4.9-8-7-12.2l-0.3-0.6c-0.2-0.4,0.4,5.4,0.5,5.9c0.4,2.1,2.4,4.8,2.4,6.9c0,1.6-0.9,3.4-1.3,5h-1c0-0.1-0.1-0.2-0.1-0.2
		c-0.5-1.3-2-2.7-2.9-3.9c-0.8-0.7-4.9-2.9-4.9-3.4c0,0.7,2.4,2.5,2.4,3.4c0.4,1.3,0.2,2.8,0.1,4.2h-0.3c-0.6-1.7-2.2-3.3-3.7-5
		c-1.7-1.9-5-3.9-8.3-5.7c1.4-1.2,3.7-2.5,5.3-3.7c2.8-2,4.5-2.1,7.5-3.9l4.7-1.8c-8.1,2.3-14.8,5.2-19.6,8.3
		c-0.9-0.5-1.8-1-2.7-1.5c0.8,0.6,1.6,1.2,2.4,1.7c-0.6,0.4-1.1,0.7-1.6,1.1c-3.9,2.7-8.8,5.6-11.7,8.4c-0.3,0.3-1.1,1.3-1.9,2.2h-2
		c-0.4-0.6-1-1.2-1-1.6v-3.5c0-0.3,0.5-0.4-0.5,1c-0.5,1.1-0.5,2.4-0.5,3.5c0,0.1,0,0.4,0,0.6h-1c0,0,0-0.1,0-0.1
		c-0.5-1.7-2.9-3.5-3.4-5.2c-0.5-1.5-1.5-3.5-1.5-5.1c0-1.5,1-3.5,1-5.1c-0.7,0-2.4,4.9-2.4,6.7c-0.5,2.7-0.5,5.8-0.5,8.6h0.1
		c-0.9-1.4-0.5-3.2-1.1-4.6c-1.5-4.2-4.9-8-7-12.2l-0.3-0.6c-0.2-0.4,0.4,5.4,0.5,5.9c0.4,2.1,2.4,4.8,2.4,6.9
		c0,1.4-0.8,3.1-1.2,4.6H545c-0.6-1.2-1.9-2.5-2.8-3.7c-0.8-0.7-4.9-2.9-4.9-3.4c0,0.7,2.4,2.5,2.4,3.4c0.3,1.2,0.2,2.5,0.1,3.7
		h-0.5c-0.7-1.5-2.1-3-3.5-4.6c-2.6-2.9-8.4-5.7-13.1-8.4c6.4,4.8,10.6,6.1,10.6,11.5c0,0.5-0.1,1-0.3,1.5h-4.2
		c-2.6-1.6-7.1-3.5-9.7-3.5c2.4,0.7,4.4,2.3,5.4,3.5h-34.1c-0.2-0.8-0.3-1.7-0.3-1.8c0-0.8,0.5-1.7,0.5-2.5c0-1.1,0-2.4,0-3.5
		l-0.5,0.3c0,1.6-2.9,3.1-2.9,4.7c0,0.3-0.5,0.5-0.5,0.8c0.5-0.5,0.5-1.3,0.5-1.9c-1-1.3-1.5-3.1-2.4-4.2c0,0.6,0.5,1.6,0.5,2.2
		c-0.5,1.3-1.5,2.7-1.5,3.9c0,0.3,0,0.6-0.5,0.8c0-0.8-1-1.6-1-2.4c-0.5-1.1,0-2.4,0-3.5c0.5-1.9,2.4-4.1,3.9-6
		c1-1.7,4.2-3.6,6.3-5.3c2.8-2.2,4.5-2.4,7.5-4.4l4.7-2c-9.3,3-16.6,6.8-21.5,10.7c-3.9,3-8.8,6.3-11.7,9.4
		c-0.5,0.5-2.4,3.5-2.9,3.6l-0.5-0.2c0-0.8-1.5-2-1.5-2.8v-3.9c0-0.3,0.5-0.5-0.5,1.1c-0.5,1.3-0.5,2.7-0.5,3.9c0,0.5,0,2,0.5,2.2
		c0-0.2-1.5-1.3-1.5-1.6c-0.5-1.9-2.9-3.9-3.4-5.8c-0.5-1.7-1.6-2.2-1.6-3.9c0-1.7-2.9-3.6-5.5-6.1c-0.7,0,4.3,4.1,4.1,6.2
		c-0.3,3.1-0.5,6.6-0.5,9.9c0,0.2,0.5,1.1,0.5,0.9V419c-1.5-1.6-0.9-3.9-1.5-5.7c-1.5-4.7-4.9-8.9-7-13.7l-0.3-0.6
		c-0.2-0.5,0.4,6.1,0.5,6.6c0.4,2.4,2.4,5.3,2.4,7.7c0,2.2-1.5,4.9-1.5,6.9v0.3c0,0,0,0,0,0.1h-0.1c-0.2-0.3-0.5-1.3-0.9-1.9
		c-0.5-1.4-2-3-2.9-4.4c-0.8-0.8-4.9-3.2-4.9-3.8c0,0.8,2.4,2.8,2.4,3.8c0.5,2,0,4.2,0,6.3c0,0,0,0,0,0.1v-0.4c0-2.4-2-4.5-3.9-6.9
		c-2.6-3.2-8.4-6.4-13.1-9.4c6.4,5.3,10.6,6.8,10.6,12.9c0,1.2-0.5,2.6-1.4,3.8h-0.6c0-0.1-0.1-0.2-0.5-0.2c0-0.9-3.6-3.2-7.2-4.7
		c0.3-1.7,0.5-3.6,0.5-5.7c-0.3,0.7-2.2,2.4-4.8,4.5c-0.1,0-0.2,0-0.2,0c0.1,0,0.1,0,0.2,0.1c-1.4,1.1-3,2.3-4.8,3.5
		c-0.4-0.9-0.9-1.9-1.4-2.5c0,0.6,0.5,1.6,0.5,2.2c-0.2,0.5-0.4,1-0.7,1.5c-0.6,0.4-1.3,0.9-2,1.3h-0.2c-0.1-0.1-0.1-0.3-0.1-0.4
		c-0.5-1.1-0.2-2.4,0-3.5c0.3-1.9-5.4-7.6-3.9-9.5c-2.4,1.5-0.8,2.5-2.4,5.9c-0.1-2.1-1.1-4.3-2.9-7c-1.8,4.1-4.4,8.1-6.4,12.1v-2.5
		c0-0.3,0.5-0.5-0.5,1.1c-0.4,1-0.5,2.1-0.5,3.1l-0.9-0.2c-1.1-0.3-0.1-1.5-0.4-1.9l4.5-5.3l-4.5,2.5c-1.9,1-1-4.8-2.9-7.2
		c-0.4-0.5-0.7-0.9-1.1-1.3c0.2-0.8,0.3-1.5,0.3-2.2c-0.2,0-0.6,0.6-0.9,1.5c-6.1-7.2-12.7-10-30-7.8c-2.5-3.3-4.7-5.5-1.1,0.1
		c-2,0.3-4,0.6-6.3,1l1.1,0.3c1.7,0.4,4.2,0.8,7.2,1.9c1.7,3,2.3,6,2.4,9.1c-1.8-1.2-3.7-2.3-5.4-3.4c2,1.7,3.9,3,5.4,4.2
		c0,0.2,0,0.4,0,0.6c-1-0.3-1.9-0.6-2.9-0.9c-0.1,0.1,1.2,1.7,2.7,3.4c-0.1,0.9-0.3,1.7-0.5,2.6c-0.5-0.2-1.1-0.3-1.6-0.5
		c-0.2-1-0.4-2.1-0.6-2.9c0-1.9-4.6-6.1-3.5-7.6c-2,1.1-0.3,6,0.4,9.5c-2.8-0.8-5.6-1.5-8.5-2c-4.1-8.9-0.5-15.2,9.2-24.6
		c-2.9,2.2-6.4,5.6-8.1,8.1c-4.1,4.8-4.6,9.5-4.6,14.9c0,0.3,0,0.7,0,1c-3.9-0.5-7.4-0.4-10,0.8c0.2,0,0.5,0,0.8,0
		c-0.1,1.9-2,4.6-3.5,7h-3c0,0,0-0.1,0-0.1c0.1-0.2,0.2-0.4,0.2-0.5c0-2.2-1.2-4.8-1.2-6.7c-0.3-2.2-1.6-4.5-3.1-6.8
		c-1.3-3.8-2.3-7.1-1.5-9.3c-0.2,0.2-0.8,3.9-0.8,6c-1.1-1.5-2.1-3-2.7-4.5c-2.2-4.8-10.5-14.2-2.9-2.8c4.7,7,3.5,14.9,0.6,21.9
		c0,0.3-0.6,2.8-0.6,2.5c0-0.8,1.2-2.5,1.2-3.4c0-2.2-0.6-5.3-1.2-7.6c0-1.9-4.6-6.1-3.5-7.6c-2.6,1.4,0.9,9,0.6,11.8
		c-0.2,2-2.3,4.5-2.3,6.5c0-2.8-3.4-5.5-5-8.2c-6.1-10.3-2.8-16.9,7.9-27.2c-2.9,2.2-6.4,5.6-8.1,8.1c-4.1,4.8-4.6,9.5-4.6,14.9
		c0,3.4,0,6.7-1.2,10.1c0,0.3-0.9,1.8-1.7,2.9h-1.4c-0.2-0.5-0.3-1-0.3-1.5v-4.5c-1.7,0.6-4.6,4.5-3.5,5.6V420
		c0-2.2,1.2-9.5-1.2-10.7c0,2.4-3,6.1-4.6,8.9c-0.5-0.2-1.1-0.4-1.7-0.6c-0.3-2.2-0.8-4.9-1.6-7.6c-2-6.6-5.5-13.5-4.2-17.1
		c-0.2,0.3-1.2,5.7-0.6,7.1c2.9,6.5,2.3,12.8-0.7,17.6c-5.1,0.1-10.3,0.2-15.4,0.3c-0.2-0.5-1.6-2.4-2-2.7
		c-4.6-3.6-7.6-3.4-12.3-3.3c-2.5,0.1-4.3-8.1-10.4-7.1c-0.2,0-0.8,0.5-0.6,0.5c5,1.2,10.3,9.8,15.1,12.6c0.3,0.1-1.2,0.2-42.9,0.9
		c0.1-0.1,0.1-0.1,0.2-0.2c1.2-0.5,3.2-0.6,4.1-1.2c0-0.1,0-0.1-2.7-0.4c4.9-0.8,9.6-1,14.5-1.1c1.8,1,6.6,0.2,5.9-1.1
		c-0.3-1.1-11.8-0.8-17.5,1c-1.9,0-3.6,0.7-5.6,0.7c-1.3,0.5-2.8,1.3-3.9,2.3c-0.6,0.2-2,0.1-8.9,0.4c-0.9,0.1-1.8,0.1-2.7,0.1
		c2.8-2.6,4.7-3.2,8.1-4.3c1.7-0.9,5-1,5.7-3.4c0.7-2.5-8-1.2-9.3-1c-3.1,0.4-5.5,2.2-8.3,3.9c-4.1,0.1-7.6,2.4-11.9,5.1
		c-0.4,0-0.7,0-1,0v2.9h-6.6c-0.4-0.4-0.9-0.7-1.5-1v-5h-21.5c0.1-0.4,0.2-0.7,0.2-1.1c0-1,0-2.1,0-3.1l-0.5,0.3
		c0,1.3-2.5,2.6-2.9,3.9h-0.1c0-0.2,0-0.4,0-0.6c-1-1.1-1.5-2.8-2.4-3.8c0,0.6,0.5,1.4,0.5,2c-0.3,0.8-0.9,1.6-1.2,2.5h-1.6
		c0-0.1-0.1-0.2-0.1-0.4c-0.5-1,0-2.1,0-3.1c0.5-1.7,2.4-3.7,3.9-5.3c1-1.5,4.2-3.2,6.3-4.8c2.8-2,4.5-2.1,7.5-3.9l4.7-1.8
		c-9.3,2.7-16.6,6-21.5,9.5c-3.9,2.7-8.8,5.6-11.7,8.4c-0.2,0.2-0.7,0.7-1.2,1.3h-3.4c-0.2-0.3-0.4-0.6-0.4-0.8v-3.5
		c0-0.3,0.5-0.4-0.5,1c-0.5,1.1-0.5,2.2-0.5,3.3h-1.3c-0.8-1.5-2.7-3-3.1-4.4c-0.5-1.5-1.5-3.5-1.5-5.1c0-1.5,1-3.5,1-5.1
		c-0.7,0-2.4,4.9-2.4,6.7c-0.4,2.5-0.5,5.2-0.5,7.8h-0.3c-0.4-1.2-0.2-2.6-0.6-3.7c-1.5-4.2-4.9-8-7-12.2l-0.3-0.6
		c-0.2-0.4,0.4,5.4,0.5,5.9c0.4,2.1,2.4,4.8,2.4,6.9c0,1.2-0.5,2.5-0.9,3.7h-2.1c-0.7-1-1.6-2-2.4-2.9c-0.8-0.7-4.9-2.9-4.9-3.4
		c0,0.7,2.4,2.5,2.4,3.4c0.3,0.9,0.2,1.9,0.2,2.9h-1c-0.8-1.2-1.9-2.5-3.1-3.7c-1.5-1.6-4-3.3-6.8-4.9c0.3-0.3,0.6-0.7,0.9-1
		c1-1.5,4.2-3.2,6.3-4.8c2.8-2,4.5-2.1,7.5-3.9l4.7-1.8c-9.3,2.7-16.6,6-21.5,9.5c-0.2,0.2-0.5,0.3-0.7,0.5c-1.2-0.7-2.5-1.4-3.6-2
		c1.1,0.9,2.2,1.6,3.2,2.3c-3.7,2.5-8,5.1-10.6,7.7c-0.3,0.3-1.1,1.3-1.9,2.2h-2c-0.4-0.6-1-1.2-1-1.6v-3.5c0-0.3,0.5-0.4-0.5,1
		c-0.5,1.1-0.5,2.4-0.5,3.5c0,0.1,0,0.4,0,0.6h-1c0,0,0-0.1,0-0.1c-0.5-1.7-2.9-3.5-3.4-5.2c-0.5-1.5-1.5-3.5-1.5-5.1
		c0-1.5,1-3.5,1-5.1c-0.7,0-2.4,4.9-2.4,6.7c-0.5,2.7-0.5,5.8-0.5,8.6h0.1c-0.9-1.4-0.5-3.2-1.1-4.6c-1.5-4.2-4.9-8-7-12.2l-0.3-0.6
		c-0.2-0.4,0.4,5.4,0.5,5.9c0.4,2.1,2.4,4.8,2.4,6.9c0,1.4-0.8,3.1-1.2,4.6H60c-0.6-1.2-1.9-2.5-2.8-3.7c-0.2-0.1-0.5-0.4-0.9-0.6
		v7.1c-0.4,0-0.8,0.1-1.2,0.1c-1.3,0.2-1.8,0.1-1.8,0.6c0.8,0,1.9,0.1,3,0.3v9.4h3.5c-1.5,3.1-2.4,6.9-2.4,11.1l0.1,81.6
		c0,8.9,4.1,16.4,9.6,18h92.7v0.3l458.1,1.2H785c5.9-1,10.5-8.8,10.5-18.2l-0.1-81.6c0-3.1-0.5-6-1.4-8.6c0.6-1.7,1.2-3.1,2-4
		c0,0.9,0.4,2.5,1.1,2.6c0.8,0.2,1.1-0.9,1.2-1.5c0.3,0.1,0.6,0.4,0.9,0.2c1.6-1-0.6-2.5-1-2.7c1.8,0.1,3.3-0.4,2.1-1.5
		c-0.5-0.5-0.6-0.8-1.2-0.5c0.6-0.4,0.5-1.7-0.5-1.9c-1.3-0.2-1.6,1-2,2.4l0,0.2c-0.4-0.8-0.5-2.2-1.8-1.7c-1.1,0.4-0.7,0.9-0.9,1.7
		c-1.1-0.4-1.4,0.7-1.3,1.5c0.1,0.7,1.9,0.6,2.9,0.5c-0.6,0.8-1.3,2.3-1.9,3.9c-2.1-5.4-5.8-9-10.1-9h-3.2v-3.2h-3.7
		c0.6-8,2.4-16.2,6.2-21.3c2.9-3.9,6.3-7.3,10.8-7.6c2.4-0.1,5.3,4.4,6.9,7.8c1.7,3.5,1.1,7.5-1.5,8.7c-1.2,0.6-3.4,1.7-4.6-0.7
		c-1.2-2.3-1.2-10.8,2.2-6.4c0.9,1.1,0.2,3.5-0.1,4.5c0.1,0.3,0.2,0.6,0.4,0.9c1.7-2.5-1.6-11.3-3-8.5c-1.6,3.3-0.6,13.2,3.9,13.7
		c3.6,0.4,6.2-3.4,4.9-7.5c-1.9-6.2-7.8-19.9-13.2-19.1c-5.7,0.8-7.8,3.2-11.1,9.4c-1.7,3.1-3.7,8.1-3.8,12.5
		c-0.5,3.1-0.5,3.1-0.5,3.1c-1.1-2.7-2-5.6-3.1-8.1l2.2-0.9c-0.8,0.2-1.5,0.5-2.3,0.7c-0.9-1.8-1.9-3.5-3.4-4.7
		c-2.2-1.8-5.6-2.3-6.9-0.3c-1.4,2.2-0.7,5.7,0.8,8.5c-3.6,1.6-6.6,3.3-9.1,5c-0.3-9.3-1.3-19.7-3.1-24c2.3,1,6.6,2.7,7.3,1.1
		c0.8-1.8,0.8-4.4-2-4.4c0-1.8,1.1-2.8-1.2-4.4c-2.8-2-3.8,1.2-5.2,2.7l0.1-0.4c0-3.4,0-6.6-3.1-6.9c-2.6-0.3-3.5,2.7-2.3,4
		c-1.2-1-1.6-0.4-3,0.4c-3.4,1.8-0.1,3.8,4,5c-1,0-6.8,2-3.8,5.4c0.6,0.6,1.3,0.3,2.1,0.3c0,1.3,0.2,4.1,2,4.2
		C745.8,393.3,747.4,390.5,748.1,388.4L748.1,388.4z M94.8,408.5c-1.1,1.3-2.2,2.6-2.5,3.8c0,1-0.5,2.1,0,3.1c0,0.2,0.1,0.4,0.2,0.7
		c0.4,0.2,0.8,0.4,1.1,0.5h0.1c0.1-1.1,1-2.3,1.5-3.3c0-0.6-0.5-1.4-0.5-2c1,1,1.5,2.7,2.4,3.8c0,0.5,0,1.1-0.3,1.5h-0.1
		c0.1-0.2,0.4-0.3,0.4-0.5c0-0.9,1.2-1.8,2-2.7C98.5,411.4,96.9,410,94.8,408.5L94.8,408.5z M751.4,416.1c0,1.7,0.1,3.2,0.1,4.5H751
		c0-0.1-0.1-0.2-0.1-0.4c-0.5-1,0-2.1,0-3.1C751,416.8,751.2,416.5,751.4,416.1L751.4,416.1z M427.4,420.6c0.5-1.1,0.9-2.2,1.2-3.4
		c0.8,0.7,1.3,1.5,1.7,2c0.2,0.5,1.1,1,2,1.5H427.4L427.4,420.6z M366.1,402c1.3,0.6,2.7,1.3,4.2,2.3c1.3,0.9,5.7,7.3,6.1,10
		c-0.3-0.3-0.6-0.5-0.6-0.6c0,0.3,0.3,0.6,0.6,1.1c0,0.2,0,0.3-0.1,0.4c-0.9-0.2-1.9-0.5-2.8-0.8c-1.8-3.9-5.5-7.9-7.1-11.4
		C366.4,402.6,366.2,402.3,366.1,402L366.1,402z M339.5,413.7c2.7-0.1,6,0.2,9,1c-0.1,2-0.2,4-0.7,6h-3.9v-1.8
		c-0.7,0.2-1.5,0.9-2.2,1.8h-1.1C340.8,417.9,340.8,414.6,339.5,413.7L339.5,413.7z M354,416.9c1.5,1,2.7,2.2,3.3,3.7h-0.4
		C356,419.4,354.9,418.1,354,416.9L354,416.9z M762,406.5c1,1.6,2.3,2.9,3.5,3.4c1,0.4,2-0.7,1.6-2.3c-0.3-1.1-0.5-2.2-0.8-3.2
		c0.7-0.3,1.5-0.7,2.3-1.3l2-0.8c1.2,1.7,2.1,4.3,2.6,6.1c0.3,0.9,0.4,2.3,0.7,3.2c-0.3,3.6-0.5,6.3-0.3,9H759
		c0.1-0.4,0.2-0.7,0.2-1.1c0-1,0-2.1,0-3.1l-0.5,0.3c0,1.3-2.5,2.6-2.9,3.9h-0.1c0-0.2,0-0.4,0-0.6c-1-1.1-1.5-2.8-2.4-3.8
		c0,0.6,0.5,1.4,0.5,2c-0.3,0.8-0.9,1.6-1.2,2.5h-0.1c0-1.8,0-3.9-0.1-6.1c0.7-0.9,1.6-1.8,2.3-2.7c1-1.5,4.2-3.2,6.3-4.8
		C761.5,406.9,761.7,406.7,762,406.5L762,406.5z M766.1,403.7c-0.6-1.5-1.3-2.9-2.6-4c1.7-0.8,4.1,0.2,6,1.5
		c0.4,0.3,0.8,0.6,1.1,1.1C768.9,402.7,767.5,403.2,766.1,403.7L766.1,403.7z M702.2,412.6c-1.1,1.3-2.2,2.6-2.5,3.8
		c0,1-0.5,2.1,0,3.1c0,0.2,0.1,0.4,0.2,0.7c0.4,0.2,0.8,0.4,1.1,0.5h0.1c0.1-1.1,1-2.3,1.5-3.3c0-0.6-0.5-1.4-0.5-2
		c1,1,1.5,2.7,2.4,3.8c0,0.5,0,1.1-0.3,1.5h-0.1c0.1-0.2,0.4-0.3,0.4-0.5c0-0.9,1.2-1.8,2-2.7C705.9,415.5,704.4,414.1,702.2,412.6
		L702.2,412.6z M581.8,410.3c-0.2,0.2-0.5,0.5-0.6,0.7c-1.5,1.7-3.4,3.7-3.9,5.3c0,0.3-0.1,0.7-0.1,1c0.8,0.3,1.7,0.6,2.5,0.9
		c0.2-0.3,0.4-0.6,0.5-1c0-0.6-0.5-1.4-0.5-2c1,1,1.5,2.7,2.4,3.8c0,0.1,0,0.2,0,0.3c0.1,0,0.1,0.1,0.2,0.1c0.6-1.2,2.7-2.4,2.7-3.6
		l0.5-0.3c0,1,0,2.1,0,3.1c0,0.6-0.3,1.3-0.5,1.9h2.5c0.3-0.6,0.4-1.3,0.4-1.9C588.1,414.7,585.7,412.9,581.8,410.3L581.8,410.3z
		 M577.1,418.3c0,0.4,0,0.8,0.2,1.2c0,0.4,0.3,0.8,0.6,1.2h0.9c0-0.3,0.1-0.5,0.2-0.8C578.5,419.4,577.8,418.8,577.1,418.3
		L577.1,418.3z M173.4,419.6c3-4,13.7-14.2,15.3-10.3c0.6,1.5-11.1,8.5-15,11.6L173.4,419.6L173.4,419.6z M188.1,419.4
		c-1,0-2-0.1-3-0.1c2.6-1.2,2.7-1.4,6.1-3.1C191.2,416.4,191.2,416.4,188.1,419.4L188.1,419.4z M239,409.9c0.5,0,1.1,0,1.5,0.2
		c0.1,0.1,0,0.5-0.1,0.6c-1.8,1.6-4.6,2-6.5,0.8c-0.6-0.4,1.2-1.1,1.9-1.3C236.9,409.9,237.9,409.9,239,409.9L239,409.9z"/>
	<g display="none">
		
			<linearGradient id="SVGID_29_" gradientUnits="userSpaceOnUse" x1="684.2927" y1="1088.2509" x2="763.0568" y2="1128.3831" gradientTransform="matrix(0.2868 -0.1514 0.1514 0.2868 252.093 72.9914)">
			<stop  offset="0" style="stop-color:#F06565"/>
			<stop  offset="1" style="stop-color:#FFB5B5"/>
		</linearGradient>
		<path display="inline" fill-rule="evenodd" clip-rule="evenodd" fill="url(#SVGID_29_)" d="M617,288.6
			c-0.9-4.2,1.7-22.7,12.9-22.7c7,0,7,11,4.9,13.2c-3,3.1-6.9,4.7-11.1,6.9c4.3-1.2,8.4,0.6,9.6,2.3
			C640.6,298.6,623.1,300.1,617,288.6L617,288.6z"/>
		
			<linearGradient id="SVGID_30_" gradientUnits="userSpaceOnUse" x1="-1353.8428" y1="1127.135" x2="-1432.6063" y2="1087.0031" gradientTransform="matrix(-0.2868 0.1514 0.1514 0.2868 35.9604 187.4558)">
			<stop  offset="0" style="stop-color:#F06565"/>
			<stop  offset="1" style="stop-color:#FFB5B5"/>
		</linearGradient>
		<path display="inline" fill-rule="evenodd" clip-rule="evenodd" fill="url(#SVGID_30_)" d="M615,289.7c-3-3.1-19.7-11.4-26-2.1
			c-3.9,5.8,5.1,11.9,8.1,11.4c4.3-0.7,7.7-3,11.9-5.2c-3.4,2.9-4.2,7.3-3.5,9.2C609.9,314.8,621,301.1,615,289.7L615,289.7z"/>
		<path display="inline" fill-rule="evenodd" clip-rule="evenodd" fill="#666666" d="M614.7,286.6c0.9-0.5,2.5,0.8,3.6,2.8
			c0.8,1.6,1.1,3.2,0.8,4c0.1,0.3,0.3,0.5,0.4,0.8c1.4,2.7,2.4,5.1,2,5.3c-0.3,0.2-1.8-1.9-3.2-4.7c-0.1-0.3-0.3-0.6-0.4-0.8
			c-0.9-0.2-2.1-1.3-2.9-2.9C613.9,289.1,613.8,287.1,614.7,286.6L614.7,286.6z M606.7,279.4c0.4-0.2,0.8,0,0.9,0.3
			c0.1,0.2,0.1,0.4,0,0.6l5.8,4.8c0.1-0.1,0.2-0.2,0.3-0.2c0.1-0.1,0.2-0.1,0.4-0.1l-0.7-7.5c-0.2,0-0.4-0.1-0.5-0.3
			c-0.2-0.3-0.1-0.7,0.3-0.9c0.3-0.2,0.8-0.1,0.9,0.2c0.2,0.3,0.1,0.7-0.3,0.9c-0.1,0-0.1,0.1-0.2,0.1l0.5,7.4c0.5-0.1,1,0,1.2,0.4
			c0.2,0.5-0.1,1.1-0.7,1.5c-0.6,0.3-1.4,0.2-1.6-0.2c-0.2-0.4,0-0.8,0.3-1.2l-5.9-4.6c-0.1,0-0.1,0.1-0.2,0.1
			c-0.4,0.2-0.8,0-0.9-0.3C606.2,280,606.3,279.5,606.7,279.4L606.7,279.4z"/>
	</g>
	<g display="none">
		<g display="inline">
			<path fill-rule="evenodd" clip-rule="evenodd" fill="#FFFFFF" d="M125.3,390c0.6-6.5,22.5-10.4,17,0.4c-1.7,3.3-8.6,9.3-9.5,9
				C129.2,400.1,125.1,392.1,125.3,390L125.3,390z"/>
			<path fill-rule="evenodd" clip-rule="evenodd" fill="#FFFFFF" d="M131.6,400.5c-1.5-2.1-7.9-10.2-11.4-3.3
				c-1.6,3.2-2.3,11.7,1.7,11.7C124.9,408.9,131.6,403.5,131.6,400.5L131.6,400.5z"/>
			<path fill-rule="evenodd" clip-rule="evenodd" fill="#FFFFFF" d="M136.2,400.4c1.1,3.8,5.4,5.6,9.2,5.6c3-0.5,4.5-10.7,0.4-12.1
				C142.3,393.9,137.4,395.7,136.2,400.4L136.2,400.4z"/>
			<path fill-rule="evenodd" clip-rule="evenodd" fill="#FFFFFF" d="M127.2,411.5c0.1,2.5,7.4,2.2,11.1-0.6c3.1-2.3-1.3-7.4-5.2-7.7
				C130.8,404.3,127.2,408.9,127.2,411.5L127.2,411.5z"/>
		</g>
		<polygon display="inline" fill-rule="evenodd" clip-rule="evenodd" fill="#F06565" points="133.9,396.4 134.9,401.2 138.6,402.5 
			134.9,403.8 133.9,408.6 132.9,403.8 129.1,402.5 132.9,401.2 133.9,396.4 		"/>
	</g>
	<g display="none">
		<path display="inline" fill-rule="evenodd" clip-rule="evenodd" fill="#FFFFFF" d="M84.5,411.4c0.2,2.2,7.5,3.5,5.7-0.1
			c-0.6-1.1-2.9-3.1-3.2-3C85.8,408,84.4,410.7,84.5,411.4L84.5,411.4z"/>
		<path display="inline" fill-rule="evenodd" clip-rule="evenodd" fill="#FFFFFF" d="M86.6,407.9c-0.5,0.7-2.7,3.4-3.8,1.1
			c-0.5-1.1-0.8-3.9,0.6-3.9C84.4,405.1,86.6,406.9,86.6,407.9L86.6,407.9z"/>
		<path display="inline" fill-rule="evenodd" clip-rule="evenodd" fill="#FFFFFF" d="M88.1,407.9c0.4-1.3,1.8-1.9,3.1-1.9
			c1,0.2,1.5,3.6,0.1,4.1C90.2,410.1,88.6,409.5,88.1,407.9L88.1,407.9z"/>
		<path display="inline" fill-rule="evenodd" clip-rule="evenodd" fill="#FFFFFF" d="M85.1,404.2c0-0.8,2.5-0.7,3.7,0.2
			c1,0.8-0.4,2.5-1.7,2.6C86.3,406.6,85.1,405.1,85.1,404.2L85.1,404.2z"/>
	</g>
	<g display="none">
		<path display="inline" fill-rule="evenodd" clip-rule="evenodd" fill="#FFFFFF" d="M102.3,417.9c-0.3-3.2-11.2-5.2-8.5,0.2
			c0.8,1.7,4.3,4.6,4.7,4.5C100.4,422.9,102.4,418.9,102.3,417.9L102.3,417.9z"/>
		<path display="inline" fill-rule="evenodd" clip-rule="evenodd" fill="#FFFFFF" d="M99.2,423.1c0.7-1,3.9-5.1,5.7-1.6
			c0.8,1.6,1.1,5.8-0.9,5.8C102.5,427.3,99.2,424.6,99.2,423.1L99.2,423.1z"/>
		<path display="inline" fill-rule="evenodd" clip-rule="evenodd" fill="#FFFFFF" d="M96.9,423c-0.5,1.9-2.7,2.8-4.6,2.8
			c-1.5-0.3-2.2-5.3-0.2-6C93.9,419.8,96.3,420.7,96.9,423L96.9,423z"/>
		<path display="inline" fill-rule="evenodd" clip-rule="evenodd" fill="#FFFFFF" d="M101.4,428.6c0,1.2-3.7,1.1-5.5-0.3
			c-1.6-1.2,0.6-3.7,2.6-3.8C99.6,425,101.4,427.3,101.4,428.6L101.4,428.6z"/>
	</g>
	<g display="none">
		<g display="inline">
			<path fill-rule="evenodd" clip-rule="evenodd" fill="#F06565" d="M571.5,166.8c-16.4-9-33.6-6.1-47.4,9.7
				c-6.1,6.2,18.4,9.6,26.9,15.8c5.1,3.7,15-14.2,14.6-13.8c-2.6,6.1-2,13.9,1.1,18.5c3.6,4.6,11.2,3.5,12.8-6.1
				c0.8-4.6-4.3-18.5-6.2-21.3C573,169,571,167.5,571.5,166.8L571.5,166.8z"/>
			<path fill-rule="evenodd" clip-rule="evenodd" fill="#CF0034" d="M553.1,161.8c1.2,0.3,2.4,0.7,3.7,1.3l7.8,3l-0.3,1.1
				c-2.1-3.1-12.4-3.2-15.3-2.8c-5.8,0.8-12.4,2.2-16.8,7.3l0.2-0.1c1.7-1.9,6.5-2.8,8.7-3.5c1.2-0.3,7,0.3,7.1,0.2
				c0.1,0.1-3.6,0.3-5,1.1c-3.3,2-4.7,4.2-7.2,7c2.4-2.7,10.7-5.2,13.9-4.8c-1.9,0.3-4.1,1.8-5.5,3.5c-0.6,0.7-4.1,5.7-3.6,6.5
				c2.7-3.1,7.8-5.2,10-5.3c-1.3,0.5-4,4.7-4,7.7l4-5c1.9-2.3,2.1-2.4,1-0.1c-1.1,2.2-0.5,5.8,0.9,7.8c-0.4-0.3,4-10.4,6-10.7
				c-0.1,2.5,0.5,5.7,1.8,7.6c0.9-0.4,4.3-8.1,5.6-8.9l0,0c-1.1,1.3,2.7,8.5,3.4,9.6c-1.3-0.7-2.3,1.8-2.7,3
				c-1.4,4.3,2.4,8.4,5.6,6.9c1.2-0.6,2.8-2.2,2.8-4c-0.1-0.5-1-4.3-1.3-4c0.3-0.4,3.6-0.3,3.9,0.2c0.1-2.1-3.8-5.6-4.7-7
				c1.1-0.5,2.6-1.4,3.8-1.6c1.7,4.9,3.1,10.4,2.7,13c-1.6,9.6-9.2,10.7-12.8,6.1c-3.1-4.6-3.8-12.4-1.1-18.5
				c0.4-0.5-9.5,17.5-14.6,13.8c-8.5-6.2-33-9.6-26.9-15.8C532.8,166.6,542.8,161.8,553.1,161.8L553.1,161.8z"/>
			<path fill-rule="evenodd" clip-rule="evenodd" fill="#F29999" d="M565.6,168.9c-1.6-1.6-9.6-5-12.6-1.8c-2,2.1-3.1,7.5,1.2,8.2
				c4.5,0.7,7.8-0.9,10.2-3.6C565.2,170.8,566.3,169.6,565.6,168.9L565.6,168.9z"/>
			<path fill-rule="evenodd" clip-rule="evenodd" fill="#F29999" d="M570.8,167.9c-0.9,0.9-0.7,15.3,1.6,16.2
				C573,184.3,570.9,167.9,570.8,167.9L570.8,167.9z"/>
			<path fill-rule="evenodd" clip-rule="evenodd" fill="#F29999" d="M570.7,186.6c0.8-0.9,2-0.8,2.7,0.2c0.7,1,0.6,2.5-0.2,3.4
				c-0.8,0.9-2,0.8-2.7-0.2C569.9,189.1,569.9,187.5,570.7,186.6L570.7,186.6z"/>
			<path fill-rule="evenodd" clip-rule="evenodd" fill="#F29999" d="M568.4,188.3c0.4-0.4,1-0.4,1.3,0.1c0.3,0.5,0.3,1.2-0.1,1.6
				c-0.4,0.4-1,0.4-1.3-0.1C568,189.4,568,188.7,568.4,188.3L568.4,188.3z"/>
			<path fill-rule="evenodd" clip-rule="evenodd" fill="#F29999" d="M567.6,176.6c0.9,0.4,2-5.2,1.9-7.1c0-2.5-0.8-1.3-0.8-1.2
				c-0.6,1.3-1.2,3.1-1.4,4.9C567.2,174.4,566.8,176.3,567.6,176.6L567.6,176.6z"/>
			<path fill-rule="evenodd" clip-rule="evenodd" fill="#A8002A" d="M535,173.6c-2.3-1.1-8.8,0.6-9.4,3.9c-0.3,1.7,0.8,2.1,1.7,2.8
				c1.1,0.8,3.1,1.4,4.2,1C532.4,181.1,536.4,174.3,535,173.6L535,173.6z"/>
			<path fill-rule="evenodd" clip-rule="evenodd" fill="#A8002A" d="M535.2,180c-1.2,2.4,1.8,4,3.3,2.4c0.5-0.5,1-1.9,0.3-2.9
				C538.1,178.6,535.8,178.7,535.2,180L535.2,180z"/>
			<path fill-rule="evenodd" clip-rule="evenodd" fill="#A8002A" d="M541.5,184.5c0.5,1.9,2.2,0.2,2.5-1.3c0.1-0.6,0.3-1.5-0.3-1.7
				C542.9,181.2,541,182.6,541.5,184.5L541.5,184.5z"/>
			<path fill-rule="evenodd" clip-rule="evenodd" fill="#A8002A" d="M549.7,187.7c0.4-0.2,0.4-4.3-0.7-3.1
				C548.2,185.5,548.4,188.4,549.7,187.7L549.7,187.7z"/>
		</g>
		<path display="inline" fill-rule="evenodd" clip-rule="evenodd" fill="#F06565" d="M570.4,164c-9.8-32.6-1.5-64.4,25.4-87.5
			c10.7-10.4,10.3,36.4,17.7,53.5c4.5,10.4-24.9,25.7-24.1,25c9.8-3.9,21.4-1.2,27.6,5.5c6.1,7.7,2.7,21.7-12.2,23
			c-7.1,0.6-26.9-11.4-30.7-15.5C573.3,167.1,571.5,163.1,570.4,164L570.4,164z"/>
		<path display="inline" fill-rule="evenodd" clip-rule="evenodd" fill="#CF0034" d="M567,128.3c0.2,2.2,0.5,4.6,1,7.3l2.8,15.2
			l1.8-0.3c-4.2-4.5-2-23.9-0.8-29.4c2.5-10.8,6.2-22.9,14.8-30.3l-0.2,0.5c-3.3,2.9-5.8,11.8-7.2,15.7c-0.7,2.1-1.1,13.2-1.3,13.3
			c0.2,0.2,1.2-6.7,2.8-9.2c3.8-5.9,7.4-8.1,12.2-12.3c-4.7,4-10.2,19.2-10.5,25.3c0.9-3.5,3.7-7.3,6.5-9.7c1.2-1,9.6-6.7,10.7-5.6
			c-5.3,4.6-9.6,13.8-10.3,17.8c1.1-2.4,8-6.6,12.6-6.1l-8.4,6.7c-3.9,3.1-4.2,3.5-0.4,1.8c3.6-1.6,8.8,0.2,11.6,3.1
			c-0.3-0.9-16.7,5.7-17.6,9.4c3.9,0.3,8.5,2,11.1,4.8c-0.8,1.7-13.2,6.5-14.7,9l0,0c2.2-1.9,12.2,6.7,13.7,8.2
			c-0.7-2.5,3.2-4.1,5.1-4.5c6.8-1.8,12.1,6,9.1,11.7c-1.1,2.1-3.9,4.8-6.6,4.5c-0.8-0.2-6.3-2.6-5.7-3.2c-0.7,0.6-1.2,6.7-0.6,7.4
			c-3.2-0.2-7.6-8.1-9.4-10.1c-1,2-2.7,4.6-3.3,6.8c7,4,15,7.7,19.1,7.4c14.9-1.3,18.3-15.4,12.2-23c-6.2-6.7-17.8-9.4-27.6-5.5
			c-0.8,0.7,28.6-14.7,24.1-25c-7.4-17.1-7-63.9-17.7-53.5C578.9,91,569.3,108.9,567,128.3L567,128.3z"/>
		<path display="inline" fill-rule="evenodd" clip-rule="evenodd" fill="#F29999" d="M574.9,153.3c-2.1-3.4-5.3-19,0.1-24
			c3.7-3.4,12-4.5,12,3.7c0.1,8.6-3.2,14.5-7.7,18.5C577.8,152.8,575.7,154.6,574.9,153.3L574.9,153.3z"/>
		<path display="inline" fill-rule="evenodd" clip-rule="evenodd" fill="#F29999" d="M572.2,162.9c1.5-1.6,23.2,1.4,24,6
			C596.4,169.9,572,163.1,572.2,162.9L572.2,162.9z"/>
		<path display="inline" fill-rule="evenodd" clip-rule="evenodd" fill="#F29999" d="M600.4,166.1c-1.5,1.3-1.6,3.7-0.3,5.2
			c1.3,1.5,3.7,1.6,5.2,0.3c1.5-1.3,1.6-3.7,0.3-5.2C604.2,164.9,601.9,164.8,600.4,166.1L600.4,166.1z"/>
		<path display="inline" fill-rule="evenodd" clip-rule="evenodd" fill="#F29999" d="M603.4,162c-0.7,0.6-0.8,1.8-0.2,2.5
			c0.6,0.7,1.8,0.8,2.5,0.2c0.7-0.6,0.8-1.8,0.2-2.5C605.3,161.4,604.1,161.3,603.4,162L603.4,162z"/>
		<path display="inline" fill-rule="evenodd" clip-rule="evenodd" fill="#F29999" d="M586,158.5c0.4,1.8-8.3,2.7-11.1,2.3
			c-3.8-0.5-1.8-1.7-1.7-1.8c2.2-0.9,5-1.7,7.7-1.8C582.8,157.2,585.6,156.9,586,158.5L586,158.5z"/>
		<path display="inline" fill-rule="evenodd" clip-rule="evenodd" fill="#A8002A" d="M588.8,96.5c-1.1-4.5,2.9-16.6,8.1-16.9
			c2.7-0.2,3,1.8,3.9,3.7c1,2.2,1.4,6.2,0.6,8C600.7,93,589.5,99.2,588.8,96.5L588.8,96.5z"/>
		<path display="inline" fill-rule="evenodd" clip-rule="evenodd" fill="#A8002A" d="M598.5,98c3.9-1.8,5.6,4.2,2.9,6.6
			c-0.9,0.8-3.1,1.5-4.4,0C595.7,103.2,596.4,98.9,598.5,98L598.5,98z"/>
		<path display="inline" fill-rule="evenodd" clip-rule="evenodd" fill="#A8002A" d="M603.8,110.7c2.7,1.3-0.2,4.2-2.5,4.6
			c-0.9,0.1-2.3,0.2-2.5-0.8C598.6,112.7,601.1,109.4,603.8,110.7L603.8,110.7z"/>
		<path display="inline" fill-rule="evenodd" clip-rule="evenodd" fill="#A8002A" d="M606.7,126.8c-0.4,0.7-6.6,0-4.6-1.9
			C603.8,123.4,608.2,124.4,606.7,126.8L606.7,126.8z"/>
		<path display="inline" fill-rule="evenodd" clip-rule="evenodd" fill="#333333" d="M561.3,159.5c1.9-1.7,6.5,0.5,10.3,5
			c2.9,3.5,4.5,7.3,4.2,9.6c0.5,0.6,1,1.2,1.6,1.8c5.1,6,8.7,11.5,8,12.1c-0.7,0.6-5.4-3.8-10.5-9.9c-0.5-0.6-1-1.2-1.5-1.9
			c-2.3,0-5.7-2.1-8.6-5.6C561,166.3,559.5,161.2,561.3,159.5L561.3,159.5z M538,145.9c0.7-0.6,1.8-0.5,2.4,0.2
			c0.3,0.4,0.4,0.9,0.3,1.4l16.6,8.8c0.2-0.3,0.4-0.5,0.7-0.8c0.2-0.2,0.5-0.4,0.8-0.5l-6.2-18.3c-0.5,0-0.9-0.1-1.3-0.5
			c-0.6-0.7-0.6-1.8,0.1-2.5c0.7-0.7,1.8-0.7,2.4,0c0.6,0.7,0.6,1.8-0.1,2.5c-0.1,0.1-0.3,0.2-0.4,0.3l5.6,18.4
			c1.1-0.6,2.4-0.5,3.1,0.3c0.9,1,0.5,2.9-0.8,4.1c-1.3,1.2-3.1,1.3-4,0.3c-0.7-0.8-0.6-2,0-3.1l-16.8-8.2c-0.1,0.1-0.2,0.3-0.3,0.4
			c-0.7,0.6-1.8,0.5-2.4-0.2C537.2,147.6,537.3,146.5,538,145.9L538,145.9z"/>
	</g>
	<g display="none">
		
			<linearGradient id="SVGID_31_" gradientUnits="userSpaceOnUse" x1="7885.7271" y1="-386.9282" x2="8089.7021" y2="205.4576" gradientTransform="matrix(4.870000e-02 3.700000e-03 -2.600000e-03 6.910000e-02 -116.0127 96.9599)">
			<stop  offset="0.3" style="stop-color:#75C5F0"/>
			<stop  offset="0.7" style="stop-color:#28A8ED"/>
		</linearGradient>
		<path display="inline" fill-rule="evenodd" clip-rule="evenodd" fill="url(#SVGID_31_)" d="M238.3,116c3.1,0.2,8.2,1.6,11.1,1.9
			c18.1,1.7,58.4-0.7,58.1-0.8c-1-0.1-1.7,2.1-1.5,5.5c-2.1-0.1-3.9-2.1-6.3-2c-21.2,0.6-58.5-1.8-59.9,4.3
			C239.7,124.9,236.3,114.4,238.3,116L238.3,116z"/>
		
			<linearGradient id="SVGID_32_" gradientUnits="userSpaceOnUse" x1="1318.0555" y1="-6896.9214" x2="1534.7167" y2="-6141.334" gradientTransform="matrix(1.690000e-02 4.580000e-02 -4.580000e-02 1.690000e-02 -114.537 146.3085)">
			<stop  offset="6.000000e-02" style="stop-color:#7FC8FF"/>
			<stop  offset="0.94" style="stop-color:#FFFFFF"/>
		</linearGradient>
		<path display="inline" fill-rule="evenodd" clip-rule="evenodd" fill="url(#SVGID_32_)" d="M229.2,119.8c-1-3.4-2.5-6.7-4.4-9.8
			c-9.3,0.2-17.2-9.8-19.5-16.3c-0.3,0-0.7,0-1,0c-0.7,2.3-0.7,4.9,0.1,6.7c2.6,1.5,5.1,3.1,7.2,4.8c9,7.2,15.2,14.9,17.2,15.3
			C229.2,120.7,229.4,120.4,229.2,119.8L229.2,119.8z M203.3,93.6c-1.7-0.3-3.5-0.6-4.8-1.8c-1.3-1.2-2.5-2.9-3.1-4.5
			c-2-0.5-4.1-0.1-6.3,0.3c1,2.4,2.8,4.9,5.4,6.8c2.3,1.7,5.4,3.4,8.6,5.3C202.5,97.7,202.8,95.6,203.3,93.6L203.3,93.6z
			 M224.1,108.9c-2.6-4-5.8-7.7-9-11.2c-1.4-1.5-3-3.2-4.8-4.8c-1,0.4-2,0.8-3.1,0.8c-0.3,0-0.5,0-0.8,0
			C209,101,215.9,108.2,224.1,108.9L224.1,108.9z M195.2,86.4c0-0.2,0-0.6,0-0.8c-0.8-0.7-1.8-1-3-1.1c0,0,0,0,0,0
			c-1.3-0.3-2.6-0.3-4-0.4c0.1,0.8,0.3,1.8,0.6,2.7C190.7,86.2,192.9,85.9,195.2,86.4L195.2,86.4z M195.4,84.6
			c0-0.1-0.1-0.3-0.1-0.4c0.1-0.5,0.1-1,0.3-1.5c-0.4-0.2-0.8-0.3-1.2-0.5c-2-0.7-5.8-2.1-6.1-0.2c-0.1,0.3-0.1,0.7-0.1,1
			c1.4,0.1,2.8,0.2,4.2,0.5c0.4,0,0.9,0.1,1.2,0.2C194.2,84,194.8,84.1,195.4,84.6L195.4,84.6z M209.4,92.1c-3.9-3.5-8.5-7-13-9.1
			c-0.9,3-0.2,4.6,2,7.3C200.5,93,205.8,93.4,209.4,92.1L209.4,92.1z"/>
		
			<linearGradient id="SVGID_33_" gradientUnits="userSpaceOnUse" x1="6340.8604" y1="-268.1117" x2="7386.1548" y2="-628.0354" gradientTransform="matrix(4.870000e-02 3.000000e-03 -3.000000e-03 4.870000e-02 -132.9507 114.2717)">
			<stop  offset="1.000000e-02" style="stop-color:#7FC8FF"/>
			<stop  offset="0.99" style="stop-color:#FFFFFF"/>
		</linearGradient>
		<path display="inline" fill-rule="evenodd" clip-rule="evenodd" fill="url(#SVGID_33_)" d="M224.7,123.7l1.9,1.2
			c-0.5-1.5-1.2-3.2-1.8-4.3c-0.7-1.2-1.6-2.4-2.5-3.5c-0.4,0-0.7-0.1-1.1-0.2c-3.7-0.3-7.5-0.5-11.2-0.2c-2.5,0.2-4.9,0.6-7.1,1.2
			c0,0-0.1,0-0.1,0c5.2,1.4,10.6,2.8,15.4,3.6C219.8,122,223.5,122.6,224.7,123.7L224.7,123.7z M221.3,116c-0.2-0.3-0.5-0.5-0.7-0.8
			c-11-0.9-29.6-4.1-37.2-15c-1.8,0.2-4,0.6-5.5,1.4c1,10.6,14.9,13.8,23.3,16.1c1.4-0.8,3.5-1,4.3-1.4c0,0-0.1,0-0.1,0
			c-2.1-0.1-4.6-0.4-6.8-0.7c-3.3-0.5-10.6-1.8-13.7-4.5c-0.2-0.2-0.2-0.5,0-0.7c2.3-2,16.5,1.7,18.4,2.4c0.8,0.3,7.1,1.9,7.1,3
			C214.2,115.7,217.6,115.8,221.3,116L221.3,116z M207.9,115.5c-1.6-1.1-6.6-2.3-8.6-2.8c-2.1-0.5-11.6-2.5-13-1.7
			c0.6,1.4,8.5,3.2,11.3,3.6C200.6,115,204.9,115.5,207.9,115.5L207.9,115.5z M219.6,114.2c-5.2-5.2-12.1-9.3-19.1-11.7
			c-1.1,0.8-2.7,1.5-4.2,1.4c-2-0.1-3.2-0.6-4-1.8c-0.2-0.2-0.8-1.2-0.8-1.4c-0.1-0.1-0.2-0.2-0.2-0.4c-2.3-0.3-4.6-0.4-6.9-0.2
			c0,0,0,0,0,0.1c1.9,3.3,7.7,7.2,15.5,10C205.7,112.3,212.3,113.3,219.6,114.2L219.6,114.2z M199.4,102.1c-2.3-0.7-4.6-1.3-6.9-1.6
			l0,0c0.3,0.4,0.6,0.8,0.8,1.3l0,0h0h0c0.2,0-0.3-0.3,0.4,0.3C195.1,103.2,197.9,103,199.4,102.1L199.4,102.1z"/>
		<path display="inline" fill-rule="evenodd" clip-rule="evenodd" fill="#7F7F7F" d="M238.3,116c3.1,0.2,8.2,1.6,11.1,1.9
			c4.3,0.4,9.9,0.6,15.8,0.6c0.2,0.7,0.1,1.4,0.1,2.2c-13.5,0.1-24.8,1-25.6,4.2C239.7,124.9,236.3,114.4,238.3,116L238.3,116z
			 M266.7,118.5c1.9,0,3.8,0,5.7,0c0.1,0.3,0.2,0.6,0.2,0.9c0,0.5,0,0.9,0.1,1.3c-2,0-4,0-6,0C266.8,119.9,266.8,119.2,266.7,118.5
			L266.7,118.5z M273.9,118.4c2.9,0,5.7-0.1,8.5-0.2c0,0.8-0.1,1.6-0.2,2.4c-2.6,0-5.3,0-8,0C274,119.9,274,119.2,273.9,118.4
			L273.9,118.4z M283.8,118.2c2-0.1,4-0.1,5.9-0.2v2.7c-2,0-4,0-6.1,0C283.7,119.8,283.7,119,283.8,118.2L283.8,118.2z M291.1,117.9
			c2.8-0.1,5.4-0.2,7.7-0.3c0.5,0.9,0.6,2,0.8,3c-2.6,0.1-5.5,0.1-8.5,0.1V117.9L291.1,117.9z M300.3,117.5c4.5-0.2,7.3-0.4,7.2-0.4
			c-1-0.1-1.7,2.1-1.5,5.5c-1.6-0.1-3.1-1.3-4.8-1.8c-0.2-0.8-0.4-1.6-0.5-2.4C300.5,118.1,300.5,117.8,300.3,117.5L300.3,117.5z"/>
		<path display="inline" fill-rule="evenodd" clip-rule="evenodd" fill="#999999" d="M234.4,116c4-0.4,7.4,1.7,7.7,4.6
			c0.3,2.9-2.8,5.6-6.7,5.9c-4,0.4-8.3-1.1-8.6-4C226.5,119.6,230.4,116.4,234.4,116L234.4,116z"/>
		
			<linearGradient id="SVGID_34_" gradientUnits="userSpaceOnUse" x1="7847.9727" y1="1419.3672" x2="7863.8613" y2="2329.6411" gradientTransform="matrix(4.700000e-02 -1.300000e-02 1.300000e-02 4.700000e-02 -133.8126 102.6664)">
			<stop  offset="0.24" style="stop-color:#7FC8FF"/>
			<stop  offset="0.76" style="stop-color:#FFFFFF"/>
		</linearGradient>
		<path display="inline" fill-rule="evenodd" clip-rule="evenodd" fill="url(#SVGID_34_)" d="M234.6,117.4c0.6-4.9,2.1-9.5,4.2-14
			c0.1,0,0.1-0.1,0.2-0.1c1.7-1.5,4.8-2.7,7-3.8c2.9-0.8,5.7-1.7,8.7-1.7c-10.1,10-16.7,19.9-19.3,20.5
			C234.8,118.6,234.5,118.3,234.6,117.4L234.6,117.4z M239.6,101.7c0.4-0.7,0.7-1.4,1.1-2.1c5.8-5.2,12.9-10.4,19-15.3
			c3.2-2.6,5.1-5,7.8-8.2c0.4-0.5,2.9-3,3.3-3c3,1.2,7.5-0.9,10.3-2c0,0,0,0,0,0.1c0.6,2.1,0.6,3.8,0.4,6c-0.6,0.7-1.3,1.4-2.1,2.1
			c-5.6,4.8-15.9,10.3-22.5,16.5c-0.4,0.4-0.8,0.8-1.2,1.2c-1.2,0-2.4,0-3.6,0.1c1.6-1.5,3.2-3,4.8-4.4c1.1-1,2.2-2.1,3.4-3.1
			c2.4-2.2,9.5-6.4,11.8-7.9c0.6-0.4,0.7-1.1,0.6-1.5c-0.2-0.6-0.6-1-1.3-0.9c-5,1.1-9.9,4.7-13.9,7.9c-3.4,2.7-11.6,9.6-14.4,12.6
			c-0.6,0.2-2.2,1.1-2.7,1.5C240.2,101.5,239.9,101.6,239.6,101.7L239.6,101.7z M281.9,70.7c1.8-0.9,2.8-1.3,4-2.3
			c-0.5,2.5-1.6,5.1-3.4,7.5c0-1.9,0-3.2-0.5-5C282,70.8,281.9,70.8,281.9,70.7L281.9,70.7z M250.5,97.4c-1.5,0.1-3.3,0.9-4.8,1.3
			c-0.1,0-0.2,0.1-0.3,0.1c2.5-2.4,7.7-6.6,10.4-9c3.4-2.9,9.2-7.5,14-9.1l1.7-0.5c0.5,0,0.3,0.7,0,0.7c-3.3,1.7-8.6,5.4-11.8,7.9
			c-1.2,0.9-2.4,2-3.4,3.1C254.9,93.2,251.6,95.6,250.5,97.4L250.5,97.4z M242.2,97c2.4-4,5.1-7.8,7.9-11.4c0.7-0.9,1.5-1.9,2.3-2.9
			c4.6-2,8.2-4.9,9.4-10c2.5-2.3,5.1-4.4,7.8-6.3c-0.1,0.3-0.3,0.5-0.3,0.8c-0.8,1.5-1.2,4.2,0.3,5.4c-2.4,2.4-8.7,10-11.6,11.9
			c-5,4.1-10.3,7.7-15.2,12.1C242.6,96.7,242.4,96.9,242.2,97L242.2,97z M253.8,81.1c1.9-2.2,4.1-4.6,6.4-6.8
			c-0.1,0.7-0.5,1.4-0.9,2.1C258.2,78.2,255.6,80.2,253.8,81.1L253.8,81.1z M270.7,72.1L270.7,72.1L270.7,72.1
			c-1.1-0.6-1.3-1.9-0.9-3.5c0.1-0.3,1-2.7,1.1-3c1.9-1.2,3.8-2.3,5.8-3.1c2.7-1.2,8-3.3,8.9-0.9c0.5,1.4,0.7,3.3,0.5,5.4
			c-1.7,1.5-3.8,2.7-5.8,3.5C276.6,71.9,272.8,73.2,270.7,72.1L270.7,72.1z"/>
		<path display="inline" fill-rule="evenodd" clip-rule="evenodd" fill="#666666" d="M221.6,122.6c-0.1-1.4,1.3-3.5,4.5-3.2
			c3.2,0.3,4,1.9,4,3.3c0,1.3-1,2.8-3.3,3.1c0.1,0.3,0.1,0.8,0,1.1l-0.3,0.1c-0.1-0.2-0.5-0.4-0.7-0.5c-0.6,0.2-0.9,0.6-1.4,0.4
			c-0.1-0.3-0.5-0.6-0.6-1l-0.1-0.2C222.1,125,221.6,123.6,221.6,122.6L221.6,122.6z"/>
		
			<linearGradient id="SVGID_35_" gradientUnits="userSpaceOnUse" x1="7695.3916" y1="2084.7871" x2="7678.6709" y2="2275.9048" gradientTransform="matrix(4.700000e-02 -1.300000e-02 1.300000e-02 4.700000e-02 -131.0626 103.0141)">
			<stop  offset="8.000000e-02" style="stop-color:#7FC8FF"/>
			<stop  offset="0.92" style="stop-color:#FFFFFF"/>
		</linearGradient>
		<path display="inline" fill-rule="evenodd" clip-rule="evenodd" fill="url(#SVGID_35_)" d="M237.3,117.8l-1.8,1.1
			c0.4-1,1-2.2,1.6-3c0.7-0.9,1.4-1.8,2.3-2.6c0.1,0,0.2,0,0.3,0c2.9-0.4,5-0.8,7.9-1.7c5.2-1.6,10.5-5.1,15.3-10.2
			c0.4,0.1,0.8,0.1,1.2,0.1c-2.9,2.7-5.3,5.2-7.3,8.7c-0.2,0.2-0.4,0.5-0.5,0.7c-4.3,1.6-8.7,3.2-12.7,4.4
			C242.1,115.7,238.5,116.8,237.3,117.8L237.3,117.8z M265.3,101.5c2.6-0.2,5.4-1.2,7.7-2.4c1-0.5,2.2-1.3,3-2.2
			c0,0.1,0.1,0.1,0.2,0.2c1.4,0.6,2.8,0.8,4.2,1.6c-3.7,4.4-12.2,7.6-15.9,9c-2.1,0.8-4.3,1.7-6.6,2.5
			C259.3,107.4,262.9,104.1,265.3,101.5L265.3,101.5z M276.6,96.3c0.3-0.3,0.6-0.7,0.8-1.1l0,0c0,0,0.1-0.1,0.1-0.1
			c1.6-0.2,3.3-0.3,4.5-0.1c-0.1,1-0.5,2-1.1,3C279.5,97.2,278.1,96.9,276.6,96.3L276.6,96.3z M240.5,112.2
			c5.1-4.9,12.5-9.4,20.1-12.5c0.3,0.2,0.9,1,1.5,1.5c-2.1,2-8,7.5-14.7,9.6C244.9,111.4,242.9,111.9,240.5,112.2L240.5,112.2z
			 M261.5,99.3c4.7-1.9,9.7-3.4,14.7-4c-2.6,3.4-6.6,4.7-10.6,5.2C264.7,100.6,262.4,100.9,261.5,99.3L261.5,99.3z"/>
		
			<linearGradient id="SVGID_36_" gradientUnits="userSpaceOnUse" x1="3.1163" y1="602.3694" x2="-1.0329" y2="595.7294" gradientTransform="matrix(1 0 0 1 229.0947 -478.876)">
			<stop  offset="0.11" style="stop-color:#B9F076"/>
			<stop  offset="0.89" style="stop-color:#60BA06"/>
		</linearGradient>
		<path display="inline" fill-rule="evenodd" clip-rule="evenodd" fill="url(#SVGID_36_)" d="M229.1,116.4c2.1-0.6,4.2,0.7,4.8,2.7
			c0.6,2.1-0.7,4.2-2.7,4.8c-2.1,0.6-4.2-0.7-4.8-2.7C225.8,119.1,227,117,229.1,116.4L229.1,116.4z"/>
		<path display="inline" fill-rule="evenodd" clip-rule="evenodd" fill="#5BA630" d="M231,123.1c0.7-0.3,1.5-1,1.7-1.8
			c0.1-0.3,0.3-1.4-0.6-1.2c-0.5,0.1-0.7,0.9-1.3,1.4c-0.4,0.4-1.5,0.8-1.6,1.1C229.1,123.3,230.4,123.4,231,123.1L231,123.1z"/>
		<path display="inline" fill-rule="evenodd" clip-rule="evenodd" fill="#FFFFFF" d="M228.4,117.9c0.5-0.1,1,0.1,1.1,0.6
			c0.1,0.5-0.1,1-0.6,1.1c-0.5,0.1-1-0.1-1.1-0.6C227.7,118.5,228,118,228.4,117.9L228.4,117.9z"/>
		<path display="inline" fill-rule="evenodd" clip-rule="evenodd" fill="#FFFFFF" d="M229.6,117.3c0.2-0.1,0.4,0.1,0.4,0.2
			c0.1,0.2-0.1,0.4-0.2,0.4c-0.2,0.1-0.4-0.1-0.4-0.2C229.3,117.6,229.4,117.4,229.6,117.3L229.6,117.3z"/>
		
			<linearGradient id="SVGID_37_" gradientUnits="userSpaceOnUse" x1="2.9515" y1="601.9942" x2="-0.9784" y2="595.705" gradientTransform="matrix(1 0 0 1 220.9766 -479.71)">
			<stop  offset="0.11" style="stop-color:#B9F076"/>
			<stop  offset="0.89" style="stop-color:#60BA06"/>
		</linearGradient>
		<path display="inline" fill-rule="evenodd" clip-rule="evenodd" fill="url(#SVGID_37_)" d="M221,115.6c2-0.5,4,0.6,4.6,2.6
			c0.5,2-0.6,4-2.6,4.6c-2,0.5-4-0.6-4.6-2.6C217.8,118.2,219,116.1,221,115.6L221,115.6z"/>
		<path display="inline" fill-rule="evenodd" clip-rule="evenodd" fill="#5BA630" d="M222.8,121.9c0.7-0.3,1.4-0.9,1.6-1.7
			c0.1-0.3,0.3-1.3-0.5-1.1c-0.5,0.1-0.7,0.8-1.2,1.4c-0.4,0.4-1.4,0.8-1.5,1.1C221,122.1,222.2,122.2,222.8,121.9L222.8,121.9z"/>
		<path display="inline" fill-rule="evenodd" clip-rule="evenodd" fill="#FFFFFF" d="M220.5,116.9c0.4-0.1,0.8,0.1,0.9,0.5
			c0.1,0.4-0.1,0.8-0.5,0.9c-0.4,0.1-0.8-0.1-0.9-0.5C219.9,117.4,220.1,117,220.5,116.9L220.5,116.9z"/>
		<path display="inline" fill-rule="evenodd" clip-rule="evenodd" fill="#FFFFFF" d="M221.4,116.7c0.1,0,0.3,0,0.3,0.2
			c0,0.1,0,0.3-0.2,0.3c-0.1,0-0.3,0-0.3-0.2C221.2,116.8,221.3,116.7,221.4,116.7L221.4,116.7z"/>
	</g>
	<g display="none">
		<g display="inline">
			<path fill-rule="evenodd" clip-rule="evenodd" fill="#0059B8" d="M668.7,238.6c4.9-6.6,33.5-27.5,46.5-13.9
				c8.1,8.5-7.1,22.7-12.6,23c-7.8,0.5-14.4-2.2-22.4-4.4c6.7,3.7,8.9,11,8,14.5C682.4,280.1,659.9,260.8,668.7,238.6L668.7,238.6z"
				/>
			<path fill-rule="evenodd" clip-rule="evenodd" fill="#0059B8" d="M664.8,237.5c0.8-7.7-7.1-38.6-27.3-34.1
				c-12.6,2.8-10.6,21.7-6.4,24.7c5.9,4.2,13.2,5.4,21.2,7.5c-8-0.3-15.1,4.4-16.9,7.7C624.1,264.1,656,259.7,664.8,237.5
				L664.8,237.5z"/>
		</g>
		<path display="inline" fill-rule="evenodd" clip-rule="evenodd" fill="#666666" d="M668.8,233.1c1.7,0.5,1.9,4.1,0.3,8
			c-1.2,3-3.1,5.4-4.7,6.1c-0.2,0.5-0.4,1.1-0.6,1.6c-2.1,5.3-4.3,9.5-5,9.3c-0.6-0.2,0.6-4.6,2.7-9.9c0.2-0.5,0.4-1.1,0.7-1.6
			c-0.8-1.4-0.6-4.2,0.6-7.2C664.3,235.5,667,232.7,668.8,233.1L668.8,233.1z M669.5,214.1c0.6,0.2,1,0.9,0.7,1.5
			c-0.1,0.3-0.4,0.6-0.8,0.7l0,13.2c0.2,0,0.5,0,0.7,0.1c0.2,0.1,0.4,0.1,0.6,0.2l9.5-10.6c-0.2-0.3-0.2-0.6-0.1-1
			c0.2-0.6,1-1,1.6-0.9c0.7,0.2,1,0.8,0.8,1.4c-0.2,0.6-1,1-1.6,0.9c-0.1,0-0.2-0.1-0.3-0.1l-9.8,10.3c0.8,0.5,1.1,1.2,0.8,1.9
			c-0.4,0.9-1.6,1.4-2.8,1c-1.2-0.3-1.9-1.3-1.5-2.2c0.3-0.7,1.1-1.1,2-1.1l-0.5-13.1c-0.1,0-0.2,0-0.4-0.1c-0.6-0.2-1-0.9-0.7-1.5
			C668.1,214.3,668.8,213.9,669.5,214.1L669.5,214.1z"/>
		<g display="inline">
			<path fill-rule="evenodd" clip-rule="evenodd" fill="#1298EB" d="M707.5,222.2c-3.4-0.9-13.5,3.3-14.6,7.2
				c-0.5,1.4,5.1,1.6,5.6,1.7c3.3,0.1,7.4-0.4,10.2-2.4C712.5,225.6,710.9,223.1,707.5,222.2L707.5,222.2z"/>
			<path fill-rule="evenodd" clip-rule="evenodd" fill="#1298EB" d="M703,234.8c1.3,1.9,8.8,1.6,9.9-1.3
				C714,231,701.6,232.6,703,234.8L703,234.8z"/>
			<path fill-rule="evenodd" clip-rule="evenodd" fill="#1298EB" d="M709.6,239.1c-0.7-1.2-5.4-2.4-6.1-0.6
				C702.9,240.1,710.4,240.9,709.6,239.1L709.6,239.1z"/>
			<path fill-rule="evenodd" clip-rule="evenodd" fill="#1298EB" d="M701.4,244.7c1.3-1.2-2.8-6.6-3.7-4.5c-0.4,1.1-0.1,1.8,0.8,3.1
				C699.2,244.3,700.2,245.8,701.4,244.7L701.4,244.7z"/>
		</g>
		<path display="inline" fill-rule="evenodd" clip-rule="evenodd" fill="#1298EB" d="M644.9,205.1c3.4,0.9,8.5,9.3,6.6,13
			c-0.5,1.4-5.2-1.2-5.7-1.4c-2.7-1.6-5.6-4-6.5-7C638.4,205.4,641.4,204.1,644.9,205.1L644.9,205.1z"/>
		<path display="inline" fill-rule="evenodd" clip-rule="evenodd" fill="#1298EB" d="M639.4,217.4c-2.4,0.9-8.2-3-7.1-5.9
			C633.3,209,642.1,216.3,639.4,217.4L639.4,217.4z"/>
		<path display="inline" fill-rule="evenodd" clip-rule="evenodd" fill="#1298EB" d="M631,217.6c1.4-0.6,6.1,0.7,5.4,2.5
			C635.7,221.7,629,218.7,631,217.6L631,217.6z"/>
		<path display="inline" fill-rule="evenodd" clip-rule="evenodd" fill="#1298EB" d="M633.5,226.2c-0.2-1.6,7-3.9,6.2-1.8
			c-0.4,1.1-1.2,1.5-2.8,2.1C635.6,226.9,633.7,227.7,633.5,226.2L633.5,226.2z"/>
		<path display="inline" fill-rule="evenodd" clip-rule="evenodd" fill="#003F87" d="M662.8,233.4c0,0-1.5-9.2-11.7-12.4
			c-4.7-1.5-5.4-1-4.3-0.1c1.1,0.9,3,1.6,5.8,3.3C656.9,226.8,663.7,236.5,662.8,233.4L662.8,233.4z"/>
		<path display="inline" fill-rule="evenodd" clip-rule="evenodd" fill="#1298EB" d="M649,238.6c0,0-4.7-0.7-8.3,2
			c-2.6,1.9-4,3.9-4.9,6c-0.8,2-1.7,8.2,0.8,7.9c0.9-0.1,1.4-1.1,1.3-1.8c-0.8-4.9,1.2-8.8,4.6-11.9
			C644.3,239.1,649,238.6,649,238.6L649,238.6z"/>
		<path display="inline" fill-rule="evenodd" clip-rule="evenodd" fill="#1298EB" d="M642,246.3c0.9,0.3,1.3,2.3,0.9,4.6
			c-0.4,2.3-1.5,4-2.5,3.7s-1.3-2.3-0.9-4.6C640,247.7,641.1,246,642,246.3L642,246.3z"/>
		<path display="inline" fill-rule="evenodd" clip-rule="evenodd" fill="#1298EB" d="M646.6,250.2c0.6,0,1,0.8,0.9,1.8
			c-0.1,1-0.6,1.8-1.2,1.8c-0.6,0-1-0.8-0.9-1.8C645.5,251.1,646.1,250.3,646.6,250.2L646.6,250.2z"/>
		<path display="inline" fill-rule="evenodd" clip-rule="evenodd" fill="#003F87" d="M661.5,234.2c-3.8,0-5.7,0-11-1.6
			c-5.3-1.6-3.8-3.3-1.9-4c1.9-0.7,4.8-1.5,7,0.7C657.8,231.5,661.5,234.2,661.5,234.2L661.5,234.2z"/>
		<path display="inline" fill-rule="evenodd" clip-rule="evenodd" fill="#003F87" d="M649.6,241.4c0,0,3.6-3.5,7.1-4.5
			c3.5-1,5.2,0.7,5.4,1.4c0.1,0.7-0.7,0.5-4.9,0.3C653.7,238.5,649.3,242.5,649.6,241.4L649.6,241.4z"/>
		<path display="inline" fill-rule="evenodd" clip-rule="evenodd" fill="#003F87" d="M661.4,239.6c-0.1-0.2-2.9,0.3-4,0.7
			c-2.7,1.1-4.4,2-7.3,4.2c-0.7,0.5-2.5,2.3-2.6,2.9c-0.1,0.6,4-2.4,6.6-3.9C657.8,241.4,661.5,239.8,661.4,239.6L661.4,239.6z"/>
		<path display="inline" fill-rule="evenodd" clip-rule="evenodd" fill="#003F87" d="M656.9,243.7c-1.6,1.2-2.4,2.9-2.3,3
			c0.2,0.2,0.9-0.4,2.4-1.5c1.8-1.4,2.1-2,3.5-3c0.2-0.2,0.5-0.4,0.4-0.5c-0.1-0.1-0.6,0-0.8,0C659.2,242.2,658.2,242.8,656.9,243.7
			L656.9,243.7z"/>
		<g display="inline">
			<path fill-rule="evenodd" clip-rule="evenodd" fill="#003F87" d="M673.4,236.3c0,0,7.8-6.7,18.3-4.2c4.8,1.1,5.1,1.8,3.5,2
				c-1.5,0.2-3.6-0.2-7-0.2C683,233.9,670.6,238.4,673.4,236.3L673.4,236.3z"/>
			<path fill-rule="evenodd" clip-rule="evenodd" fill="#1298EB" d="M680.9,247.3c0,0,4.2,1.8,5.2,5.7c0.7,2.8,0.4,5.1-0.4,7.2
				c-0.8,2-4.5,7.4-6.4,5.9c-0.6-0.5-0.3-1.6,0.3-2.1c4.1-3.5,5.4-7.7,4.8-11.8C684.2,250,680.9,247.3,680.9,247.3L680.9,247.3z"/>
			<path fill-rule="evenodd" clip-rule="evenodd" fill="#1298EB" d="M680.9,256.9c-0.9-0.3-2.8,1.2-4.1,3.3
				c-1.3,2.1-1.6,3.9-0.7,4.2c0.9,0.3,2.8-1.2,4.1-3.3C681.5,259.1,681.8,257.2,680.9,256.9L680.9,256.9z"/>
			<path fill-rule="evenodd" clip-rule="evenodd" fill="#1298EB" d="M674.4,257.8c-0.4-0.3-1.3,0.1-2,1c-0.6,0.8-0.8,1.8-0.3,2.1
				c0.4,0.3,1.3-0.1,2-1C674.6,259,674.8,258.1,674.4,257.8L674.4,257.8z"/>
			<path fill-rule="evenodd" clip-rule="evenodd" fill="#003F87" d="M674,237.6c3,1.9,4.6,2.8,10,4.1c5.4,1.3,5.4-0.8,4.4-2.2
				c-1-1.5-2.7-3.6-6.1-2.9C678.9,237.3,674,237.6,674,237.6L674,237.6z"/>
			<path fill-rule="evenodd" clip-rule="evenodd" fill="#003F87" d="M678.3,249.3c0,0-0.4-4.6-2.4-7.1c-2.1-2.5-4.7-2-5.3-1.5
				c-0.6,0.5,0.2,0.8,3.7,2.6C677.1,244.9,677.7,250.3,678.3,249.3L678.3,249.3z"/>
			<path fill-rule="evenodd" clip-rule="evenodd" fill="#003F87" d="M670.1,242c0.2-0.2,2.1,1.7,2.7,2.6c1.4,2.2,2.1,3.8,2.9,7
				c0.2,0.8,0.3,3.1,0,3.6c-0.4,0.5-1.5-3.9-2.5-6.3C671.8,245.2,669.9,242.1,670.1,242L670.1,242z"/>
			<path fill-rule="evenodd" clip-rule="evenodd" fill="#003F87" d="M670.8,247.5c0.4,1.7-0.2,3.5-0.4,3.6c-0.3,0.1-0.5-0.8-0.8-2.4
				c-0.4-2-0.3-2.6-0.7-4.1c-0.1-0.2-0.1-0.6,0-0.6c0.2-0.1,0.5,0.3,0.6,0.4C670,245.1,670.4,246.1,670.8,247.5L670.8,247.5z"/>
		</g>
		<path display="inline" fill-rule="evenodd" clip-rule="evenodd" fill="#4C4C4C" d="M669.5,214.1c1,0.3,1,1.8-0.1,2.2l0,13.1
			c0,0-0.1,0-0.1,0l-0.5-13c-0.2,0-0.5-0.1-0.7-0.2C669,215.6,669.3,215,669.5,214.1C669.5,214.1,669.5,214.1,669.5,214.1
			L669.5,214.1z M670.8,229.8l9.4-10.5c0.9-0.2,1.6-0.9,1.8-1.7c1.4,0.6,0,2.9-1.4,2.1l-9.7,10.3L670.8,229.8L670.8,229.8z
			 M670.9,229.9c2.1,1.3,0.2,3.6-2,3c-1.5-0.4-2-1.9-1.2-2.8c-0.4,0.9,0.8,1.9,1.7,1.7l-0.1,0C670.3,232.1,671.3,230.9,670.9,229.9
			L670.9,229.9z M668.7,229.6L668.7,229.6L668.7,229.6C668.7,229.6,668.7,229.6,668.7,229.6L668.7,229.6z"/>
		<path display="inline" fill-rule="evenodd" clip-rule="evenodd" fill="#4C4C4C" d="M668.8,233.1c1.7,0.5,1.7,4.5,0.3,8
			c-1.4,3.5-3.1,5.4-4.7,6.1c-0.1,0.3-0.5,1.3-0.7,1.9c-0.7-0.3-1.4-0.6-2.2-0.7c1-2.5,0.6-1.1,0.3-3
			C665.6,243.6,669.2,236.4,668.8,233.1L668.8,233.1z M663.1,250.4c-0.3,0.7-0.7,1.5-1.1,2.3c-0.5-0.3-1.3-0.4-1.9-0.5
			c0.3-0.9,0.6-1.7,0.8-2.5C661.8,249.9,662.4,250.2,663.1,250.4L663.1,250.4z M661.4,254c-1.2,2.3-2.3,4.3-2.7,4.2
			c-0.4-0.1,0.2-2.3,0.9-4.8C660.3,253.6,660.8,253.8,661.4,254L661.4,254z M662,241.8l0.1-0.3c0,0,0.1,0,0.1,0
			C662.1,241.7,662.1,241.8,662,241.8L662,241.8z"/>
	</g>
	<g display="none">
		<path display="inline" fill-rule="evenodd" clip-rule="evenodd" fill="#FFFFFF" d="M430.7,410.1c0.2-0.1,6.6,3.2,3.7,7.4
			c-1.1,1.6-7.1,0.2-7.2-0.3C425.8,415.8,427.8,411,430.7,410.1L430.7,410.1z"/>
		<path display="inline" fill-rule="evenodd" clip-rule="evenodd" fill="#FFFFFF" d="M425.7,416.2c0.1-1,2.9-6.6-1.1-6
			c-1.9,0.3-6,3.4-4.8,5.1C420.7,416.7,424.4,417.1,425.7,416.2L425.7,416.2z"/>
		<path display="inline" fill-rule="evenodd" clip-rule="evenodd" fill="#FFFFFF" d="M427.2,418.3c-1.3,1.6,0.5,4,1.6,5.6
			c1.2,1.1,6,0.2,5.3-2C433.1,420.4,429.5,417.4,427.2,418.3L427.2,418.3z"/>
		<path display="inline" fill-rule="evenodd" clip-rule="evenodd" fill="#FFFFFF" d="M418.3,418.8c-1,0.8,2.4,4.9,4.7,5.7
			c1.9,0.6,3.7-4.3,2.7-6.1C424.5,417.8,419.4,418,418.3,418.8L418.3,418.8z"/>
		<polygon display="inline" fill-rule="evenodd" clip-rule="evenodd" fill="#F06565" points="429.4,416.1 427.6,418 428.2,420 
			426.5,418.8 424.2,419.8 425.9,417.9 425.3,415.9 427,417.1 429.4,416.1 		"/>
	</g>
	<g display="none">
		<path display="inline" fill-rule="evenodd" clip-rule="evenodd" fill="#FFFFFF" d="M708.1,427.1c-0.2,0-5.5-2.6-3.1-6.2
			c0.9-1.3,5.9-0.2,6,0.3C712.2,422.3,710.5,426.3,708.1,427.1L708.1,427.1z"/>
		<path display="inline" fill-rule="evenodd" clip-rule="evenodd" fill="#FFFFFF" d="M712.3,422c-0.1,0.8-2.4,5.5,0.9,5
			c1.5-0.3,5-2.9,4-4.3C716.4,421.6,713.3,421.2,712.3,422L712.3,422z"/>
		<path display="inline" fill-rule="evenodd" clip-rule="evenodd" fill="#FFFFFF" d="M711,420.2c1.1-1.4-0.4-3.3-1.4-4.7
			c-1-0.9-5-0.2-4.5,1.7C706.1,418.5,709.1,421,711,420.2L711,420.2z"/>
		<path display="inline" fill-rule="evenodd" clip-rule="evenodd" fill="#FFFFFF" d="M718.4,419.8c0.9-0.7-2-4.1-3.9-4.7
			c-1.6-0.5-3.1,3.6-2.2,5.1C713.3,420.7,717.5,420.5,718.4,419.8L718.4,419.8z"/>
		<polygon display="inline" fill-rule="evenodd" clip-rule="evenodd" fill="#F06565" points="709.2,422.1 710.6,420.5 710.1,418.9 
			711.6,419.9 713.5,419 712.1,420.6 712.6,422.2 711.2,421.2 709.2,422.1 		"/>
	</g>
	<g display="none">
		
			<linearGradient id="SVGID_38_" gradientUnits="userSpaceOnUse" x1="1303.1711" y1="2308.9612" x2="1225.7592" y2="2264.2673" gradientTransform="matrix(0.107 -0.1239 0.1239 0.107 -76.0682 91.8468)">
			<stop  offset="6.000000e-02" style="stop-color:#1298EB"/>
			<stop  offset="0.94" style="stop-color:#FFFFFF"/>
		</linearGradient>
		<path display="inline" fill-rule="evenodd" clip-rule="evenodd" fill="url(#SVGID_38_)" d="M338.6,185.4c-1.2-1.8-3.4-11,1.9-13
			c3.3-1.3,5.3,3.9,4.7,5.3c-0.8,2-2.4,3.5-3.9,5.3c1.8-1.4,4.1-1.3,4.9-0.7C351.6,185.7,343.6,189.7,338.6,185.4L338.6,185.4z"/>
		
			<linearGradient id="SVGID_39_" gradientUnits="userSpaceOnUse" x1="-1972.4841" y1="2264.5051" x2="-1893.7202" y2="2304.6375" gradientTransform="matrix(-0.107 0.1239 0.1239 0.107 -156.8562 185.8418)">
			<stop  offset="3.000000e-02" style="stop-color:#1298EB"/>
			<stop  offset="0.97" style="stop-color:#FFFFFF"/>
		</linearGradient>
		<path display="inline" fill-rule="evenodd" clip-rule="evenodd" fill="url(#SVGID_39_)" d="M337.9,186.3c-2-0.9-11.4-1.7-12.6,3.8
			c-0.8,3.4,4.6,4.7,5.9,3.9c1.9-1.1,3.1-2.8,4.6-4.7c-1.1,2-0.6,4.2,0,5C340.1,199,342.8,190.5,337.9,186.3L337.9,186.3z"/>
		<path display="inline" fill-rule="evenodd" clip-rule="evenodd" fill="#666666" d="M337.2,184.9c0.3-0.4,1.3-0.1,2.2,0.7
			c0.7,0.6,1.1,1.3,1.1,1.8c0.1,0.1,0.2,0.2,0.4,0.3c1.2,1,2,2,1.9,2.1c-0.1,0.1-1.2-0.6-2.4-1.6c-0.1-0.1-0.2-0.2-0.4-0.3
			c-0.5,0.1-1.2-0.2-1.9-0.8C337.3,186.2,336.8,185.3,337.2,184.9L337.2,184.9z M332.1,182.9c0.1-0.1,0.4-0.2,0.5,0
			c0.1,0.1,0.1,0.2,0.1,0.3l3.6,1.2c0-0.1,0.1-0.1,0.1-0.2c0,0,0.1-0.1,0.1-0.1l-1.7-3.4c-0.1,0-0.2,0-0.3-0.1
			c-0.1-0.1-0.2-0.3,0-0.5c0.1-0.2,0.3-0.2,0.5-0.1c0.1,0.1,0.2,0.3,0,0.5c0,0,0,0.1-0.1,0.1l1.6,3.4c0.2-0.1,0.5-0.2,0.6,0
			c0.2,0.2,0.2,0.5-0.1,0.8c-0.2,0.3-0.6,0.4-0.8,0.2c-0.2-0.1-0.2-0.4-0.1-0.6l-3.6-1.1c0,0,0,0.1-0.1,0.1c-0.1,0.1-0.4,0.2-0.5,0
			C332,183.3,332,183.1,332.1,182.9L332.1,182.9z"/>
	</g>
	<path display="none" fill-rule="evenodd" clip-rule="evenodd" fill="#65BA28" d="M153.2,304.7c-0.7,2.6-2,14.6,3.6,10.9
		c0.9-0.6,1.5-2.5,1.1-3.5c1.4-0.5,4,0.7,5.1-1.4c1.1-2.2-7.3-6.2-8.7-6c2.5-0.7,10.7-1,8.6-4.3c-0.4-1.1-2.1-1.9-3-1.6
		c0.4-2,1.3-3.7-0.3-4.8c-3-1.6-4.7,5.8-5.9,10.2c-0.9-2-1.3-8.7-3.9-9c-2.4-0.3-5.2,1.8-3.9,5.3c-2.5-0.1-6.1,4-2.7,6.2
		C145.4,308.2,151.6,305.7,153.2,304.7L153.2,304.7z"/>
	<path display="none" fill-rule="evenodd" clip-rule="evenodd" fill="#65BA28" d="M235.7,338.9c1.9,0.7,9.7,5.1,5,6.9
		c-0.7,0.3-2.2-0.2-2.6-0.8c-0.9,0.6-1.3,2.7-3.1,2.5c-1.8-0.3-0.6-7.1,0.1-7.8c-1.5,1.2-5.2,6-6.3,3.3c-0.5-0.7-0.2-2.1,0.4-2.5
		c-1.4-0.6-2.8-0.8-2.7-2.3c0.3-2.5,5.5-0.3,8.7,0.9c-0.8-1.4-4.7-4.6-3.8-6.2c0.8-1.6,3.3-2.3,4.9-0.1c1-1.6,5-1.9,4.9,1.1
		C241.2,335.7,236.9,338.4,235.7,338.9L235.7,338.9z"/>
	<g display="none">
		<path display="inline" fill-rule="evenodd" clip-rule="evenodd" fill="#FFFFFF" d="M764.9,430.5c-0.1,0-5.1,2.4-2.8,5.7
			c0.9,1.2,5.5,0.1,5.6-0.2C768.8,434.9,767.2,431.2,764.9,430.5L764.9,430.5z"/>
		<path display="inline" fill-rule="evenodd" clip-rule="evenodd" fill="#FFFFFF" d="M768.8,435.2c-0.1-0.7-2.3-5.1,0.8-4.6
			c1.4,0.2,4.6,2.6,3.7,3.9C772.7,435.6,769.8,435.9,768.8,435.2L768.8,435.2z"/>
		<path display="inline" fill-rule="evenodd" clip-rule="evenodd" fill="#FFFFFF" d="M767.7,436.8c1,1.3-0.4,3.1-1.3,4.3
			c-0.9,0.9-4.6,0.1-4.1-1.5C763.1,438.4,765.9,436.1,767.7,436.8L767.7,436.8z"/>
		<path display="inline" fill-rule="evenodd" clip-rule="evenodd" fill="#FFFFFF" d="M774.5,437.2c0.8,0.6-1.8,3.8-3.6,4.4
			c-1.5,0.5-2.8-3.3-2-4.7C769.8,436.4,773.7,436.6,774.5,437.2L774.5,437.2z"/>
		<polygon display="inline" fill-rule="evenodd" clip-rule="evenodd" fill="#F06565" points="766,435.1 767.3,436.5 766.9,438.1 
			768.2,437.2 770,438 768.6,436.5 769.1,435 767.8,435.9 766,435.1 		"/>
	</g>
	<path display="none" fill-rule="evenodd" clip-rule="evenodd" fill="#00FF00" d="M154.9,485.5h2.7v0.1c0,1.3,0.4,2.3,1.1,3.2
		c0.7,0.8,1.6,1.3,2.7,1.3c1,0,1.9-0.3,2.6-1c0.7-0.7,1-1.5,1-2.5c0-1-0.3-1.8-0.8-2.4c-0.5-0.6-1.5-1.2-3-1.7
		c-2.3-0.8-3.8-1.6-4.5-2.5c-0.7-0.8-1-2-1-3.4c0-1.6,0.6-3,1.8-4.1c1.2-1.1,2.6-1.7,4.2-1.7c1.8,0,3.2,0.5,4.2,1.5
		c1,1,1.6,2.4,1.7,4.2h-2.8c-0.1-1-0.4-1.7-0.9-2.3c-0.6-0.5-1.3-0.8-2.3-0.8c-0.9,0-1.6,0.3-2.2,0.9c-0.6,0.6-0.9,1.3-0.9,2.2
		c0,0.6,0.1,1.1,0.4,1.5c0.2,0.4,0.6,0.8,1.2,1.1c0.5,0.3,1.2,0.6,2.2,0.9c1,0.3,1.6,0.5,1.9,0.6c1.3,0.5,2.2,1.3,2.8,2.2
		c0.6,0.9,0.9,2.1,0.9,3.5c0,1.8-0.6,3.2-1.9,4.4c-1.2,1.2-2.8,1.7-4.7,1.7c-1.9,0-3.5-0.6-4.7-1.9
		C155.6,489.3,155,487.6,154.9,485.5L154.9,485.5z M188.5,481.5c0-2.2-0.8-4.1-2.3-5.7c-1.6-1.6-3.4-2.4-5.4-2.4
		c-2.2,0-4.1,0.8-5.6,2.4c-1.6,1.6-2.3,3.6-2.3,6.1c0,2.3,0.8,4.2,2.3,5.8c1.5,1.6,3.4,2.4,5.6,2.4c2.1,0,3.9-0.8,5.5-2.5
		C187.7,485.9,188.5,483.9,188.5,481.5L188.5,481.5z M188.5,488.7c-0.8,1.2-1.9,2.1-3.3,2.8c-1.4,0.7-2.9,1-4.5,1
		c-3,0-5.5-1-7.5-3.1c-2-2.1-3-4.6-3-7.6c0-3.1,1-5.7,3.1-7.7c2.1-2.1,4.6-3.1,7.7-3.1c1.6,0,3,0.3,4.4,1c1.3,0.6,2.4,1.6,3.3,2.8
		v-3.3h2.6v20.6h-2.6V488.7L188.5,488.7z M211.4,474.6c0.8-1.2,1.9-2.1,3.1-2.7c1.2-0.6,2.6-0.9,4.2-0.9c2.8,0,4.8,0.8,6.1,2.5
		c1.3,1.7,1.9,4.4,1.9,8.1v10.4h-2.5V481c0-2.7-0.4-4.7-1.3-5.8c-0.9-1.2-2.4-1.7-4.4-1.7c-1.2,0-2.2,0.2-3.1,0.7
		c-0.9,0.5-1.6,1.2-2.1,2.1c-0.3,0.6-0.5,1.2-0.7,1.9c-0.1,0.7-0.2,2-0.2,3.8v10h-2.5v-11.5c0-2.4-0.5-4.1-1.4-5.3
		c-1-1.1-2.4-1.7-4.4-1.7c-1.2,0-2.2,0.2-3.2,0.7c-0.9,0.5-1.6,1.2-2.1,2.1c-0.3,0.6-0.6,1.2-0.7,1.9c-0.1,0.7-0.2,2-0.2,3.8v10
		h-2.6v-20.6h2.6v2.3c0.8-0.9,1.7-1.6,2.8-2.1c1.1-0.5,2.3-0.7,3.6-0.7c1.6,0,3,0.3,4.3,1C209.8,472.6,210.7,473.5,211.4,474.6
		L211.4,474.6z M230.9,471.4h2.6v3.4c0.7-1.2,1.8-2.1,3.2-2.8c1.4-0.7,2.9-1,4.4-1c3.1,0,5.7,1,7.7,3.1c2,2.1,3.1,4.6,3.1,7.7
		c0,3-1,5.6-3,7.6c-2,2.1-4.5,3.1-7.6,3.1c-1.7,0-3.2-0.3-4.5-1c-1.3-0.7-2.5-1.6-3.3-2.8v1.4v3.1v5.4h-2.6V471.4L230.9,471.4z
		 M233.5,481.5c0,2.3,0.8,4.3,2.3,6c1.5,1.7,3.4,2.5,5.5,2.5c2.2,0,4-0.8,5.6-2.4c1.5-1.6,2.3-3.5,2.3-5.8c0-2.4-0.8-4.4-2.3-6.1
		c-1.6-1.6-3.4-2.4-5.6-2.4c-2,0-3.8,0.8-5.4,2.5C234.2,477.4,233.5,479.3,233.5,481.5L233.5,481.5z M255.1,491.9v-27.2h2.6v27.2
		H255.1L255.1,491.9z M282.2,482.5h-18.6c0.2,2.2,1,4,2.4,5.4c1.5,1.4,3.3,2.1,5.5,2.1c1.5,0,2.9-0.4,4.2-1.2
		c1.2-0.8,2.2-1.9,2.9-3.3h3c-0.9,2.3-2.3,4-4,5.2c-1.7,1.2-3.7,1.8-6,1.8c-3,0-5.5-1.1-7.6-3.2c-2.1-2.1-3.1-4.7-3.1-7.7
		c0-3.1,1-5.7,3-7.8c2-2.1,4.6-3.1,7.8-3.1c3.1,0,5.6,1.1,7.6,3.2c2,2.1,2.9,4.9,2.9,8.3V482.5L282.2,482.5z M279.3,480.3
		c-0.5-2.3-1.4-4.1-2.8-5.2c-1.3-1.2-3.1-1.8-5.2-1.8c-2,0-3.7,0.6-5.1,1.9c-1.4,1.3-2.2,3-2.5,5.1H279.3L279.3,480.3z M297.9,491.9
		V474h-3.9v-2.7h3.9v-6.7h2.6v6.7h3.9v2.7h-3.9v17.9H297.9L297.9,491.9z M326.7,482.5h-18.6c0.2,2.2,1,4,2.4,5.4
		c1.5,1.4,3.3,2.1,5.5,2.1c1.5,0,2.9-0.4,4.2-1.2c1.2-0.8,2.2-1.9,2.9-3.3h3c-0.9,2.3-2.3,4-4,5.2c-1.7,1.2-3.7,1.8-6,1.8
		c-3,0-5.5-1.1-7.6-3.2c-2.1-2.1-3.1-4.7-3.1-7.7c0-3.1,1-5.7,3-7.8c2-2.1,4.6-3.1,7.8-3.1c3.1,0,5.6,1.1,7.6,3.2
		c2,2.1,2.9,4.9,2.9,8.3V482.5L326.7,482.5z M323.8,480.3c-0.5-2.3-1.4-4.1-2.8-5.2c-1.3-1.2-3.1-1.8-5.2-1.8c-2,0-3.7,0.6-5.1,1.9
		c-1.4,1.3-2.2,3-2.5,5.1H323.8L323.8,480.3z M330.9,471.4l4.8,7.8l5.1-7.8h3l-6.7,9.9l6.6,10.7h-3l-5.3-8.6l-5.5,8.6h-2.9l7-10.7
		l-6.1-9.9H330.9L330.9,471.4z M347.4,491.9V474h-3.9v-2.7h3.9v-6.7h2.6v6.7h3.9v2.7H350v17.9H347.4L347.4,491.9z"/>
	<g display="none">
		<path display="inline" fill-rule="evenodd" clip-rule="evenodd" fill="#FFFFFF" d="M694.3,413.9c0.1,0,4.2-2,2.3-4.7
			c-0.7-1-4.5-0.1-4.5,0.2C691.2,410.3,692.5,413.4,694.3,413.9L694.3,413.9z"/>
		<path display="inline" fill-rule="evenodd" clip-rule="evenodd" fill="#FFFFFF" d="M691.1,410.1c0.1,0.6,1.8,4.2-0.7,3.7
			c-1.2-0.2-3.8-2.2-3-3.2C688,409.8,690.4,409.5,691.1,410.1L691.1,410.1z"/>
		<path display="inline" fill-rule="evenodd" clip-rule="evenodd" fill="#FFFFFF" d="M692.1,408.8c-0.8-1,0.3-2.5,1-3.5
			c0.7-0.7,3.8-0.1,3.4,1.2C695.8,407.4,693.6,409.3,692.1,408.8L692.1,408.8z"/>
		<path display="inline" fill-rule="evenodd" clip-rule="evenodd" fill="#FFFFFF" d="M686.5,408.4c-0.6-0.5,1.5-3.1,3-3.6
			c1.2-0.4,2.3,2.7,1.7,3.8C690.4,409.1,687.2,408.9,686.5,408.4L686.5,408.4z"/>
		<polygon display="inline" fill-rule="evenodd" clip-rule="evenodd" fill="#F06565" points="693.5,410.2 692.4,409 692.8,407.7 
			691.7,408.5 690.2,407.8 691.3,409 690.9,410.3 692,409.5 693.5,410.2 		"/>
	</g>
	<g display="none">
		<path display="inline" fill-rule="evenodd" clip-rule="evenodd" fill="#2EDB2E" d="M124,480.7c1.3-4.1,12.5-19.1,22.3-13.6
			c6.1,3.4,0.8,13-2.1,13.9c-4.1,1.3-8.3,0.8-13,0.7c4.4,1.1,7.1,4.6,7.3,6.6C139.8,500.9,123.7,493.7,124,480.7L124,480.7z"/>
		<path display="inline" fill-rule="evenodd" clip-rule="evenodd" fill="#2EDB2E" d="M121.6,480.7c-1.1-4.2-11.7-19.6-21.7-14.5
			c-6.2,3.2-1.3,12.9,1.6,14c4.1,1.5,8.2,1.1,13,1.2c-4.4,0.9-7.3,4.3-7.6,6.3C105,500.2,121.4,493.6,121.6,480.7L121.6,480.7z"/>
		<path display="inline" fill-rule="evenodd" clip-rule="evenodd" fill="#2EDB2E" d="M122.9,477.8c1,0,1.8,1.9,1.8,4.2
			c0,1.8-0.6,3.3-1.3,3.9c0,0.3,0,0.6,0,0.9c-0.1,3.1-0.4,5.6-0.8,5.6c-0.4,0-0.6-2.5-0.6-5.6c0-0.3,0-0.6,0-0.9
			c-0.7-0.6-1.2-2.2-1.1-3.9C121,479.7,121.8,477.8,122.9,477.8L122.9,477.8z M119.4,467.7c0.4,0,0.7,0.3,0.7,0.7
			c0,0.2-0.1,0.4-0.3,0.5l2.7,7c0.1,0,0.3,0,0.4,0c0.1,0,0.3,0,0.4,0l3-6.9c-0.2-0.1-0.2-0.3-0.3-0.5c0-0.4,0.3-0.7,0.7-0.7
			c0.4,0,0.7,0.3,0.7,0.7c0,0.4-0.3,0.7-0.7,0.7c-0.1,0-0.1,0-0.2,0l-3.2,6.7c0.5,0.1,0.9,0.5,0.8,0.9c0,0.5-0.6,0.9-1.3,0.9
			c-0.7,0-1.3-0.5-1.3-1c0-0.4,0.4-0.7,0.8-0.9l-2.9-6.9c-0.1,0-0.1,0-0.2,0c-0.4,0-0.7-0.3-0.7-0.7
			C118.7,467.9,119,467.6,119.4,467.7L119.4,467.7z"/>
	</g>
</g>
</svg>
